<?xml version="1.0" encoding="utf-8"?>
<!-- Generator: Adobe Illustrator 16.0.0, SVG Export Plug-In . SVG Version: 6.00 Build 0)  -->
<!DOCTYPE svg PUBLIC "-//W3C//DTD SVG 1.1//EN" "http://www.w3.org/Graphics/SVG/1.1/DTD/svg11.dtd">
<svg version="1.1" xmlns="http://www.w3.org/2000/svg" xmlns:xlink="http://www.w3.org/1999/xlink" x="0px" y="0px"
	 width="91.367px" height="130.532px" viewBox="0 0 91.367 130.532" enable-background="new 0 0 91.367 130.532"
	 xml:space="preserve">
<g id="Ebene_7">
	
		<rect x="19.4" y="25.857" transform="matrix(0.9691 -0.2465 0.2465 0.9691 -14.4988 13.2715)" fill="none" width="52.711" height="77.372"/>
</g>
<g id="Ebene_3">
	<g>
		<g>
			<path fill="#E57B51" d="M53.182,3.886c5.036,0,9.625,3.397,10.922,8.5l23.029,90.529c1.533,6.038-2.113,12.177-8.152,13.714
				l-38,9.667c-0.933,0.237-1.867,0.35-2.786,0.35c-5.038,0-9.629-3.397-10.928-8.502L4.24,27.615
				c-1.536-6.037,2.113-12.177,8.148-13.711l38.003-9.667C51.325,4,52.261,3.886,53.182,3.886 M53.182,0L53.182,0
				c-1.259,0-2.52,0.159-3.748,0.471l-38.003,9.667c-3.925,0.998-7.226,3.465-9.296,6.947c-2.069,3.482-2.659,7.562-1.66,11.487
				l23.026,90.529c1.712,6.73,7.754,11.43,14.693,11.43c1.256,0,2.516-0.158,3.742-0.47l38.002-9.667
				c8.102-2.062,13.019-10.332,10.961-18.436l-23.03-90.531C66.159,4.7,60.119,0,53.182,0L53.182,0z"/>
		</g>
	</g>
	
		<rect x="19.4" y="25.857" transform="matrix(0.9691 -0.2465 0.2465 0.9691 -14.4988 13.2715)" fill="none" stroke="#E57B51" stroke-width="2.5373" stroke-miterlimit="10" width="52.711" height="77.372"/>
</g>
</svg>
