<?xml version="1.0" encoding="utf-8"?>
<!-- Generator: Adobe Illustrator 16.0.0, SVG Export Plug-In . SVG Version: 6.00 Build 0)  -->
<!DOCTYPE svg PUBLIC "-//W3C//DTD SVG 1.1//EN" "http://www.w3.org/Graphics/SVG/1.1/DTD/svg11.dtd">
<svg version="1.1" id="Ebene_2" xmlns="http://www.w3.org/2000/svg" xmlns:xlink="http://www.w3.org/1999/xlink" x="0px" y="0px"
	 width="191.804px" height="39.267px" viewBox="0 0 191.804 39.267" enable-background="new 0 0 191.804 39.267"
	 xml:space="preserve">
<g>
	<path fill="#565C5C" d="M0,1.582c0-0.546,0.436-1.037,1.036-1.037h22.578c0.601,0,1.036,0.491,1.036,1.037v5.943
		c0,0.547-0.436,1.037-1.036,1.037H8.508v7.853h12.434c0.545,0,1.036,0.491,1.036,1.036v5.944c0,0.546-0.491,1.037-1.036,1.037
		H8.508v13.253c0,0.544-0.491,1.036-1.036,1.036H1.036C0.436,38.722,0,38.229,0,37.686V1.582z"/>
</g>
<path fill="#565C5C" d="M31.344,1.582c0-0.546,0.49-1.037,1.036-1.037h6.544c0.545,0,1.036,0.491,1.036,1.037v36.104
	c0,0.544-0.491,1.036-1.036,1.036H32.38c-0.546,0-1.036-0.492-1.036-1.036V1.582z"/>
<g>
	<linearGradient id="SVGID_1_" gradientUnits="userSpaceOnUse" x1="31.6045" y1="19.6338" x2="58.7969" y2="19.6338">
		<stop  offset="0" style="stop-color:#F7924D"/>
		<stop  offset="0.0824" style="stop-color:#F78F47"/>
		<stop  offset="0.6826" style="stop-color:#F57B22"/>
		<stop  offset="1" style="stop-color:#F57414"/>
	</linearGradient>
	<path fill="url(#SVGID_1_)" d="M57.003,0.545h-5.345c-0.77,0-1.506,0.542-1.71,1.258L31.686,36.392
		c-0.169,0.59-0.07,1.186,0.268,1.636c0.333,0.44,0.858,0.694,1.441,0.694h5.399c0.745,0,1.244-0.338,1.71-1.26L58.712,2.874
		c0.173-0.602,0.079-1.202-0.256-1.646C58.128,0.794,57.599,0.545,57.003,0.545z"/>
</g>
<path fill="#565C5C" d="M82.138,1.582c0-0.546,0.436-1.037,0.982-1.037h13.307c10.525,0,19.143,8.562,19.143,19.034
	c0,10.58-8.617,19.143-19.143,19.143H83.12c-0.547,0-0.982-0.492-0.982-1.036V1.582z M95.881,30.649
	c6.162,0,10.636-4.854,10.636-11.07c0-6.163-4.474-11.017-10.636-11.017h-5.235v22.087H95.881z"/>
<linearGradient id="SVGID_2_" gradientUnits="userSpaceOnUse" x1="124.2793" y1="26.5303" x2="124.2793" y2="35.4353">
	<stop  offset="0" style="stop-color:#F7924D"/>
	<stop  offset="0.0824" style="stop-color:#F78F47"/>
	<stop  offset="0.6826" style="stop-color:#F57B22"/>
	<stop  offset="1" style="stop-color:#F57414"/>
</linearGradient>
<path fill="url(#SVGID_2_)" d="M124.224,28.905c2.836,0,5.236,2.397,5.236,5.233c0,2.783-2.4,5.128-5.236,5.128
	c-2.78,0-5.125-2.345-5.125-5.128C119.099,31.303,121.443,28.905,124.224,28.905z"/>
<path fill="#565C5C" d="M137.378,1.582c0-0.546,0.491-1.037,1.036-1.037h6.545c0.545,0,1.036,0.491,1.036,1.037v36.104
	c0,0.544-0.491,1.036-1.036,1.036h-6.545c-0.545,0-1.036-0.492-1.036-1.036V1.582z"/>
<path fill="#565C5C" d="M172.171,0c10.906,0,19.633,8.78,19.633,19.688c0,10.907-8.727,19.578-19.633,19.578
	c-10.909,0-19.58-8.671-19.58-19.578C152.591,8.78,161.262,0,172.171,0z M172.171,30.54c5.998,0,10.906-4.908,10.906-10.852
	c0-6-4.908-10.964-10.906-10.964c-5.945,0-10.854,4.964-10.854,10.964C161.317,25.632,166.226,30.54,172.171,30.54z"/>
<path fill="#565C5C" d="M50.278,1.582c0-0.546,0.491-1.037,1.036-1.037h6.544c0.546,0,1.036,0.491,1.036,1.037v36.104
	c0,0.544-0.49,1.036-1.036,1.036h-6.544c-0.545,0-1.036-0.492-1.036-1.036V1.582z"/>
<g>
	<linearGradient id="SVGID_3_" gradientUnits="userSpaceOnUse" x1="50.54" y1="19.6338" x2="77.7324" y2="19.6338">
		<stop  offset="0" style="stop-color:#F7924D"/>
		<stop  offset="0.0824" style="stop-color:#F78F47"/>
		<stop  offset="0.6826" style="stop-color:#F57B22"/>
		<stop  offset="1" style="stop-color:#F57414"/>
	</linearGradient>
	<path fill="url(#SVGID_3_)" d="M75.938,0.545h-5.345c-0.77,0-1.504,0.542-1.71,1.258L50.621,36.392
		c-0.169,0.59-0.071,1.186,0.267,1.636c0.333,0.44,0.858,0.694,1.442,0.694h5.398c0.745,0,1.245-0.338,1.711-1.26L77.648,2.874
		c0.171-0.602,0.078-1.202-0.258-1.646C77.062,0.794,76.533,0.545,75.938,0.545z"/>
</g>
<linearGradient id="SVGID_4_" gradientUnits="userSpaceOnUse" x1="50.2783" y1="19.6338" x2="77.7324" y2="19.6338">
	<stop  offset="0" style="stop-color:#F7924D"/>
	<stop  offset="0.0824" style="stop-color:#F78F47"/>
	<stop  offset="0.6826" style="stop-color:#F57B22"/>
	<stop  offset="1" style="stop-color:#F57414"/>
</linearGradient>
<path fill="url(#SVGID_4_)" d="M77.391,1.228c-0.328-0.434-0.857-0.683-1.453-0.683h-5.345c-0.77,0-1.504,0.542-1.71,1.258
	l-9.988,18.918V20.66l-8.616,16.264v0.762c0,0.544,0.491,1.036,1.036,1.036h1.016h5.398h0.13c0.088,0,0.173-0.019,0.256-0.041
	c0.54-0.108,0.944-0.468,1.325-1.219L77.648,2.874C77.819,2.272,77.727,1.672,77.391,1.228z"/>
<linearGradient id="SVGID_5_" gradientUnits="userSpaceOnUse" x1="31.3438" y1="19.6338" x2="58.7969" y2="19.6338">
	<stop  offset="0" style="stop-color:#F7924D"/>
	<stop  offset="0.0824" style="stop-color:#F78F47"/>
	<stop  offset="0.6826" style="stop-color:#F57B22"/>
	<stop  offset="1" style="stop-color:#F57414"/>
</linearGradient>
<path fill="url(#SVGID_5_)" d="M58.456,1.228c-0.328-0.434-0.857-0.683-1.453-0.683h-5.345c-0.77,0-1.506,0.542-1.71,1.258
	L39.96,20.721V20.66l-8.616,16.264v0.762c0,0.544,0.49,1.036,1.036,1.036h1.015h5.399h0.13c0.088,0,0.173-0.019,0.256-0.041
	c0.54-0.108,0.944-0.468,1.324-1.219L58.712,2.874C58.885,2.272,58.791,1.672,58.456,1.228z"/>
<g>
	<linearGradient id="SVGID_6_" gradientUnits="userSpaceOnUse" x1="31.3438" y1="19.6338" x2="58.8945" y2="19.6338">
		<stop  offset="0" style="stop-color:#F7924D"/>
		<stop  offset="0.0824" style="stop-color:#F78F47"/>
		<stop  offset="0.6826" style="stop-color:#F57B22"/>
		<stop  offset="1" style="stop-color:#F57414"/>
	</linearGradient>
	<path fill="url(#SVGID_6_)" d="M46.364,26.331l12.53-23.882V1.582c0-0.546-0.49-1.037-1.036-1.037h-0.855h-5.345h-0.344
		c-0.343,0-0.664,0.194-0.855,0.474c-0.238,0.213-0.425,0.482-0.511,0.784L39.96,20.721V20.66l-8.616,16.264v0.762
		c0,0.544,0.49,1.036,1.036,1.036h1.015h5.399h0.13c0.088,0,0.173-0.019,0.256-0.041c0.54-0.108,0.944-0.468,1.324-1.219
		L46.364,26.331L46.364,26.331z"/>
</g>
</svg>
