<?xml version="1.0" encoding="UTF-8" standalone="no"?>
<!-- Generator: Adobe Illustrator 16.0.0, SVG Export Plug-In . SVG Version: 6.00 Build 0)  -->

<svg
   xmlns:dc="http://purl.org/dc/elements/1.1/"
   xmlns:cc="http://creativecommons.org/ns#"
   xmlns:rdf="http://www.w3.org/1999/02/22-rdf-syntax-ns#"
   xmlns:svg="http://www.w3.org/2000/svg"
   xmlns="http://www.w3.org/2000/svg"
   xmlns:sodipodi="http://sodipodi.sourceforge.net/DTD/sodipodi-0.dtd"
   xmlns:inkscape="http://www.inkscape.org/namespaces/inkscape"
   version="1.1"
   x="0px"
   y="0px"
   width="896.421px"
   height="189.903px"
   viewBox="0 0 896.421 189.903"
   enable-background="new 0 0 896.421 189.903"
   xml:space="preserve"
   id="svg3678"
   inkscape:version="0.48.4 r9939"
   sodipodi:docname="header.svg"><metadata
   id="metadata3883"><rdf:RDF><cc:Work
       rdf:about=""><dc:format>image/svg+xml</dc:format><dc:type
         rdf:resource="http://purl.org/dc/dcmitype/StillImage" /></cc:Work></rdf:RDF></metadata><defs
   id="defs3881" /><sodipodi:namedview
   pagecolor="#ffffff"
   bordercolor="#666666"
   borderopacity="1"
   objecttolerance="10"
   gridtolerance="10"
   guidetolerance="10"
   inkscape:pageopacity="0"
   inkscape:pageshadow="2"
   inkscape:window-width="1920"
   inkscape:window-height="1037"
   id="namedview3879"
   showgrid="false"
   inkscape:zoom="2.107703"
   inkscape:cx="408.99006"
   inkscape:cy="-44.060249"
   inkscape:window-x="-2"
   inkscape:window-y="20"
   inkscape:window-maximized="1"
   inkscape:current-layer="svg3678" />
<g
   id="Ebene_2">
	<g
   id="g3681">
		<g
   id="g3683">
			<path
   d="M54.523,50.558H15.312c-6.229,0-11.279,5.05-11.279,11.28v93.411c0,6.231,5.05,11.28,11.279,11.28h39.212     c6.229,0,11.28-5.049,11.28-11.28V61.838C65.804,55.608,60.753,50.558,54.523,50.558z"
   id="path3685"
   fill="#FFFFFF" />
		</g>
		<g
   id="g3687">
			<path
   d="M333.738,38.535c0,0,0.155-4.965-2.198-5.426c0,0-33.594-6.89-62.477-0.117c0,0-2.512,0.578-2.512,5.389     l0.236,83.519c0,0-0.094,1.585,0.129,3.811l-0.129-0.001l0.234,43.529c0,0-0.354,6.351,3.18,11.315c0,0,2.707,4.271,11.891,5.542     c0,0,20.837,2.425,35.79,0.117c0,0,14.011-0.462,14.599-16.281l0.312-43.645C334.257,114.528,333.58,50.389,333.738,38.535z"
   id="path3689"
   fill="#FFFFFF" />
		</g>
		<g
   id="g3691">
			<path
   d="M885.733,16.131h-87.949c-3.994,0-7.234,3.238-7.234,7.233v154.989c0,3.997,3.24,7.235,7.234,7.235     h87.949c3.995,0,7.234-3.238,7.234-7.235V23.364C892.968,19.37,889.729,16.131,885.733,16.131z"
   id="path3693"
   fill="#FFFFFF" />
		</g>
		<g
   id="g3695">
			<path
   d="M506.911,23.593h-100.65c-2.736,0-4.953,2.217-4.953,4.952v150.521c0,2.736,2.217,4.953,4.953,4.953     h100.65c2.734,0,4.952-2.217,4.952-4.953V28.545C511.863,25.811,509.646,23.593,506.911,23.593z"
   id="path3697"
   fill="#FFFFFF" />
		</g>
		<g
   id="g3699">
			<path
   d="M716.129,3.886H590.795c-4.674,0-8.462,3.789-8.462,8.462v165.207c0,4.674,3.788,8.462,8.462,8.462     h125.334c4.673,0,8.462-3.788,8.462-8.462V12.348C724.591,7.674,720.802,3.886,716.129,3.886z"
   id="path3701"
   fill="#FFFFFF" />
		</g>
		<g
   id="g3703">
			<path
   d="M179.465,43.417c0,0-24.265-1.103-30.146,0.551c0,0-15.623,0.552-16.727,16.36     c0,0-3.308,63.968,0.918,96.869c0,0,0.368,15.808,12.501,18.749c0,0,18.381,4.228,37.313,0.368c0,0,12.868-2.023,13.236-19.117     c0,0,2.389-74.627,0.367-97.236C196.927,59.96,196.56,44.704,179.465,43.417z"
   id="path3705"
   fill="#FFFFFF" />
		</g>
	</g>
</g>
<g
   id="Ebene_6">
	<g
   id="g3708">
		<g
   id="g3710">
			<path
   d="M54.523,50.558H15.312c-6.229,0-11.279,5.05-11.279,11.28v93.411c0,6.231,5.05,11.28,11.279,11.28h39.212     c6.229,0,11.28-5.049,11.28-11.28V61.838C65.804,55.608,60.753,50.558,54.523,50.558z"
   id="path3712"
   fill="#E0EEEE" />
		</g>
		<g
   id="g3714">
			<path
   d="M333.738,38.535c0,0,0.155-4.965-2.198-5.426c0,0-33.594-6.89-62.477-0.117c0,0-2.512,0.578-2.512,5.389     l0.236,83.519c0,0-0.094,1.585,0.129,3.811l-0.129-0.001l0.234,43.529c0,0-0.354,6.351,3.18,11.315c0,0,2.707,4.271,11.891,5.542     c0,0,20.837,2.425,35.79,0.117c0,0,14.011-0.462,14.599-16.281l0.312-43.645C334.257,114.528,333.58,50.389,333.738,38.535z"
   id="path3716"
   fill="#E0EEEE" />
		</g>
		<g
   id="g3718">
			<path
   d="M885.733,16.131h-87.949c-3.994,0-7.234,3.238-7.234,7.233v154.989c0,3.997,3.24,7.235,7.234,7.235     h87.949c3.995,0,7.234-3.238,7.234-7.235V23.364C892.968,19.37,889.729,16.131,885.733,16.131z"
   id="path3720"
   fill="#E0EEEE" />
		</g>
		<g
   id="g3722">
			<path
   d="M506.911,23.593h-100.65c-2.736,0-4.953,2.217-4.953,4.952v150.521c0,2.736,2.217,4.953,4.953,4.953     h100.65c2.734,0,4.952-2.217,4.952-4.953V28.545C511.863,25.811,509.646,23.593,506.911,23.593z"
   id="path3724"
   fill="#E0EEEE" />
		</g>
		<g
   id="g3726">
			<path
   d="M716.129,3.886H590.795c-4.674,0-8.462,3.789-8.462,8.462v165.207c0,4.674,3.788,8.462,8.462,8.462     h125.334c4.673,0,8.462-3.788,8.462-8.462V12.348C724.591,7.674,720.802,3.886,716.129,3.886z"
   id="path3728"
   fill="#E0EEEE" />
		</g>
		<g
   id="g3730">
			<path
   d="M179.465,43.417c0,0-24.265-1.103-30.146,0.551c0,0-15.623,0.552-16.727,16.36     c0,0-3.308,63.968,0.918,96.869c0,0,0.368,15.808,12.501,18.749c0,0,18.381,4.228,37.313,0.368c0,0,12.868-2.023,13.236-19.117     c0,0,2.389-74.627,0.367-97.236C196.927,59.96,196.56,44.704,179.465,43.417z"
   id="path3732"
   fill="#E0EEEE" />
		</g>
	</g>
</g>


<g
   id="Ebene_3">
	<path
   stroke-miterlimit="10"
   d="M41.209,59.165   c0,0.504-0.409,0.913-0.912,0.913h-10.03c-0.503,0-0.913-0.409-0.913-0.913v-0.299c0-0.504,0.409-0.913,0.913-0.913h10.03   c0.503,0,0.912,0.409,0.912,0.913V59.165z"
   id="path3765"
   stroke-width="0.9714"
   stroke="#F58D4D"
   fill="none" />
	<g
   id="g3767">
		<g
   id="g3769">
			<path
   d="M54.376,50.844c6.23,0,11.28,5.05,11.28,11.28v93.411c0,6.231-5.05,11.281-11.28,11.281H15.165     c-6.229,0-11.279-5.05-11.279-11.281V62.124c0-6.229,5.05-11.28,11.279-11.28H54.376 M54.376,46.958H15.165     C6.803,46.958,0,53.761,0,62.124v93.411c0,8.363,6.803,15.167,15.165,15.167h39.211c8.363,0,15.166-6.804,15.166-15.167V62.124     C69.542,53.761,62.739,46.958,54.376,46.958L54.376,46.958z"
   id="path3771"
   fill="#F58D4D" />
		</g>
	</g>
	
		<rect
   x="8.663"
   y="69.459"
   stroke-miterlimit="10"
   width="52.709"
   height="77.373"
   id="rect3773"
   stroke-width="2.5373"
   stroke="#F58D4D"
   fill="none" />
	<circle
   stroke-miterlimit="10"
   cx="34.51"
   cy="156.966"
   r="5.396"
   id="circle3775"
   stroke-width="1.0156"
   stroke="#F58D4D"
   fill="none" />
	
		<rect
   x="32.542"
   y="154.788"
   stroke-miterlimit="10"
   width="3.936"
   height="3.937"
   id="rect3777"
   stroke-width="0.5078"
   stroke="#F58D4D"
   fill="none" />
	<circle
   stroke-miterlimit="10"
   cx="653.544"
   cy="175.934"
   r="4.145"
   id="circle3779"
   stroke-width="0.7803"
   stroke="#F58D4D"
   fill="none" />
	
		<rect
   x="652.031"
   y="174.259"
   stroke-miterlimit="10"
   width="3.024"
   height="3.024"
   id="rect3781"
   stroke-width="0.3901"
   stroke="#F58D4D"
   fill="none" />
	<path
   stroke-miterlimit="10"
   d="M307.345,38.144c0,0.629-0.511,1.14-1.14,1.14   h-12.517c-0.629,0-1.139-0.511-1.139-1.14v-0.373c0-0.628,0.51-1.14,1.139-1.14h12.517c0.629,0,1.14,0.511,1.14,1.14V38.144z"
   id="path3783"
   stroke-width="0.8982"
   stroke="#F58D4D"
   fill="none" />
	<g
   id="g3785">
		<path
   d="M298.044,30.011c18.296,0,33.106,3.097,33.106,3.097c2.308,0.461,2.155,5.426,2.155,5.426    c-0.154,11.854,0.508,75.994-0.925,87.751c-1.462,12.009-10.931,13.971-10.931,13.971c-7.455,1.899-14.566,2.56-20.853,2.56    c-14.355,0-24.409-3.444-24.409-3.444c-9.391-3.079-8.543-17.473-8.543-17.473l-0.231-83.519c0-4.811,2.464-5.389,2.464-5.389    C279.214,30.759,289.049,30.011,298.044,30.011 M298.044,26.125c-10.723,0-20.503,1.039-29.069,3.087    c-0.543,0.127-5.446,1.499-5.446,9.168l0.231,83.428c-0.079,1.759-0.441,17.416,11.199,21.25    c0.745,0.252,11.048,3.644,25.639,3.644c7.48,0,14.806-0.898,21.774-2.67c1.399-0.331,12.168-3.323,13.866-17.276    c1.088-8.93,1.003-45.772,0.947-70.15c-0.02-8.329-0.034-14.914,0.005-17.988c0.113-3.979-1.213-8.506-5.278-9.318    C331.325,29.175,316.529,26.125,298.044,26.125L298.044,26.125z"
   id="path3787"
   fill="#F58D4D" />
	</g>
	<path
   stroke-miterlimit="10"
   d="M267.646,133.48l0.23,35.757   c0,0-0.347,6.351,3.118,11.315c0,0,2.655,4.271,11.661,5.542c0,0,20.437,2.425,35.101,0.117c0,0,13.74-0.462,14.317-16.281   l0.308-35.874"
   id="path3789"
   stroke-width="3.8858"
   stroke="#F58D4D"
   fill="none" />
	
		<rect
   x="272.957"
   y="50.081"
   stroke-miterlimit="10"
   width="54.754"
   height="72.28"
   id="rect3791"
   stroke-width="2.5678"
   stroke="#F58D4D"
   fill="none" />
	<path
   stroke-miterlimit="10"
   d="M304.188,135.887   c0,0.724-0.586,1.31-1.309,1.31h-5.58c-0.723,0-1.309-0.586-1.309-1.31v-5.578c0-0.724,0.586-1.311,1.309-1.311h5.58   c0.723,0,1.309,0.587,1.309,1.311V135.887z"
   id="path3793"
   stroke-width="1.0156"
   stroke="#F58D4D"
   fill="none" />
	<path
   stroke-miterlimit="10"
   d="M271.504,152.318   c0,0,23.199,6.396,56.642,0.272"
   id="path3795"
   stroke-width="0.8982"
   stroke="#F58D4D"
   fill="none" />
	<path
   stroke-miterlimit="10"
   d="M328.255,168.355   c-33.715,5.429-56.643-0.271-56.643-0.271c-0.619-9.672-0.108-22.692-0.108-22.692s23.199,6.396,56.642,0.271   c0,0,0.846,17.184,0.149,22.652L328.255,168.355z"
   id="path3797"
   stroke-width="0.8982"
   stroke="#F58D4D"
   fill="none" />
	<path
   stroke-miterlimit="10"
   d="M271.612,160.233   c0,0,23.361,5.691,56.643,0.271"
   id="path3799"
   stroke-width="0.8982"
   stroke="#F58D4D"
   fill="none" />
	<path
   stroke-miterlimit="10"
   d="M276.706,146.644   c0,0-0.249,12.028,0.397,22.514"
   id="path3801"
   stroke-width="0.8982"
   stroke="#F58D4D"
   fill="none" />
	<path
   stroke-miterlimit="10"
   d="M282.47,147.39c0,0-0.297,13.07,0.101,22.465"
   id="path3803"
   stroke-width="0.8982"
   stroke="#F58D4D"
   fill="none" />
	<path
   stroke-miterlimit="10"
   d="M287.987,147.937   c0,0-0.309,12.923,0.089,22.317"
   id="path3805"
   stroke-width="0.8982"
   stroke="#F58D4D"
   fill="none" />
	<path
   stroke-miterlimit="10"
   d="M293.803,148.234c0,0-0.298,13.072,0.1,22.465   "
   id="path3807"
   stroke-width="0.8982"
   stroke="#F58D4D"
   fill="none" />
	
		<path
   stroke-miterlimit="10"
   d="   M322.952,146.644c0,0,0.249,12.028-0.397,22.514"
   id="path3809"
   stroke-linejoin="round"
   stroke-linecap="round"
   stroke-width="0.6329"
   stroke="#F58D4D"
   fill="none" />
	<path
   stroke-miterlimit="10"
   d="M317.187,147.39c0,0,0.299,13.07-0.1,22.465"
   id="path3811"
   stroke-width="0.8982"
   stroke="#F58D4D"
   fill="none" />
	<path
   stroke-miterlimit="10"
   d="M311.671,147.937   c0,0-0.083,12.856-0.479,22.25"
   id="path3813"
   stroke-width="0.8982"
   stroke="#F58D4D"
   fill="none" />
	<path
   stroke-miterlimit="10"
   d="M305.854,148.234   c0,0,0.24,12.895-0.157,22.288"
   id="path3815"
   stroke-width="0.8982"
   stroke="#F58D4D"
   fill="none" />
	
		<line
   stroke-miterlimit="10"
   x1="299.916"
   y1="148.383"
   x2="299.916"
   y2="170.5"
   id="line3817"
   stroke-width="0.8982"
   stroke="#F58D4D"
   fill="none" />
	<path
   stroke-miterlimit="10"
   d="M276.753,169.249c0,0-0.268,3.751,1.809,4.957   c0,0,11.658,4.824,41.809,0.604c0,0,2.68-0.604,2.68-5.561"
   id="path3819"
   stroke-width="0.8982"
   stroke="#F58D4D"
   fill="none" />
	<path
   stroke-miterlimit="10"
   d="M283.788,170.119c0,0,0,2.748,0.805,5.428"
   id="path3821"
   stroke-width="0.8982"
   stroke="#F58D4D"
   fill="none" />
	<path
   stroke-miterlimit="10"
   d="M315.882,169.985c0,0-0.135,3.351-0.604,5.562   "
   id="path3823"
   stroke-width="0.8982"
   stroke="#F58D4D"
   fill="none" />
	<path
   stroke-miterlimit="10"
   d="M291.358,170.588c0,0-0.201,3.016,0.135,5.763   "
   id="path3825"
   stroke-width="0.8982"
   stroke="#F58D4D"
   fill="none" />
	<path
   stroke-miterlimit="10"
   d="M308.06,170.588c0,0,0.201,3.016-0.133,5.763"
   id="path3827"
   stroke-width="0.8982"
   stroke="#F58D4D"
   fill="none" />
	<g
   id="g3829">
		<g
   id="g3831">
			<path
   d="M885.302,16.131c3.994,0,7.233,3.238,7.233,7.233v154.989c0,3.997-3.239,7.235-7.233,7.235h-87.95     c-3.994,0-7.233-3.238-7.233-7.235V23.364c0-3.995,3.239-7.233,7.233-7.233H885.302 M885.302,12.246h-87.95     c-6.131,0-11.119,4.988-11.119,11.119v154.989c0,6.132,4.988,11.121,11.119,11.121h87.95c6.131,0,11.119-4.989,11.119-11.121     V23.364C896.421,17.233,891.433,12.246,885.302,12.246L885.302,12.246z"
   id="path3833"
   fill="#F58D4D" />
		</g>
	</g>
	
		<rect
   x="800.029"
   y="34.58"
   stroke-miterlimit="10"
   width="82.72"
   height="125.04"
   id="rect3835"
   stroke-width="2.2694"
   stroke="#F58D4D"
   fill="none" />
	<circle
   stroke-miterlimit="10"
   cx="840.751"
   cy="24.905"
   r="2.02"
   id="circle3837"
   stroke-width="0.8982"
   stroke="#F58D4D"
   fill="none" />
	<g
   id="g3839">
		<g
   id="g3841">
			<path
   d="M506.479,23.593c2.734,0,4.952,2.217,4.952,4.952v150.521c0,2.736-2.218,4.953-4.952,4.953h-100.65     c-2.736,0-4.953-2.217-4.953-4.953V28.545c0-2.734,2.217-4.952,4.953-4.952H506.479 M506.479,19.708h-100.65     c-4.874,0-8.839,3.964-8.839,8.837v150.521c0,4.874,3.965,8.839,8.839,8.839h100.65c4.873,0,8.838-3.965,8.838-8.839V28.545     C515.316,23.672,511.352,19.708,506.479,19.708L506.479,19.708z"
   id="path3843"
   fill="#F58D4D" />
		</g>
	</g>
	<path
   stroke-miterlimit="10"
   d="M509.323,179.562   c0,1.376-1.115,2.492-2.49,2.492H405.27c-1.375,0-2.489-1.116-2.489-2.492V28.134c0-1.375,1.114-2.49,2.489-2.49h101.563   c1.375,0,2.49,1.116,2.49,2.49V179.562z"
   id="path3845"
   stroke-width="0.659"
   stroke="#F58D4D"
   fill="none" />
	
		<rect
   x="410.688"
   y="38.385"
   stroke-miterlimit="10"
   width="90.508"
   height="120.823"
   id="rect3847"
   stroke-width="2.5373"
   stroke="#F58D4D"
   fill="none" />
	<path
   stroke-miterlimit="10"
   d="M463.295,175.639   c0,1.403-1.135,2.538-2.537,2.538h-8.703c-1.399,0-2.536-1.135-2.536-2.538v-8.408c0-1.403,1.137-2.536,2.536-2.536h8.703   c1.402,0,2.537,1.133,2.537,2.536V175.639z"
   id="path3849"
   stroke-width="1.0156"
   stroke="#F58D4D"
   fill="none" />
	
		<rect
   x="452.02"
   y="167.522"
   stroke-miterlimit="10"
   width="8.702"
   height="8.256"
   id="rect3851"
   stroke-width="0.4394"
   stroke="#F58D4D"
   fill="none" />
	<circle
   stroke-miterlimit="10"
   cx="434.703"
   cy="171.518"
   r="3.013"
   id="circle3853"
   stroke-width="0.8982"
   stroke="#F58D4D"
   fill="none" />
	<circle
   stroke-miterlimit="10"
   cx="442.611"
   cy="171.518"
   r="3.013"
   id="circle3855"
   stroke-width="0.8982"
   stroke="#F58D4D"
   fill="none" />
	<circle
   stroke-miterlimit="10"
   cx="469.852"
   cy="171.518"
   r="3.013"
   id="circle3857"
   stroke-width="0.8982"
   stroke="#F58D4D"
   fill="none" />
	<circle
   stroke-miterlimit="10"
   cx="477.76"
   cy="171.518"
   r="3.013"
   id="circle3859"
   stroke-width="0.8982"
   stroke="#F58D4D"
   fill="none" />
	<g
   id="g3861">
		<path
   d="M715.696,3.886c4.673,0,8.462,3.789,8.462,8.462v165.207c0,4.674-3.789,8.462-8.462,8.462H590.362    c-4.674,0-8.462-3.788-8.462-8.462V12.348c0-4.674,3.788-8.462,8.462-8.462H715.696 M715.696,0H590.362    c-6.809,0-12.348,5.54-12.348,12.348v165.207c0,6.809,5.539,12.348,12.348,12.348h125.334c6.809,0,12.348-5.539,12.348-12.348    V12.348C728.044,5.54,722.505,0,715.696,0L715.696,0z"
   id="path3863"
   fill="#F58D4D" />
	</g>
	
		<rect
   x="598.381"
   y="22.334"
   stroke-miterlimit="10"
   width="109.793"
   height="143.128"
   id="rect3865"
   stroke-width="2.5064"
   stroke="#F58D4D"
   fill="none" />
	<g
   id="g3867">
		<path
   d="M163.194,43.012c7.929,0,15.838,0.405,15.838,0.405c17.095,1.287,17.462,16.543,17.462,16.543    c2.022,22.609-0.367,97.236-0.367,97.236c-0.368,17.094-13.236,19.117-13.236,19.117c-5.934,1.209-11.812,1.625-17.089,1.625    c-11.559,0-20.225-1.993-20.225-1.993c-12.133-2.941-12.501-18.749-12.501-18.749c-4.226-32.901-0.918-96.869-0.918-96.869    c0.803-15.115,16.727-16.36,16.727-16.36C151.638,43.227,157.421,43.012,163.194,43.012 M163.194,39.126    c-7.265,0-12.168,0.327-14.961,0.998c-6.771,0.661-19.19,5.601-19.955,19.997c-0.136,2.627-3.266,64.48,0.922,97.394    c0.1,2.251,1.319,18.777,15.462,22.206c0.416,0.096,9.276,2.103,21.14,2.103c6.281,0,12.265-0.568,17.787-1.688    c5.586-0.926,16.078-6.855,16.423-22.857c0.097-3.011,2.365-74.834,0.363-97.548c-0.216-6.532-4.866-18.971-21.051-20.189    l-0.046-0.003l-0.046-0.002C178.904,39.52,171.131,39.126,163.194,39.126L163.194,39.126z"
   id="path3869"
   fill="#F58D4D" />
	</g>
	<path
   stroke-miterlimit="10"
   d="M149.325,47.6c0,0-13.576,0.54-14.646,15.484   c0,0-3.214,60.475,0.893,91.582c0,0,0.62,11.354,10.079,13.211c0,0,16.916,4.182,35.31,0.531c0,0,11.523-0.734,12.278-13.785   c0,0,2.646-70.4,0.188-92.458c0,0-0.188-14.521-14.814-15.087C178.612,47.079,155.037,46.036,149.325,47.6z"
   id="path3871"
   stroke-width="0.9714"
   stroke="#F58D4D"
   fill="none" />
	<path
   stroke-miterlimit="10"
   d="M175.264,49.107v-2.143   c-5.162-0.178-15.867-0.448-22.056,0.102v2.042c0,1.083,0.878,1.961,1.959,1.961h18.136   C174.386,51.069,175.264,50.19,175.264,49.107z"
   id="path3873"
   stroke-width="0.9714"
   stroke="#F58D4D"
   fill="none" />
	
		<rect
   x="139.251"
   y="64.965"
   stroke-miterlimit="10"
   width="49.994"
   height="89.015"
   id="rect3875"
   stroke-width="2.2175"
   stroke="#F58D4D"
   fill="none" />
	<path
   stroke-miterlimit="10"
   d="M174.316,163.688   c0,1.082-0.879,1.96-1.96,1.96h-16.479c-1.083,0-1.96-0.878-1.96-1.96v-1c0-1.084,0.878-1.961,1.96-1.961h16.479   c1.082,0,1.96,0.877,1.96,1.961V163.688z"
   id="path3877"
   stroke-width="0.8982"
   stroke="#F58D4D"
   fill="none" />
</g>
</svg>