<?xml version="1.0" encoding="utf-8"?>
<!-- Generator: Adobe Illustrator 16.0.0, SVG Export Plug-In . SVG Version: 6.00 Build 0)  -->
<!DOCTYPE svg PUBLIC "-//W3C//DTD SVG 1.1//EN" "http://www.w3.org/Graphics/SVG/1.1/DTD/svg11.dtd">
<svg version="1.1" id="Ebene_2" xmlns="http://www.w3.org/2000/svg" xmlns:xlink="http://www.w3.org/1999/xlink" x="0px" y="0px"
	 width="26.708px" height="19.282px" viewBox="0 0 26.708 19.282" enable-background="new 0 0 26.708 19.282" xml:space="preserve">
<path fill="#FFFFFF" d="M23.684,0H3.024C1.356,0,0,1.356,0,3.024v13.233c0,1.668,1.356,3.024,3.024,3.024h20.659
	c1.668,0,3.024-1.356,3.024-3.024V3.024C26.708,1.356,25.352,0,23.684,0z M25.264,4.036l-11.197,8.521
	c-0.256,0.194-0.561,0.292-0.865,0.292c-0.318,0-0.635-0.105-0.896-0.316L1.728,4.012C1.113,3.517,1.016,2.617,1.511,2.002
	c0.495-0.615,1.394-0.712,2.009-0.216l9.707,7.819l10.307-7.844c0.627-0.478,1.524-0.357,2.002,0.272
	C26.014,2.662,25.892,3.558,25.264,4.036z"/>
</svg>
