<?xml version="1.0"?>
<svg width="514" height="176" xmlns="http://www.w3.org/2000/svg">
 <g>
  <title>background</title>
  <rect fill="none" id="canvas_background" height="178" width="516" y="-1" x="-1"/>
 </g>
 <g>
  <title>Layer 1</title>
  <g id="svg_54">
   <path id="svg_55" d="m408.398987,42.559998c15.934998,0 24.522003,8.44101 28.942993,15.005005c5.761017,8.562988 8.296997,19.281006 8.296997,34.013977c0,17.693024 -4.005005,28.814026 -13.397003,37.389038c-6.832001,6.148987 -13.799988,8.832947 -23.316986,8.832947c-11.247986,0 -19.94101,-4.562988 -26.114014,-11.66394c-7.228973,-8.296021 -10.970978,-20.753021 -10.970978,-36.43103c-0.001007,-29.190002 13.921997,-47.145996 36.55899,-47.145996zm0,8.832001c-8.562988,0 -16.213989,4.160004 -19.684998,10.723999c-3.218994,6.02301 -4.687012,13.932007 -4.687012,25.304993c0,13.81601 2.264008,25.874023 5.893005,32.022003c3.485992,5.895996 12.049011,9.91803 19.55899,9.91803c7.501007,0 12.986023,-2.684998 17.150024,-7.897034c4.553986,-5.768982 6.687988,-13.125 6.687988,-28.268982c0,-13.541016 -1.335999,-22.772003 -4.424011,-29.213989c-3.200989,-6.826019 -9.92099,-12.58902 -20.493988,-12.58902z" fill="#bac6c6"/>
   <path id="svg_56" d="m510.974976,51.001984l-4.825012,7.901001c-8.846008,-5.761993 -14.473999,-7.777008 -22.364014,-7.777008c-11.520996,0 -18.36496,5.766022 -18.36496,15.139008c0,7.372009 4.428009,11.527985 15.278961,15.006989l10.581055,3.339996c8.164001,2.545013 12.450989,4.966003 16.200989,9.252014c3.764954,4.286011 6.034973,10.436005 6.034973,16.199005c0,8.583984 -4.559021,16.880981 -12.719971,22.111023c-6.028992,3.883972 -12.205994,5.626953 -20.636047,5.626953c-10.985962,0 -20.363983,-2.68396 -29.473969,-8.307983l4.820984,-8.57901c7.643005,5.503021 15.409027,7.914032 24.652008,7.914032c6.961975,0 10.71698,-1.078003 14.606018,-4.019043c4.419983,-3.345978 6.560974,-7.767975 6.560974,-13.130981c0,-8.174988 -5.360962,-13.794006 -16.479004,-17.143982l-9.243958,-2.812012c-8.315033,-2.545013 -12.720032,-4.424011 -16.337036,-8.187012c-3.759003,-4.015991 -5.769989,-9.096985 -5.769989,-14.987c0,-15.674988 11.921997,-26.394989 29.743011,-26.394989c9.906006,0.002014 19.025024,2.947021 27.734985,8.848999z" fill="#bac6c6"/>
   <path id="svg_57" d="m48.523998,55.332001l-32.653996,0l0,25.903992l26.583996,0l0,12.831024l-26.583996,0l0,43.682007l-15.870003,0l0,-95.37204l50.459003,0l-1.935005,12.955017z" fill="#bac6c6"/>
   <path id="svg_58" d="m56.794003,47.597992c0,-5.641998 4.409996,-10.187012 10.059002,-10.187012c5.377998,0 9.917992,4.413025 9.917992,10.187012c0,5.519012 -4.539993,10.065002 -10.200996,10.065002c-5.506001,0.001007 -9.775997,-4.54599 -9.775997,-10.065002z" fill="#bac6c6"/>
   <polygon id="svg_59" points="58.9890022277832,137.7490234375 58.9890022277832,69.11300659179688 74.29200744628906,66.35400390625 74.29200744628906,137.7490234375 " fill="#bac6c6"/>
   <path id="svg_60" d="m121.429993,81.235992c-1.509995,-0.54599 -2.623001,-0.962006 -4.256981,-0.962006c-6.357018,0 -11.726021,4.690002 -13.105019,10.330994l0,47.144043l-15.158989,0l0,-49.213043c0,-8.80899 -0.962997,-14.465973 -2.477013,-18.737l13.923012,-3.577972c1.646996,3.158997 2.615005,7.171997 2.615005,11.026978c5.501999,-7.587982 11.032982,-11.160004 17.780983,-11.160004c2.195999,0 3.572014,0.266998 5.375,1.089996l-4.695999,14.058014z" fill="#bac6c6"/>
   <path id="svg_61" d="m140.610992,107.010986l0,1.095001c0,9.654999 3.581009,19.855988 17.237,19.855988c6.465012,0 12.108002,-2.341003 17.347992,-6.893982l5.923996,9.226013c-7.307999,6.201965 -15.709,9.246948 -25.088989,9.246948c-19.694,0 -32.109009,-14.202942 -32.109009,-36.513977c0,-12.290009 2.633018,-20.419006 8.690002,-27.300995c5.654999,-6.480011 12.544006,-9.372986 21.358002,-9.372986c6.904007,0 13.236008,1.79599 19.166,7.159973c6.057007,5.52002 9.100006,14.070007 9.100006,30.332001l0,3.165009l-41.625,0l0,0.001007zm13.359009,-29.213989c-8.546997,0 -13.229004,6.747986 -13.229004,18.052002l25.776993,0c0,-11.303009 -4.96199,-18.052002 -12.547989,-18.052002z" fill="#bac6c6"/>
   <path id="svg_62" d="m225.365997,50.096985c-3.429993,-1.645996 -5.514008,-2.498993 -8.406006,-2.498993c-5.235992,0 -8.530991,3.595001 -8.530991,9.794006l0,10.613983l18.182999,0l-3.854004,10.480988l-14.199005,0l0,59.261017l-15.018997,0l0,-59.259979l-6.463989,0l0,-10.481018l6.747986,0c0,0 -0.431,-3.849976 -0.431,-10.342987c0,-14.445984 8.834,-21.205994 21.225998,-21.205994c5.933014,0 10.89502,1.23999 15.718018,3.992981l-4.971008,9.645996z" fill="#bac6c6"/>
   <path id="svg_63" d="m286.095001,103.149994c0,22.472015 -12.022003,36.391998 -30.884003,36.391998c-18.878998,0 -30.739014,-14.203003 -30.739014,-36.514008c0,-22.337982 11.997009,-36.673981 30.471008,-36.673981c19.854004,0 31.152008,14.753998 31.152008,36.79599zm-44.80899,-1.096008c0,20.254974 5.11499,26.181976 14.196991,26.181976c8.962006,0 13.925995,-7.292969 13.925995,-24.80899c0,-19.714996 -5.513977,-25.629974 -14.332977,-25.629974c-9.641022,0 -13.790009,7.289001 -13.790009,24.256989z" fill="#bac6c6"/>
   <path id="svg_64" d="m331.583984,137.749023c-2.47699,-4.012024 -13.792999,-23.583008 -15.152985,-26.059998c-2.616028,5.242004 -12.561005,22.187988 -15.172028,26.059998l-19.145996,0l25.894012,-37.763l-20.102997,-29.910004l16.382996,-3.30899c3.174988,5.243988 9.380005,16.127991 12.69101,22.598999c1.931,-4.54599 8.949982,-18.460999 11.033997,-21.359009l17.627991,0l-20.531982,31.713013l25.496979,38.028992l-19.020996,0z" fill="#bac6c6"/>
  </g>
 </g>
</svg>