<?xml version="1.0" encoding="UTF-8" standalone="no"?>
<!-- Generator: Adobe Illustrator 16.0.0, SVG Export Plug-In . SVG Version: 6.00 Build 0)  -->

<svg
   xmlns:dc="http://purl.org/dc/elements/1.1/"
   xmlns:cc="http://creativecommons.org/ns#"
   xmlns:rdf="http://www.w3.org/1999/02/22-rdf-syntax-ns#"
   xmlns:svg="http://www.w3.org/2000/svg"
   xmlns="http://www.w3.org/2000/svg"
   xmlns:sodipodi="http://sodipodi.sourceforge.net/DTD/sodipodi-0.dtd"
   xmlns:inkscape="http://www.inkscape.org/namespaces/inkscape"
   version="1.1"
   id="Ebene_2"
   x="0px"
   y="0px"
   width="48.847347"
   height="16"
   viewBox="0 0 48.847347 16.000001"
   enable-background="new 0 0 191.804 39.267"
   xml:space="preserve"
   inkscape:version="0.48.4 r9939"
   sodipodi:docname="fwdio-black.svg"
   inkscape:export-filename="/home/raffo/data/workspace/fwd.io/odl-hamburg/src/files/assets/img/bitmaps/fwdio-black.png"
   inkscape:export-xdpi="450"
   inkscape:export-ydpi="450"><metadata
     id="metadata93"><rdf:RDF><cc:Work
         rdf:about=""><dc:format>image/svg+xml</dc:format><dc:type
           rdf:resource="http://purl.org/dc/dcmitype/StillImage" /><dc:title></dc:title></cc:Work></rdf:RDF></metadata><defs
     id="defs91" /><sodipodi:namedview
     pagecolor="#ffffff"
     bordercolor="#666666"
     borderopacity="1"
     objecttolerance="10"
     gridtolerance="10"
     guidetolerance="10"
     inkscape:pageopacity="0"
     inkscape:pageshadow="2"
     inkscape:window-width="1600"
     inkscape:window-height="900"
     id="namedview89"
     showgrid="false"
     inkscape:zoom="6.63177"
     inkscape:cx="-19.572059"
     inkscape:cy="-5.526071"
     inkscape:window-x="0"
     inkscape:window-y="0"
     inkscape:window-maximized="1"
     inkscape:current-layer="Ebene_2"
     fit-margin-top="0"
     fit-margin-left="0"
     fit-margin-right="0"
     fit-margin-bottom="6" /><g
     id="g3"
     style="fill:#555c5c;fill-opacity:1"
     transform="matrix(0.25467326,0,0,0.25467326,-1.3509444e-6,1.3571038)"><path
       d="M 0,1.582 C 0,1.036 0.436,0.545 1.036,0.545 h 22.578 c 0.601,0 1.036,0.491 1.036,1.037 v 5.943 c 0,0.547 -0.436,1.037 -1.036,1.037 H 8.508 v 7.853 h 12.434 c 0.545,0 1.036,0.491 1.036,1.036 v 5.944 c 0,0.546 -0.491,1.037 -1.036,1.037 H 8.508 v 13.253 c 0,0.544 -0.491,1.036 -1.036,1.036 H 1.036 C 0.436,38.722 0,38.229 0,37.686 V 1.582 z"
       id="path5"
       style="fill:#555c5c;fill-opacity:1"
       inkscape:connector-curvature="0" /></g><path
     d="m 7.9824777,1.7599968 c 0,-0.139051 0.124789,-0.264096 0.263841,-0.264096 h 1.666582 c 0.1387953,0 0.2638403,0.125045 0.2638403,0.264096 v 9.1947222 c 0,0.138541 -0.125045,0.26384 -0.2638403,0.26384 h -1.666582 c -0.139052,0 -0.263841,-0.125299 -0.263841,-0.26384 V 1.7599968 z"
     id="path7"
     style="fill:#555c5c;fill-opacity:1"
     inkscape:connector-curvature="0" /><g
     id="g9"
     transform="matrix(0.25467326,0,0,0.25467326,-1.3509444e-6,1.3571038)"><linearGradient
       id="SVGID_1_"
       gradientUnits="userSpaceOnUse"
       x1="31.6045"
       y1="19.633801"
       x2="58.796902"
       y2="19.633801"><stop
         offset="0"
         style="stop-color:#F7924D"
         id="stop12" /><stop
         offset="0.0824"
         style="stop-color:#F78F47"
         id="stop14" /><stop
         offset="0.6826"
         style="stop-color:#F57B22"
         id="stop16" /><stop
         offset="1"
         style="stop-color:#F57414"
         id="stop18" /></linearGradient><path
       d="m 57.003,0.545 h -5.345 c -0.77,0 -1.506,0.542 -1.71,1.258 L 31.686,36.392 c -0.169,0.59 -0.07,1.186 0.268,1.636 0.333,0.44 0.858,0.694 1.441,0.694 h 5.399 c 0.745,0 1.244,-0.338 1.71,-1.26 L 58.712,2.874 C 58.885,2.272 58.791,1.672 58.456,1.228 58.128,0.794 57.599,0.545 57.003,0.545 z"
       id="path20"
       style="fill:url(#SVGID_1_)"
       inkscape:connector-curvature="0" /></g><path
     d="m 20.91835,1.7599968 c 0,-0.139051 0.111037,-0.264096 0.250089,-0.264096 h 3.388937 c 2.680436,0 4.875211,2.1805129 4.875211,4.8474509 0,2.6944427 -2.19452,4.8752073 -4.875211,4.8752073 h -3.388937 c -0.139306,0 -0.250089,-0.125299 -0.250089,-0.26384 V 1.7599968 z m 3.499975,7.4025876 c 1.569296,0 2.708704,-1.236184 2.708704,-2.8192327 0,-1.569551 -1.139408,-2.805735 -2.708704,-2.805735 H 23.08511 v 5.6249677 h 1.333215 z"
     id="path22"
     style="fill:#555c5c;fill-opacity:1"
     inkscape:connector-curvature="0" /><linearGradient
     id="SVGID_2_"
     gradientUnits="userSpaceOnUse"
     x1="124.2793"
     y1="26.5303"
     x2="124.2793"
     y2="35.435299"
     gradientTransform="matrix(0.25467326,0,0,0.25467326,-1.3509444e-6,1.3571038)"><stop
       offset="0"
       style="stop-color:#F7924D"
       id="stop25" /><stop
       offset="0.0824"
       style="stop-color:#F78F47"
       id="stop27" /><stop
       offset="0.6826"
       style="stop-color:#F57B22"
       id="stop29" /><stop
       offset="1"
       style="stop-color:#F57414"
       id="stop31" /></linearGradient><path
     d="m 31.636529,8.7184344 c 0.722253,0 1.333469,0.610452 1.333469,1.3327046 0,0.708755 -0.611216,1.305963 -1.333469,1.305963 -0.707992,0 -1.305201,-0.597208 -1.305201,-1.305963 0,-0.7219976 0.596955,-1.3327046 1.305201,-1.3327046 z"
     id="path33"
     style="fill:url(#SVGID_2_)"
     inkscape:connector-curvature="0" /><path
     d="m 34.986501,1.7599968 c 0,-0.139051 0.125045,-0.264096 0.263842,-0.264096 h 1.666836 c 0.138797,0 0.263842,0.125045 0.263842,0.264096 v 9.1947222 c 0,0.138541 -0.125045,0.26384 -0.263842,0.26384 h -1.666836 c -0.138797,0 -0.263842,-0.125299 -0.263842,-0.26384 V 1.7599968 z"
     id="path35"
     style="fill:#555c5c;fill-opacity:1"
     inkscape:connector-curvature="0" /><path
     d="m 43.847348,1.3571038 c 2.777467,0 5,2.2360319 5,5.0140076 0,2.777721 -2.222533,4.9859906 -5,4.9859906 -2.778231,0 -4.986503,-2.2082696 -4.986503,-4.9859906 0,-2.7779757 2.208272,-5.0140076 4.986503,-5.0140076 z m 0,7.7777216 c 1.52753,0 2.777467,-1.249937 2.777467,-2.763714 0,-1.5280397 -1.249937,-2.7922377 -2.777467,-2.7922377 -1.514033,0 -2.764224,1.264198 -2.764224,2.7922377 0,1.513777 1.250191,2.763714 2.764224,2.763714 z"
     id="path37"
     style="fill:#555c5c;fill-opacity:1"
     inkscape:connector-curvature="0" /><path
     d="m 12.80446,1.7599968 c 0,-0.139051 0.125044,-0.264096 0.263841,-0.264096 h 1.666582 c 0.139052,0 0.263842,0.125045 0.263842,0.264096 v 9.1947222 c 0,0.138541 -0.12479,0.26384 -0.263842,0.26384 h -1.666582 c -0.138797,0 -0.263841,-0.125299 -0.263841,-0.26384 V 1.7599968 z"
     id="path39"
     style="fill:#555c5c;fill-opacity:1"
     inkscape:connector-curvature="0" /><g
     id="g41"
     transform="matrix(0.25467326,0,0,0.25467326,-1.3509444e-6,1.3571038)"><linearGradient
       id="SVGID_3_"
       gradientUnits="userSpaceOnUse"
       x1="50.540001"
       y1="19.633801"
       x2="77.732399"
       y2="19.633801"><stop
         offset="0"
         style="stop-color:#F7924D"
         id="stop44" /><stop
         offset="0.0824"
         style="stop-color:#F78F47"
         id="stop46" /><stop
         offset="0.6826"
         style="stop-color:#F57B22"
         id="stop48" /><stop
         offset="1"
         style="stop-color:#F57414"
         id="stop50" /></linearGradient><path
       d="m 75.938,0.545 h -5.345 c -0.77,0 -1.504,0.542 -1.71,1.258 L 50.621,36.392 c -0.169,0.59 -0.071,1.186 0.267,1.636 0.333,0.44 0.858,0.694 1.442,0.694 h 5.398 c 0.745,0 1.245,-0.338 1.711,-1.26 L 77.648,2.874 C 77.819,2.272 77.726,1.672 77.39,1.228 77.062,0.794 76.533,0.545 75.938,0.545 z"
       id="path52"
       style="fill:url(#SVGID_3_)"
       inkscape:connector-curvature="0" /></g><linearGradient
     id="SVGID_4_"
     gradientUnits="userSpaceOnUse"
     x1="50.278301"
     y1="19.633801"
     x2="77.732399"
     y2="19.633801"
     gradientTransform="matrix(0.25467326,0,0,0.25467326,-1.3509444e-6,1.3571038)"><stop
       offset="0"
       style="stop-color:#F7924D"
       id="stop55" /><stop
       offset="0.0824"
       style="stop-color:#F78F47"
       id="stop57" /><stop
       offset="0.6826"
       style="stop-color:#F57B22"
       id="stop59" /><stop
       offset="1"
       style="stop-color:#F57414"
       id="stop61" /></linearGradient><path
     d="m 19.709416,1.6698428 c -0.08353,-0.110528 -0.218255,-0.173942 -0.37004,-0.173942 h -1.361229 c -0.196098,0 -0.383029,0.138033 -0.435491,0.320379 l -2.543677,4.8179086 v -0.01553 l -2.194265,4.1420046 v 0.194061 c 0,0.138542 0.125045,0.263841 0.263842,0.263841 h 0.258748 1.374726 0.0331 c 0.02241,0 0.04406,-0.0049 0.0652,-0.01044 0.137523,-0.02751 0.240411,-0.119187 0.337442,-0.310446 l 4.63709,-8.8086373 c 0.04355,-0.1533129 0.02012,-0.3061169 -0.06545,-0.4191919 z"
     id="path63"
     style="fill:url(#SVGID_4_)"
     inkscape:connector-curvature="0" /><linearGradient
     id="SVGID_5_"
     gradientUnits="userSpaceOnUse"
     x1="31.3438"
     y1="19.633801"
     x2="58.796902"
     y2="19.633801"
     gradientTransform="matrix(0.25467326,0,0,0.25467326,-1.3509444e-6,1.3571038)"><stop
       offset="0"
       style="stop-color:#F7924D"
       id="stop66" /><stop
       offset="0.0824"
       style="stop-color:#F78F47"
       id="stop68" /><stop
       offset="0.6826"
       style="stop-color:#F57B22"
       id="stop70" /><stop
       offset="1"
       style="stop-color:#F57414"
       id="stop72" /></linearGradient><path
     d="m 14.887178,1.6698428 c -0.08353,-0.110528 -0.218255,-0.173942 -0.370041,-0.173942 h -1.361228 c -0.196099,0 -0.383538,0.138033 -0.435491,0.320379 l -2.543677,4.8179086 v -0.01553 L 7.9824777,10.760663 v 0.194061 c 0,0.138542 0.124789,0.263841 0.263841,0.263841 h 0.258493 1.374981 0.03311 c 0.02241,0 0.04406,-0.0049 0.0652,-0.01044 0.1375233,-0.02751 0.2404113,-0.119187 0.3371873,-0.310446 l 4.637091,-8.8086373 c 0.04406,-0.1533129 0.02012,-0.3061169 -0.0652,-0.4191919 z"
     id="path74"
     style="fill:url(#SVGID_5_)"
     inkscape:connector-curvature="0" /><g
     id="g76"
     transform="matrix(0.25467326,0,0,0.25467326,-1.3509444e-6,1.3571038)"><linearGradient
       id="SVGID_6_"
       gradientUnits="userSpaceOnUse"
       x1="31.3438"
       y1="19.633801"
       x2="58.894501"
       y2="19.633801"><stop
         offset="0"
         style="stop-color:#F7924D"
         id="stop79" /><stop
         offset="0.0824"
         style="stop-color:#F78F47"
         id="stop81" /><stop
         offset="0.6826"
         style="stop-color:#F57B22"
         id="stop83" /><stop
         offset="1"
         style="stop-color:#F57414"
         id="stop85" /></linearGradient><path
       d="M 46.364,26.331 58.894,2.449 V 1.582 c 0,-0.546 -0.49,-1.037 -1.036,-1.037 h -0.855 -5.345 -0.344 c -0.343,0 -0.664,0.194 -0.855,0.474 -0.238,0.213 -0.425,0.482 -0.511,0.784 L 39.96,20.721 V 20.66 l -8.616,16.264 v 0.762 c 0,0.544 0.49,1.036 1.036,1.036 h 1.015 5.399 0.13 c 0.088,0 0.173,-0.019 0.256,-0.041 0.54,-0.108 0.944,-0.468 1.324,-1.219 l 5.86,-11.131 0,0 z"
       id="path87"
       style="fill:url(#SVGID_6_)"
       inkscape:connector-curvature="0" /></g></svg>