<?xml version="1.0" encoding="UTF-8" standalone="no"?>
<!-- Generator: Adobe Illustrator 16.0.0, SVG Export Plug-In . SVG Version: 6.00 Build 0)  -->

<svg
   xmlns:dc="http://purl.org/dc/elements/1.1/"
   xmlns:cc="http://creativecommons.org/ns#"
   xmlns:rdf="http://www.w3.org/1999/02/22-rdf-syntax-ns#"
   xmlns:svg="http://www.w3.org/2000/svg"
   xmlns="http://www.w3.org/2000/svg"
   xmlns:sodipodi="http://sodipodi.sourceforge.net/DTD/sodipodi-0.dtd"
   xmlns:inkscape="http://www.inkscape.org/namespaces/inkscape"
   version="1.1"
   id="Ebene_2"
   x="0px"
   y="0px"
   width="390.77878"
   height="80"
   viewBox="0 0 390.77878 80.000004"
   enable-background="new 0 0 191.804 39.267"
   xml:space="preserve"
   inkscape:version="0.48.4 r9939"
   sodipodi:docname="fwdio.svg"><metadata
     id="metadata93"><rdf:RDF><cc:Work
         rdf:about=""><dc:format>image/svg+xml</dc:format><dc:type
           rdf:resource="http://purl.org/dc/dcmitype/StillImage" /></cc:Work></rdf:RDF></metadata><defs
     id="defs91" /><sodipodi:namedview
     pagecolor="#ffffff"
     bordercolor="#666666"
     borderopacity="1"
     objecttolerance="10"
     gridtolerance="10"
     guidetolerance="10"
     inkscape:pageopacity="0"
     inkscape:pageshadow="2"
     inkscape:window-width="1600"
     inkscape:window-height="877"
     id="namedview89"
     showgrid="false"
     inkscape:zoom="1.6579425"
     inkscape:cx="31.364174"
     inkscape:cy="-28.62008"
     inkscape:window-x="0"
     inkscape:window-y="23"
     inkscape:window-maximized="1"
     inkscape:current-layer="Ebene_2"
     fit-margin-top="0"
     fit-margin-left="0"
     fit-margin-right="0"
     fit-margin-bottom="0" /><g
     id="g3"
     style="fill:#ffffff"
     transform="matrix(2.0373861,0,0,2.0373861,-2.7018889e-6,0)"><path
       d="M 0,1.582 C 0,1.036 0.436,0.545 1.036,0.545 h 22.578 c 0.601,0 1.036,0.491 1.036,1.037 v 5.943 c 0,0.547 -0.436,1.037 -1.036,1.037 H 8.508 v 7.853 h 12.434 c 0.545,0 1.036,0.491 1.036,1.036 v 5.944 c 0,0.546 -0.491,1.037 -1.036,1.037 H 8.508 v 13.253 c 0,0.544 -0.491,1.036 -1.036,1.036 H 1.036 C 0.436,38.722 0,38.229 0,37.686 V 1.582 z"
       id="path5"
       style="fill:#ffffff"
       inkscape:connector-curvature="0" /></g><path
     d="m 63.859828,3.223144 c 0,-1.112412 0.998316,-2.112768 2.110732,-2.112768 h 13.332652 c 1.110376,0 2.110732,1.000356 2.110732,2.112768 v 73.557788 c 0,1.10834 -1.000356,2.110732 -2.110732,2.110732 H 65.97056 c -1.112416,0 -2.110732,-1.002392 -2.110732,-2.110732 V 3.223144 z"
     id="path7"
     style="fill:#ffffff"
     inkscape:connector-curvature="0" /><g
     id="g9"
     transform="matrix(2.0373861,0,0,2.0373861,-2.7018889e-6,0)"><linearGradient
       id="SVGID_1_"
       gradientUnits="userSpaceOnUse"
       x1="31.6045"
       y1="19.633801"
       x2="58.796902"
       y2="19.633801"><stop
         offset="0"
         style="stop-color:#F7924D"
         id="stop12" /><stop
         offset="0.0824"
         style="stop-color:#F78F47"
         id="stop14" /><stop
         offset="0.6826"
         style="stop-color:#F57B22"
         id="stop16" /><stop
         offset="1"
         style="stop-color:#F57414"
         id="stop18" /></linearGradient><path
       d="m 57.003,0.545 h -5.345 c -0.77,0 -1.506,0.542 -1.71,1.258 L 31.686,36.392 c -0.169,0.59 -0.07,1.186 0.268,1.636 0.333,0.44 0.858,0.694 1.441,0.694 h 5.399 c 0.745,0 1.244,-0.338 1.71,-1.26 L 58.712,2.874 C 58.885,2.272 58.791,1.672 58.456,1.228 58.128,0.794 57.599,0.545 57.003,0.545 z"
       id="path20"
       style="fill:url(#SVGID_1_)"
       inkscape:connector-curvature="0" /></g><path
     d="m 167.34681,3.223144 c 0,-1.112412 0.8883,-2.112768 2.00072,-2.112768 h 27.1115 c 21.44348,0 39.00168,17.4441 39.00168,38.779608 0,21.555544 -17.55616,39.00168 -39.00168,39.00168 h -27.1115 c -1.11445,0 -2.00072,-1.002392 -2.00072,-2.110732 V 3.223144 z m 27.9998,59.220704 c 12.55438,0 21.66964,-9.889472 21.66964,-22.553864 0,-12.556412 -9.11526,-22.445884 -21.66964,-22.445884 H 184.6809 v 44.999748 h 10.66571 z"
     id="path22"
     style="fill:#ffffff"
     inkscape:connector-curvature="0" /><linearGradient
     id="SVGID_2_"
     gradientUnits="userSpaceOnUse"
     x1="124.2793"
     y1="26.5303"
     x2="124.2793"
     y2="35.435299"
     gradientTransform="matrix(2.0373861,0,0,2.0373861,-2.7018889e-6,0)"><stop
       offset="0"
       style="stop-color:#F7924D"
       id="stop25" /><stop
       offset="0.0824"
       style="stop-color:#F78F47"
       id="stop27" /><stop
       offset="0.6826"
       style="stop-color:#F57B22"
       id="stop29" /><stop
       offset="1"
       style="stop-color:#F57414"
       id="stop31" /></linearGradient><path
     d="m 253.09225,58.890648 c 5.77802,0 10.66775,4.883612 10.66775,10.66164 0,5.670044 -4.88973,10.447716 -10.66775,10.447716 -5.66394,0 -10.44161,-4.777672 -10.44161,-10.447716 0,-5.775988 4.77564,-10.66164 10.44161,-10.66164 z"
     id="path33"
     style="fill:url(#SVGID_2_)"
     inkscape:connector-curvature="0" /><path
     d="m 279.89203,3.223144 c 0,-1.112412 1.00035,-2.112768 2.11073,-2.112768 h 13.33469 c 1.11038,0 2.11073,1.000356 2.11073,2.112768 v 73.557788 c 0,1.10834 -1.00035,2.110732 -2.11073,2.110732 h -13.33469 c -1.11038,0 -2.11073,-1.002392 -2.11073,-2.110732 V 3.223144 z"
     id="path35"
     style="fill:#ffffff"
     inkscape:connector-curvature="0" /><path
     d="m 350.7788,0 c 22.21973,0 40,17.888252 40,40.11206 0,22.221768 -17.78027,39.887944 -40,39.887944 -22.22585,0 -39.89202,-17.666176 -39.89202,-39.887944 C 310.88678,17.888252 328.55295,0 350.7788,0 z m 0,62.221772 c 12.22024,0 22.21973,-9.999492 22.21973,-22.109712 0,-12.22432 -9.99949,-22.337904 -22.21973,-22.337904 -12.11226,0 -22.11379,10.113584 -22.11379,22.337904 0,12.11022 10.00153,22.109712 22.11379,22.109712 z"
     id="path37"
     style="fill:#ffffff"
     inkscape:connector-curvature="0" /><path
     d="m 102.43569,3.223144 c 0,-1.112412 1.00036,-2.112768 2.11074,-2.112768 h 13.33265 c 1.11241,0 2.11073,1.000356 2.11073,2.112768 v 73.557788 c 0,1.10834 -0.99832,2.110732 -2.11073,2.110732 h -13.33265 c -1.11038,0 -2.11074,-1.002392 -2.11074,-2.110732 V 3.223144 z"
     id="path39"
     style="fill:#ffffff"
     inkscape:connector-curvature="0" /><g
     id="g41"
     transform="matrix(2.0373861,0,0,2.0373861,-2.7018889e-6,0)"><linearGradient
       id="SVGID_3_"
       gradientUnits="userSpaceOnUse"
       x1="50.540001"
       y1="19.633801"
       x2="77.732399"
       y2="19.633801"><stop
         offset="0"
         style="stop-color:#F7924D"
         id="stop44" /><stop
         offset="0.0824"
         style="stop-color:#F78F47"
         id="stop46" /><stop
         offset="0.6826"
         style="stop-color:#F57B22"
         id="stop48" /><stop
         offset="1"
         style="stop-color:#F57414"
         id="stop50" /></linearGradient><path
       d="m 75.938,0.545 h -5.345 c -0.77,0 -1.504,0.542 -1.71,1.258 L 50.621,36.392 c -0.169,0.59 -0.071,1.186 0.267,1.636 0.333,0.44 0.858,0.694 1.442,0.694 h 5.398 c 0.745,0 1.245,-0.338 1.711,-1.26 L 77.648,2.874 C 77.819,2.272 77.726,1.672 77.39,1.228 77.062,0.794 76.533,0.545 75.938,0.545 z"
       id="path52"
       style="fill:url(#SVGID_3_)"
       inkscape:connector-curvature="0" /></g><linearGradient
     id="SVGID_4_"
     gradientUnits="userSpaceOnUse"
     x1="50.278301"
     y1="19.633801"
     x2="77.732399"
     y2="19.633801"
     gradientTransform="matrix(2.0373861,0,0,2.0373861,-2.7018889e-6,0)"><stop
       offset="0"
       style="stop-color:#F7924D"
       id="stop55" /><stop
       offset="0.0824"
       style="stop-color:#F78F47"
       id="stop57" /><stop
       offset="0.6826"
       style="stop-color:#F57B22"
       id="stop59" /><stop
       offset="1"
       style="stop-color:#F57414"
       id="stop61" /></linearGradient><path
     d="M 157.67534,2.501912 C 157.00708,1.617684 155.9293,1.110376 154.71502,1.110376 h -10.88983 c -1.56878,0 -3.06423,1.104264 -3.48393,2.563032 L 119.99185,42.21668 V 42.0924 l -17.55412,33.136048 v 1.552488 c 0,1.10834 1.00036,2.110732 2.11073,2.110732 h 2.06999 10.99781 0.26484 c 0.17928,0 0.35248,-0.0388 0.52157,-0.08352 1.10019,-0.22004 1.92329,-0.953496 2.69954,-2.483572 L 158.19893,5.855464 c 0.3484,-1.226508 0.16096,-2.448936 -0.52361,-3.353536 z"
     id="path63"
     style="fill:url(#SVGID_4_)"
     inkscape:connector-curvature="0" /><linearGradient
     id="SVGID_5_"
     gradientUnits="userSpaceOnUse"
     x1="31.3438"
     y1="19.633801"
     x2="58.796902"
     y2="19.633801"
     gradientTransform="matrix(2.0373861,0,0,2.0373861,-2.7018889e-6,0)"><stop
       offset="0"
       style="stop-color:#F7924D"
       id="stop66" /><stop
       offset="0.0824"
       style="stop-color:#F78F47"
       id="stop68" /><stop
       offset="0.6826"
       style="stop-color:#F57B22"
       id="stop70" /><stop
       offset="1"
       style="stop-color:#F57414"
       id="stop72" /></linearGradient><path
     d="M 119.09744,2.501912 C 118.42917,1.617684 117.3514,1.110376 116.13711,1.110376 h -10.88982 c -1.56879,0 -3.06831,1.104264 -3.48393,2.563032 L 81.413944,42.21668 V 42.0924 L 63.859828,75.228448 v 1.552488 c 0,1.10834 0.998316,2.110732 2.110732,2.110732 h 2.067944 10.999848 0.26488 c 0.17928,0 0.35248,-0.0388 0.521572,-0.08352 1.100188,-0.22004 1.923292,-0.953496 2.6975,-2.483572 L 119.61903,5.855464 c 0.35248,-1.226508 0.16096,-2.448936 -0.52157,-3.353536 z"
     id="path74"
     style="fill:url(#SVGID_5_)"
     inkscape:connector-curvature="0" /><g
     id="g76"
     transform="matrix(2.0373861,0,0,2.0373861,-2.7018889e-6,0)"><linearGradient
       id="SVGID_6_"
       gradientUnits="userSpaceOnUse"
       x1="31.3438"
       y1="19.633801"
       x2="58.894501"
       y2="19.633801"><stop
         offset="0"
         style="stop-color:#F7924D"
         id="stop79" /><stop
         offset="0.0824"
         style="stop-color:#F78F47"
         id="stop81" /><stop
         offset="0.6826"
         style="stop-color:#F57B22"
         id="stop83" /><stop
         offset="1"
         style="stop-color:#F57414"
         id="stop85" /></linearGradient><path
       d="M 46.364,26.331 58.894,2.449 V 1.582 c 0,-0.546 -0.49,-1.037 -1.036,-1.037 h -0.855 -5.345 -0.344 c -0.343,0 -0.664,0.194 -0.855,0.474 -0.238,0.213 -0.425,0.482 -0.511,0.784 L 39.96,20.721 V 20.66 l -8.616,16.264 v 0.762 c 0,0.544 0.49,1.036 1.036,1.036 h 1.015 5.399 0.13 c 0.088,0 0.173,-0.019 0.256,-0.041 0.54,-0.108 0.944,-0.468 1.324,-1.219 l 5.86,-11.131 0,0 z"
       id="path87"
       style="fill:url(#SVGID_6_)"
       inkscape:connector-curvature="0" /></g></svg>