<?xml version="1.0" encoding="utf-8"?>
<!-- Generator: Adobe Illustrator 16.0.0, SVG Export Plug-In . SVG Version: 6.00 Build 0)  -->
<!DOCTYPE svg PUBLIC "-//W3C//DTD SVG 1.1//EN" "http://www.w3.org/Graphics/SVG/1.1/DTD/svg11.dtd">
<svg version="1.1" id="Ebene_2" xmlns="http://www.w3.org/2000/svg" xmlns:xlink="http://www.w3.org/1999/xlink" x="0px" y="0px"
	 width="35.667px" height="35.667px" viewBox="0 0 35.667 35.667" enable-background="new 0 0 35.667 35.667" xml:space="preserve">
<g>
	<path fill="#FFFFFF" d="M15.964,14.114c-1.765,0-2.783,1.663-2.783,3.886c0,2.257,1.052,3.835,2.783,3.835
		c1.748,0,2.75-1.663,2.75-3.886C18.713,15.879,17.746,14.114,15.964,14.114z"/>
	<path fill="#FFFFFF" d="M32.832,0H2.834C1.269,0,0,1.269,0,2.834v29.998c0,1.565,1.269,2.834,2.834,2.834h29.998
		c1.566,0,2.835-1.269,2.835-2.834V2.834C35.667,1.269,34.398,0,32.832,0z M8.817,23.702h-2.58v-8.298h2.58V23.702z M7.51,14.386
		c-0.814,0-1.34-0.577-1.34-1.29c0-0.729,0.543-1.289,1.375-1.289c0.831,0,1.34,0.56,1.357,1.289
		C8.902,13.809,8.376,14.386,7.51,14.386z M15.828,23.889c-3.377,0-5.379-2.562-5.379-5.837c0-3.428,2.206-5.99,5.565-5.99
		c3.513,0,5.431,2.63,5.431,5.803C21.445,21.631,19.188,23.889,15.828,23.889z M25.949,23.872c-1.307,0-2.597-0.356-3.241-0.713
		l0.526-2.121c0.678,0.356,1.764,0.712,2.868,0.712c1.188,0,1.815-0.492,1.815-1.239c0-0.712-0.543-1.12-1.917-1.595
		c-1.9-0.679-3.157-1.73-3.157-3.394c0-1.952,1.647-3.428,4.327-3.428c1.308,0,2.241,0.255,2.92,0.577l-0.578,2.071
		c-0.441-0.22-1.271-0.543-2.375-0.543c-1.12,0-1.663,0.526-1.663,1.103c0,0.73,0.628,1.052,2.122,1.612
		c2.018,0.747,2.951,1.799,2.951,3.411C30.547,22.243,29.088,23.872,25.949,23.872z"/>
</g>
</svg>
