<?xml version="1.0" encoding="utf-8"?>
<!-- Generator: Adobe Illustrator 16.0.0, SVG Export Plug-In . SVG Version: 6.00 Build 0)  -->
<!DOCTYPE svg PUBLIC "-//W3C//DTD SVG 1.1//EN" "http://www.w3.org/Graphics/SVG/1.1/DTD/svg11.dtd">
<svg version="1.1" id="Ebene_2" xmlns="http://www.w3.org/2000/svg" xmlns:xlink="http://www.w3.org/1999/xlink" x="0px" y="0px"
	 width="39.113px" height="31.786px" viewBox="0 0 39.113 31.786" enable-background="new 0 0 39.113 31.786" xml:space="preserve">
<path fill="#B9C7C7" d="M39.113,3.763c-1.439,0.638-2.986,1.069-4.609,1.264c1.656-0.993,2.93-2.566,3.528-4.439
	c-1.551,0.919-3.269,1.587-5.096,1.947C31.473,0.975,29.387,0,27.079,0c-4.431,0-8.024,3.593-8.024,8.024
	c0,0.629,0.07,1.241,0.208,1.829C12.594,9.518,6.681,6.324,2.723,1.469c-0.69,1.185-1.086,2.563-1.086,4.034
	c0,2.784,1.416,5.24,3.57,6.679c-1.316-0.042-2.553-0.403-3.635-1.004C1.57,11.212,1.57,11.246,1.57,11.279
	c0,3.888,2.767,7.131,6.438,7.868c-0.674,0.184-1.383,0.282-2.113,0.282c-0.518,0-1.021-0.05-1.51-0.144
	c1.021,3.188,3.984,5.508,7.495,5.573c-2.746,2.152-6.206,3.435-9.966,3.435c-0.647,0-1.286-0.038-1.914-0.112
	c3.551,2.277,7.77,3.605,12.301,3.605c14.76,0,22.831-12.228,22.831-22.832c0-0.348-0.008-0.694-0.023-1.038
	C36.677,6.785,38.037,5.372,39.113,3.763z"/>
</svg>
