<?xml version="1.0" encoding="UTF-8" standalone="no"?>
<!-- Created with Inkscape (http://www.inkscape.org/) -->

<svg
   xmlns:dc="http://purl.org/dc/elements/1.1/"
   xmlns:cc="http://creativecommons.org/ns#"
   xmlns:rdf="http://www.w3.org/1999/02/22-rdf-syntax-ns#"
   xmlns:svg="http://www.w3.org/2000/svg"
   xmlns="http://www.w3.org/2000/svg"
   xmlns:sodipodi="http://sodipodi.sourceforge.net/DTD/sodipodi-0.dtd"
   xmlns:inkscape="http://www.inkscape.org/namespaces/inkscape"
   version="1.1"
   width="36"
   height="38"
   viewBox="0 0 28.8 30.4"
   id="svg2"
   inkscape:version="0.48.4 r9939"
   sodipodi:docname="webos.svg">
  <metadata
     id="metadata5425">
    <rdf:RDF>
      <cc:Work
         rdf:about="">
        <dc:format>image/svg+xml</dc:format>
        <dc:type
           rdf:resource="http://purl.org/dc/dcmitype/StillImage" />
        <dc:title />
      </cc:Work>
    </rdf:RDF>
  </metadata>
  <sodipodi:namedview
     pagecolor="#ffffff"
     bordercolor="#666666"
     borderopacity="1"
     objecttolerance="10"
     gridtolerance="10"
     guidetolerance="10"
     inkscape:pageopacity="0"
     inkscape:pageshadow="2"
     inkscape:window-width="1600"
     inkscape:window-height="900"
     id="namedview5423"
     showgrid="false"
     inkscape:zoom="9.1200581"
     inkscape:cx="18.223821"
     inkscape:cy="16.453058"
     inkscape:window-x="0"
     inkscape:window-y="0"
     inkscape:window-maximized="1"
     inkscape:current-layer="svg2" />
  <defs
     id="defs36" />
  <path
     d="m 12.243253,11.720722 c 0.004,2.219422 0.0028,4.44002 0.0019,6.659442 0.214734,0 0.431032,-7.84e-4 0.64655,0 -0.0061,-0.271159 -0.01254,-0.541925 -0.0078,-0.813085 0.206895,0.230407 0.387538,0.496863 0.664182,0.650468 0.684948,0.412224 1.626164,0.283305 2.194342,-0.272335 0.808772,-0.752345 0.878912,-2.12773 0.197875,-2.985874 -0.48197,-0.633222 -1.393406,-0.891451 -2.135567,-0.601484 -0.39106,0.137904 -0.678677,0.453365 -0.897328,0.793491 -0.03762,-1.142629 -0.0071,-2.287996 -0.01567,-3.430623 -0.216298,-7.83e-4 -0.432989,-7.83e-4 -0.648507,0 z m 2.037603,3.126941 c 0.422489,-0.0059 0.852316,0.160998 1.108926,0.50548 0.454544,0.616767 0.420062,1.566998 -0.113661,2.125772 -0.601875,0.613632 -1.772325,0.467082 -2.180626,-0.297806 -0.494514,-0.818175 -0.116761,-2.126551 0.897328,-2.3021 0.09449,-0.01984 0.190515,-0.02996 0.288007,-0.03135 z"
     id="path6"
     style="fill:#bac6c6;fill-opacity:1"
     inkscape:connector-curvature="0" />
  <path
     d="m 20.736535,11.644312 c -0.216873,2.96e-4 -0.43338,0.01998 -0.646546,0.05486 -0.95689,0.171624 -1.833062,0.776641 -2.300143,1.634002 -0.752347,1.361277 -0.512537,3.24097 0.673977,4.28093 0.829934,0.739806 2.032119,1.012141 3.107346,0.750386 0.880871,-0.196704 1.671227,-0.77233 2.117934,-1.557591 0.435734,-0.757832 0.541141,-1.679063 0.370296,-2.529374 -0.17319,-0.86833 -0.708851,-1.662209 -1.467469,-2.123807 -0.55309,-0.349135 -1.204767,-0.510285 -1.855395,-0.5094 z m -0.08424,0.358542 c 0.765856,-0.0244 1.544956,0.237752 2.112056,0.758223 0.984322,0.892628 1.230402,2.437287 0.681816,3.628502 -0.27743,0.623821 -0.787221,1.143409 -1.408691,1.426325 -0.92946,0.433381 -2.080709,0.365984 -2.938852,-0.199841 -1.163002,-0.742943 -1.603437,-2.318168 -1.167705,-3.597158 0.329152,-1.050148 1.29858,-1.862057 2.394189,-1.986662 0.108261,-0.01533 0.21778,-0.0259 0.327187,-0.02938 z"
     id="path8"
     style="fill:#bac6c6;fill-opacity:1"
     inkscape:connector-curvature="0" />
  <path
     d="m 25.220832,12.377066 c 0.436518,-0.73824 1.457673,-0.891062 2.204531,-0.587771 0.382443,0.148111 0.670842,0.453762 0.900464,0.783697 -0.09327,0.06975 -0.1873,0.139507 -0.279778,0.209244 -0.210812,-0.319747 -0.48824,-0.622253 -0.867548,-0.73432 -0.423981,-0.123832 -0.916138,-0.115994 -1.302502,0.116761 -0.648897,0.403602 -0.646545,1.470991 -0.04389,1.916128 0.75078,0.568964 1.753127,0.731187 2.425536,1.41692 0.457674,0.449056 0.591685,1.15125 0.42476,1.757826 -0.137138,0.480404 -0.52586,0.863631 -0.988238,1.040743 -0.644196,0.246866 -1.384786,0.211601 -2.014093,-0.06427 -0.485108,-0.213164 -0.850309,-0.627739 -1.097172,-1.086982 0.105788,-0.0533 0.212382,-0.106589 0.318963,-0.159867 0.247646,0.458463 0.626172,0.872254 1.136356,1.031344 0.639494,0.1975 1.413783,0.16065 1.936508,-0.298589 0.586204,-0.518805 0.535264,-1.542309 -0.04936,-2.042307 -0.711608,-0.631646 -1.722575,-0.77506 -2.428683,-1.414556 -0.517239,-0.460027 -0.615983,-1.292309 -0.275861,-1.884 z"
     id="path10"
     style="fill:#bac6c6;fill-opacity:1"
     inkscape:connector-curvature="0" />
  <path
     d="m 2.8189411,15.052598 c 0.1285167,-0.277426 0.2421614,-0.561908 0.3988964,-0.825227 0.3565829,0.715512 0.6810323,1.446697 1.0274247,2.166911 0.1246329,0.253134 0.2076802,0.523506 0.3056396,0.787613 0.2821306,-0.977269 0.7147298,-1.90281 1.065041,-2.857347 0.2217858,0.0016 0.4435716,0.0023 0.6661411,0.0031 -0.4819716,1.174792 -0.9506195,2.35582 -1.4310254,3.53136 -0.086996,0.222568 -0.1692888,0.449056 -0.2915356,0.655951 C 4.3267665,18.054929 4.1292767,17.578445 3.9106259,17.111361 3.6708157,16.554939 3.3730137,16.019678 3.2123547,15.432692 2.9748941,16.175631 2.5901016,16.857445 2.2766246,17.569822 2.1206768,17.884868 1.992141,18.214804 1.8118919,18.518094 1.2249072,17.130171 0.6959127,15.717956 0.11833122,14.326116 c 0.23824269,7.82e-4 0.47726913,7.82e-4 0.71551183,-0.0016 0.28291265,0.709243 0.55407085,1.423189 0.83306485,2.134783 0.098752,0.242946 0.1700725,0.496079 0.2296232,0.751562 0.2233515,-0.752346 0.6128517,-1.439645 0.92241,-2.158294 z"
     id="path22"
     style="fill:#bac6c6;fill-opacity:1"
     inkscape:connector-curvature="0" />
  <path
     d="m 8.9360644,14.240297 c -0.3305608,0.01271 -0.6583037,0.102323 -0.9463106,0.264498 -0.4843229,0.268809 -0.844039,0.742553 -0.9874556,1.275463 -0.1912285,0.710027 -0.016023,1.527027 0.5074416,2.055238 0.8683333,0.862845 2.4506092,0.832283 3.2836792,-0.0666 -0.133237,-0.130885 -0.266849,-0.262539 -0.397726,-0.395765 -0.5493684,0.573665 -1.4964628,0.700231 -2.1767096,0.295843 -0.3871455,-0.22727 -0.576014,-0.668881 -0.6426288,-1.095212 1.1528117,-0.0049 2.3071944,-0.0016 3.4600094,0 0.02665,-0.752348 -0.241771,-1.568956 -0.891454,-2.002337 C 9.7891618,14.334258 9.3610717,14.224072 8.9360644,14.240313 z m 0.060732,0.576018 c 0.4035554,-0.0056 0.808626,0.145184 1.0638636,0.464337 0.177904,0.217085 0.246081,0.495687 0.293885,0.76606 -0.9145688,0.004 -1.8283559,0.0049 -2.7429284,0 0.078374,-0.351877 0.2237469,-0.706497 0.5152808,-0.934553 0.2430914,-0.191665 0.5560232,-0.29149 0.869899,-0.295844 z"
     id="path24"
     style="fill:#bac6c6;fill-opacity:1"
     inkscape:connector-curvature="0" />
</svg>
