<?xml version="1.0" encoding="UTF-8" standalone="no"?>
<!-- Generator: Adobe Illustrator 16.0.0, SVG Export Plug-In . SVG Version: 6.00 Build 0)  -->

<svg
   xmlns:dc="http://purl.org/dc/elements/1.1/"
   xmlns:cc="http://creativecommons.org/ns#"
   xmlns:rdf="http://www.w3.org/1999/02/22-rdf-syntax-ns#"
   xmlns:svg="http://www.w3.org/2000/svg"
   xmlns="http://www.w3.org/2000/svg"
   xmlns:sodipodi="http://sodipodi.sourceforge.net/DTD/sodipodi-0.dtd"
   xmlns:inkscape="http://www.inkscape.org/namespaces/inkscape"
   version="1.1"
   id="Ebene_2"
   x="0px"
   y="0px"
   viewBox="0 0 36 38"
   xml:space="preserve"
   inkscape:version="0.48.4 r9939"
   width="100%"
   height="100%"
   sodipodi:docname="android.svg"
   inkscape:export-filename="/home/raffo/data/workspace/fwd.io/odl.docpad/src/files/assets/img/bitmaps/android.png"
   inkscape:export-xdpi="139.20779"
   inkscape:export-ydpi="139.20779"><metadata
   id="metadata15"><rdf:RDF><cc:Work
       rdf:about=""><dc:format>image/svg+xml</dc:format><dc:type
         rdf:resource="http://purl.org/dc/dcmitype/StillImage" /><dc:title></dc:title></cc:Work></rdf:RDF></metadata><defs
   id="defs13" /><sodipodi:namedview
   pagecolor="#ffffff"
   bordercolor="#666666"
   borderopacity="1"
   objecttolerance="10"
   gridtolerance="10"
   guidetolerance="10"
   inkscape:pageopacity="0"
   inkscape:pageshadow="2"
   inkscape:window-width="956"
   inkscape:window-height="1053"
   id="namedview11"
   showgrid="false"
   inkscape:zoom="9.6063825"
   inkscape:cx="11.134085"
   inkscape:cy="12.2835"
   inkscape:window-x="2560"
   inkscape:window-y="0"
   inkscape:window-maximized="0"
   inkscape:current-layer="Ebene_2" />
<g
   id="g3"
   transform="matrix(1.5423599,0,0,1.5423599,2,0.1088447)">
	<path
   clip-rule="evenodd"
   d="m 19.524,7.699 c -0.825,0 -1.495,0.68 -1.495,1.518 v 5.932 c 0,0.838 0.669,1.518 1.495,1.518 0.826,0 1.495,-0.68 1.495,-1.518 V 9.217 c 0,-0.839 -0.669,-1.518 -1.495,-1.518 z m -18.029,0 C 0.669,7.699 0,8.378 0,9.217 v 5.932 c 0,0.838 0.669,1.518 1.495,1.518 0.825,0 1.495,-0.68 1.495,-1.518 V 9.217 C 2.989,8.378 2.32,7.699 1.495,7.699 z"
   id="path5"
   inkscape:connector-curvature="0"
   style="fill:#bac6c6;fill-rule:evenodd" />
	<path
   clip-rule="evenodd"
   d="m 3.889,7.745 v 10.838 c 0,0.644 0.521,1.166 1.166,1.166 h 1.332 v 3.3 c 0,0.838 0.669,1.518 1.495,1.518 0.826,0 1.495,-0.68 1.495,-1.518 v -3.3 h 2.327 v 3.3 c 0,0.838 0.669,1.518 1.495,1.518 0.826,0 1.495,-0.68 1.495,-1.518 v -3.3 h 1.332 c 0.644,0 1.166,-0.522 1.166,-1.166 V 7.745 H 3.889 z"
   id="path7"
   inkscape:connector-curvature="0"
   style="fill:#bac6c6;fill-rule:evenodd" />
	<path
   clip-rule="evenodd"
   d="M 13.662,2.128 14.891,0.344 C 14.964,0.238 14.946,0.099 14.85,0.033 14.754,-0.032 14.618,0 14.545,0.106 L 13.269,1.959 C 12.428,1.627 11.494,1.443 10.509,1.443 9.524,1.443 8.591,1.628 7.75,1.959 L 6.473,0.107 C 6.4,0.001 6.264,-0.032 6.168,0.034 6.073,0.1 6.055,0.239 6.128,0.345 L 7.357,2.129 C 5.403,3.038 4.034,4.764 3.859,6.779 h 13.3 C 16.985,4.764 15.615,3.037 13.662,2.128 z M 7.704,4.939 c -0.406,0 -0.736,-0.329 -0.736,-0.736 0,-0.406 0.33,-0.736 0.736,-0.736 0.407,0 0.736,0.33 0.736,0.736 C 8.439,4.61 8.11,4.939 7.704,4.939 z m 5.703,0 c -0.406,0 -0.736,-0.329 -0.736,-0.736 0,-0.406 0.33,-0.736 0.736,-0.736 0.407,0 0.736,0.33 0.736,0.736 0,0.407 -0.33,0.736 -0.736,0.736 z"
   id="path9"
   inkscape:connector-curvature="0"
   style="fill:#bac6c6;fill-rule:evenodd" />
</g>
</svg>