<?xml version="1.0" encoding="UTF-8" standalone="no"?>
<!-- Created with Inkscape (http://www.inkscape.org/) -->

<svg
   xmlns:dc="http://purl.org/dc/elements/1.1/"
   xmlns:cc="http://creativecommons.org/ns#"
   xmlns:rdf="http://www.w3.org/1999/02/22-rdf-syntax-ns#"
   xmlns:svg="http://www.w3.org/2000/svg"
   xmlns="http://www.w3.org/2000/svg"
   xmlns:sodipodi="http://sodipodi.sourceforge.net/DTD/sodipodi-0.dtd"
   xmlns:inkscape="http://www.inkscape.org/namespaces/inkscape"
   id="svg3039"
   version="1.1"
   inkscape:version="0.48.4 r9939"
   width="36"
   height="38"
   sodipodi:docname="blackberry.svg"
   inkscape:export-filename="/home/raffo/data/workspace/fwd.io/odl.docpad/src/files/assets/img/bitmaps/blackberry.png"
   inkscape:export-xdpi="136.4817"
   inkscape:export-ydpi="136.4817">
  <metadata
     id="metadata3045">
    <rdf:RDF>
      <cc:Work
         rdf:about="">
        <dc:format>image/svg+xml</dc:format>
        <dc:type
           rdf:resource="http://purl.org/dc/dcmitype/StillImage" />
        <dc:title></dc:title>
      </cc:Work>
    </rdf:RDF>
  </metadata>
  <defs
     id="defs3043" />
  <sodipodi:namedview
     pagecolor="#ffffff"
     bordercolor="#666666"
     borderopacity="1"
     objecttolerance="10"
     gridtolerance="10"
     guidetolerance="10"
     inkscape:pageopacity="0"
     inkscape:pageshadow="2"
     inkscape:window-width="1562"
     inkscape:window-height="873"
     id="namedview3041"
     showgrid="false"
     inkscape:zoom="7.88866"
     inkscape:cx="7.5051211"
     inkscape:cy="26.055349"
     inkscape:window-x="1954"
     inkscape:window-y="0"
     inkscape:window-maximized="0"
     inkscape:current-layer="svg3039"
     fit-margin-top="0"
     fit-margin-left="0"
     fit-margin-right="0"
     fit-margin-bottom="0" />
  <path
     style="fill:#bac6c6;fill-opacity:1;stroke:none"
     d="M 3.2881829,6.8894948 2.0195161,13.001539 c 0,0 3.0788325,0.007 5.1894844,0.0021 2.110652,-0.0049 4.3393075,-0.945017 4.4713705,-3.2996297 0.0758,-1.3515337 -0.732061,-2.8497822 -2.9135146,-2.8347941 -2.4948999,0.017168 -5.4786735,0.02046 -5.4786735,0.02046 z"
     id="path3049"
     inkscape:connector-curvature="0"
     sodipodi:nodetypes="cczssc" />
  <path
     style="fill:#bac6c6;fill-opacity:1;stroke:none"
     d="m 1.612924,16.13321 -1.26866673,6.112045 c 0,0 3.07883253,0.007 5.18948443,0.0021 2.1106519,-0.0049 4.3393075,-0.945018 4.4713703,-3.299631 0.0758,-1.351548 -0.7320615,-2.849796 -2.9135146,-2.834808 -2.4948998,0.01717 -5.4786734,0.02046 -5.4786734,0.02046 z"
     id="path3049-9"
     inkscape:connector-curvature="0"
     sodipodi:nodetypes="cczssc" />
  <path
     style="fill:#bac6c6;fill-opacity:1;stroke:none"
     d="m 14.153703,16.13321 -1.268666,6.112045 c 0,0 3.078833,0.007 5.189484,0.0021 2.110652,-0.0049 4.339307,-0.945018 4.47137,-3.299631 0.07581,-1.351548 -0.732062,-2.849796 -2.913515,-2.834808 -2.4949,0.01717 -5.478673,0.02046 -5.478673,0.02046 z"
     id="path3049-8"
     inkscape:connector-curvature="0"
     sodipodi:nodetypes="cczssc" />
  <path
     style="fill:#bac6c6;fill-opacity:1;stroke:none"
     d="m 15.86381,6.8226331 -1.268667,6.1120449 c 0,0 3.078832,0.007 5.189485,0.0021 2.110652,-0.0049 4.339307,-0.945018 4.47137,-3.2996303 0.07581,-1.3515482 -0.732061,-2.8497968 -2.913514,-2.8348086 -2.4949,0.017168 -5.478674,0.02046 -5.478674,0.02046 z"
     id="path3049-1"
     inkscape:connector-curvature="0"
     sodipodi:nodetypes="cczssc" />
  <path
     style="fill:#bac6c6;fill-opacity:1;stroke:none"
     d="m 27.264521,12.396309 -1.268667,6.112052 c 0,0 3.078832,0.007 5.189484,0.0021 2.110652,-0.0049 4.339308,-0.945018 4.47137,-3.299631 0.07581,-1.351541 -0.732061,-2.849797 -2.913514,-2.834809 -2.4949,0.01717 -5.478673,0.02046 -5.478673,0.02046 z"
     id="path3049-82"
     inkscape:connector-curvature="0"
     sodipodi:nodetypes="cczssc" />
  <path
     style="fill:#bac6c6;fill-opacity:1;stroke:none"
     d="m 25.491076,22.023579 -1.268667,6.112045 c 0,0 3.078833,0.007 5.189485,0.0021 2.110652,-0.0049 4.339307,-0.945017 4.47137,-3.29963 0.0758,-1.351549 -0.732061,-2.849797 -2.913515,-2.834809 -2.494899,0.01717 -5.478673,0.02046 -5.478673,0.02046 z"
     id="path3049-15"
     inkscape:connector-curvature="0"
     sodipodi:nodetypes="cczssc" />
  <path
     style="fill:#bac6c6;fill-opacity:1;stroke:none"
     d="m 12.332757,25.744644 -1.268668,6.112045 c 0,0 3.078832,0.007 5.189485,0.0021 2.110652,-0.0049 4.339307,-0.945017 4.471371,-3.29963 0.0758,-1.351549 -0.732062,-2.849797 -2.913515,-2.834809 -2.4949,0.01717 -5.478673,0.02046 -5.478673,0.02046 z"
     id="path3049-6"
     inkscape:connector-curvature="0"
     sodipodi:nodetypes="cczssc" />
</svg>
