<?xml version="1.0" encoding="UTF-8" standalone="no"?>
<!-- Created with Inkscape (http://www.inkscape.org/) -->

<svg
   xmlns:dc="http://purl.org/dc/elements/1.1/"
   xmlns:cc="http://creativecommons.org/ns#"
   xmlns:rdf="http://www.w3.org/1999/02/22-rdf-syntax-ns#"
   xmlns:svg="http://www.w3.org/2000/svg"
   xmlns="http://www.w3.org/2000/svg"
   xmlns:sodipodi="http://sodipodi.sourceforge.net/DTD/sodipodi-0.dtd"
   xmlns:inkscape="http://www.inkscape.org/namespaces/inkscape"
   id="svg3004"
   version="1.1"
   inkscape:version="0.48.4 r9939"
   width="363.85666"
   height="79.200005"
   viewBox="0 0 390.77878 80.000004"
   enable-background="new 0 0 191.804 39.267"
   xml:space="preserve"
   sodipodi:docname="coverup.svg"
   inkscape:export-filename="/home/raffo/data/workspace/fwd.io/odl-hamburg/src/files/assets/img/bitmaps/coverup.png"
   inkscape:export-xdpi="5.7600002"
   inkscape:export-ydpi="5.7600002"><metadata
     id="metadata3010"><rdf:RDF><cc:Work
         rdf:about=""><dc:format>image/svg+xml</dc:format><dc:type
           rdf:resource="http://purl.org/dc/dcmitype/StillImage" /><dc:title /></cc:Work></rdf:RDF></metadata><defs
     id="defs3008"><clipPath
       clipPathUnits="userSpaceOnUse"
       id="clipPath3018"><path
         d="m 0,1000 2500,0 L 2500,0 0,0 0,1000 z"
         id="path3020"
         inkscape:connector-curvature="0" /></clipPath></defs><sodipodi:namedview
     pagecolor="#ffffff"
     bordercolor="#666666"
     borderopacity="1"
     objecttolerance="10"
     gridtolerance="10"
     guidetolerance="10"
     inkscape:pageopacity="0"
     inkscape:pageshadow="2"
     inkscape:window-width="1600"
     inkscape:window-height="877"
     id="namedview3006"
     showgrid="false"
     inkscape:zoom="0.81408"
     inkscape:cx="69.064675"
     inkscape:cy="141.58438"
     inkscape:window-x="0"
     inkscape:window-y="23"
     inkscape:window-maximized="1"
     inkscape:current-layer="g3012"
     fit-margin-top="-0.8"
     fit-margin-left="0"
     fit-margin-right="0"
     fit-margin-bottom="0" /><g
     id="g3012"
     inkscape:groupmode="layer"
     inkscape:label="Coverup Logo"
     transform="matrix(1.25,0,0,-1.25,-178.50624,344.33775)"><g
       id="g3014"
       transform="matrix(0.13004948,0,0,0.13004948,124.23328,184.52538)"><g
         id="g3016"
         clip-path="url(#clipPath3018)"><g
           id="g3022"
           transform="translate(286.603,366.2539)"><path
             d="m 0,0 c -41.36,0 -76.433,15.364 -104.021,44.516 -26.376,27.982 -39.777,62.659 -39.777,104.025 0,38.583 14.58,74.036 42.536,101.243 27.586,27.162 62.242,41.368 102.043,41.368 65.403,0 121.337,-42.945 139.465,-111.901 l -74.062,0 c -14.972,27.574 -37.424,42.159 -65,42.159 -41.76,0 -74.456,-32.298 -74.456,-73.268 0,-44.535 34.662,-78.803 73.272,-78.803 26.393,0 49.629,14.187 64.597,40.184 l 74.451,0 C 120.548,41.371 67.363,0 0,0"
             style="fill:#00b0f0;fill-opacity:1;fill-rule:nonzero;stroke:none"
             id="path3024"
             inkscape:connector-curvature="0" /></g><g
           id="g3026"
           transform="translate(592.3198,435.9893)"><path
             d="m 0,0 c 40.194,0 72.892,32.311 72.892,77.998 0,40.969 -32.698,73.679 -72.089,73.679 -41.767,0 -74.454,-32.71 -74.454,-73.679 C -73.651,33.877 -38.596,0 0,0 m -101.623,180.052 c 27.58,27.153 62.237,40.966 102.04,40.966 37.41,0 72.875,-14.578 100.061,-41.379 28.373,-27.962 43.329,-63.821 43.329,-102.033 0,-40.162 -14.179,-76.03 -40.585,-103.21 C 76.05,-53.967 39.015,-69.341 0,-69.341 c -41.355,0 -76.822,14.96 -104.392,44.126 -26.397,27.978 -39.784,62.659 -39.784,104.012 0,38.594 14.967,74.048 42.553,101.255"
             style="fill:#00b0f0;fill-opacity:1;fill-rule:nonzero;stroke:none"
             id="path3028"
             inkscape:connector-curvature="0" /></g><g
           id="g3030"
           transform="translate(824.3838,371.7832)"><path
             d="m 0,0 -86.67,280.08 70.927,0 52.781,-187.502 52.8,187.502 70.892,0 L 74.06,0 0,0 z"
             style="fill:#00b0f0;fill-opacity:1;fill-rule:nonzero;stroke:none"
             id="path3032"
             inkscape:connector-curvature="0" /></g><g
           id="g3034"
           transform="translate(998.9292,371.7832)"><path
             d="m 0,0 0,280.08 152.065,0 0,-61.839 -83.505,0 0,-45.29 83.505,0 0,-62.246 -83.505,0 0,-48.851 83.505,0 L 152.065,0 0,0 z"
             style="fill:#00b0f0;fill-opacity:1;fill-rule:nonzero;stroke:none"
             id="path3036"
             inkscape:connector-curvature="0" /></g><g
           id="g3038"
           transform="translate(1276.6992,522.6465)"><path
             d="m 0,0 c 33.875,0 50.43,8.687 50.43,33.894 0,23.256 -14.588,32.703 -44.916,32.703 l -18.922,0 L -13.408,0 0,0 z m -81.945,-150.863 0,280.09 92.968,0 c 29.554,0 52.006,-1.968 70.907,-15.361 24.818,-17.319 37.836,-43.729 37.836,-78.385 0,-45.304 -23.645,-79.197 -63.453,-90.219 l 68.564,-96.125 -84.701,0 -53.584,90.198 0,-90.198 -68.537,0 z"
             style="fill:#00b0f0;fill-opacity:1;fill-rule:nonzero;stroke:none"
             id="path3040"
             inkscape:connector-curvature="0" /></g><g
           id="g3042"
           transform="translate(1531.3096,651.8662)"><path
             d="m 0,0 0,-172.551 c 0,-31.502 9.836,-47.664 33.084,-47.664 24.037,0 35.471,15.765 35.471,47.664 l 0,172.551 68.537,0 0,-175.291 c 0,-68.568 -41.768,-109.135 -104.404,-109.135 -63.436,0 -101.629,38.995 -101.629,109.135 L -68.941,0 0,0 z"
             style="fill:#00b0f0;fill-opacity:1;fill-rule:nonzero;stroke:none"
             id="path3044"
             inkscape:connector-curvature="0" /></g><g
           id="g3046"
           transform="translate(1795.2676,522.6465)"><path
             d="m 0,0 c 33.882,0 50.438,8.687 50.438,33.894 0,23.256 -14.589,32.703 -44.919,32.703 l -18.118,0 L -12.599,0 0,0 z m -81.958,-150.863 0,280.09 92.989,0 c 29.554,0 52.005,-1.968 70.909,-15.361 24.834,-17.319 37.824,-43.729 37.824,-78.794 0,-36.245 -16.55,-66.179 -44.513,-83.132 C 57.515,-58.697 35.467,-60.665 6.31,-60.665 l -19.691,0 0,-90.198 -68.577,0 z"
             style="fill:#00b0f0;fill-opacity:1;fill-rule:nonzero;stroke:none"
             id="path3048"
             inkscape:connector-curvature="0" /></g><g
           id="g3050"
           transform="translate(2052.7256,490.3857)"><path
             d="m 0,0 c 13.387,-17.526 32.65,-31.443 51.884,-41.884 23.431,-12.752 53.108,-28.21 57.334,-30.465 30.954,-17.223 28.86,-47.696 28.86,-47.696 l 0,-61.273 -114.982,69.217 c -29.839,18.388 -44.014,40.335 -44.014,58.897 l 0.03,1.865 C -19.529,-31.513 -11.596,-14.553 0,0"
             style="fill:#c6c8ca;fill-opacity:1;fill-rule:nonzero;stroke:none"
             id="path3052"
             inkscape:connector-curvature="0" /></g><g
           id="g3054"
           transform="translate(2344.7217,490.3857)"><path
             d="m 0,0 c -13.408,-17.526 -32.693,-31.443 -51.943,-41.884 -23.387,-12.752 -53.08,-28.21 -57.27,-30.465 -31,-17.223 -28.912,-47.696 -28.912,-47.696 l 0,-61.273 114.99,69.217 c 29.879,18.388 44.026,40.335 44.026,58.897 l 0,1.865 C 19.547,-31.513 11.563,-14.553 0,0"
             style="fill:#c6c8ca;fill-opacity:1;fill-rule:nonzero;stroke:none"
             id="path3056"
             inkscape:connector-curvature="0" /></g><g
           id="g3058"
           transform="translate(2210.293,638.4326)"><path
             d="m 0,0 c 0,0 -2.192,-32.802 30.903,-51.188 4.547,-2.534 36.155,-19.184 61.68,-32.768 38.316,-20.689 74.541,-53.406 77.551,-100.137 l 0.644,112.446 c 0,19.696 -15.341,43.361 -47.341,63.088 L 0,65.798 0,0 z"
             style="fill:#00b0f0;fill-opacity:1;fill-rule:nonzero;stroke:none"
             id="path3060"
             inkscape:connector-curvature="0" /></g><g
           id="g3062"
           transform="translate(2187.0244,638.4326)"><path
             d="m 0,0 c 0,0 2.289,-32.802 -30.908,-51.188 -4.539,-2.534 -36.151,-19.184 -61.538,-32.768 -38.372,-20.689 -74.632,-53.406 -77.568,-100.137 l -0.617,112.446 c 0,19.696 15.295,43.361 47.302,63.088 L 0,65.798 0,0 z"
             style="fill:#00b0f0;fill-opacity:1;fill-rule:nonzero;stroke:none"
             id="path3064"
             inkscape:connector-curvature="0" /></g><g
           id="g3066"
           transform="translate(833.0654,252.0742)"><path
             d="m 0,0 c 0.667,-0.483 1.564,-1.13 2.719,-1.943 1.132,-0.809 2.572,-1.583 4.28,-2.336 1.708,-0.786 3.682,-1.45 5.922,-2.027 2.236,-0.545 4.77,-0.845 7.626,-0.845 3.616,0 7.05,0.632 10.272,1.869 3.244,1.215 6.053,3.022 8.427,5.415 2.375,2.369 4.252,5.309 5.634,8.779 1.38,3.478 2.083,7.488 2.083,12.057 0,3.795 -0.441,7.467 -1.289,10.975 -0.857,3.519 -2.221,6.621 -4.085,9.287 -1.847,2.65 -4.248,4.784 -7.198,6.352 -2.946,1.568 -6.554,2.358 -10.849,2.358 -2.847,0 -5.439,-0.447 -7.774,-1.292 C 13.432,47.804 11.38,46.619 9.558,45.166 7.75,43.677 6.186,41.96 4.852,40.017 3.523,38.075 2.482,36.044 1.719,33.958 1.043,32.239 0.603,30.194 0.359,27.812 0.12,25.427 0,23.007 0,20.542 L 0,0 z m -6.273,40.388 0,4.624 0,3.426 c 0,0.987 -0.025,1.944 -0.076,2.848 -0.046,0.906 -0.118,1.882 -0.207,2.917 l 5.986,0 c 0.1,-1.035 0.159,-1.978 0.216,-2.77 0.047,-0.809 0.099,-1.64 0.139,-2.505 0.039,-0.854 0.095,-1.832 0.151,-2.913 C -0.023,44.921 0,43.607 0,42.068 c 0.482,0.881 1.244,2.056 2.295,3.593 1.028,1.51 2.537,3.029 4.488,4.552 1.948,1.511 4.345,2.858 7.203,3.99 2.854,1.141 6.285,1.723 10.272,1.723 5.031,0 9.428,-0.917 13.126,-2.716 3.722,-1.815 6.789,-4.282 9.219,-7.419 2.415,-3.138 4.221,-6.831 5.408,-11.052 1.198,-4.234 1.79,-8.834 1.79,-13.77 0,-5.138 -0.851,-9.811 -2.496,-13.995 C 49.644,2.8 47.31,-0.808 44.319,-3.788 c -3.01,-3.011 -6.518,-5.316 -10.561,-6.93 -4.052,-1.618 -8.449,-2.428 -13.211,-2.428 -4.661,0 -8.655,0.649 -11.978,1.929 C 5.241,-9.928 2.375,-8.616 0,-7.297 l 0,-32.667 -6.273,0 0,80.352 z"
             style="fill:#c6c8ca;fill-opacity:1;fill-rule:nonzero;stroke:none"
             id="path3068"
             inkscape:connector-curvature="0" /></g><g
           id="g3070"
           transform="translate(933.8179,244.7773)"><path
             d="m 0,0 c 3.791,0 7.36,0.778 10.701,2.297 3.321,1.503 6.203,3.551 8.627,6.124 2.422,2.582 4.323,5.595 5.707,9.063 1.378,3.466 2.066,7.214 2.066,11.202 0,3.801 -0.711,7.461 -2.139,10.922 -1.431,3.478 -3.34,6.538 -5.777,9.189 -2.428,2.687 -5.304,4.776 -8.636,6.304 C 7.221,56.605 3.704,57.366 0,57.366 c -3.91,0 -7.506,-0.761 -10.779,-2.265 -3.28,-1.528 -6.131,-3.584 -8.559,-6.147 -2.418,-2.57 -4.336,-5.597 -5.714,-9.073 -1.382,-3.464 -2.065,-7.187 -2.065,-11.195 0,-3.889 0.706,-7.541 2.133,-10.982 1.424,-3.435 3.356,-6.477 5.782,-9.137 2.429,-2.65 5.299,-4.767 8.633,-6.27 C -7.241,0.778 -3.717,0 0,0 m 0,-5.841 c -4.666,0 -9.048,0.9 -13.139,2.711 -4.09,1.805 -7.675,4.279 -10.766,7.41 -3.097,3.145 -5.524,6.812 -7.286,11.01 -1.767,4.166 -2.632,8.652 -2.632,13.396 0,4.761 0.865,9.222 2.632,13.416 1.762,4.199 4.189,7.848 7.286,10.986 3.091,3.137 6.676,5.612 10.766,7.417 4.091,1.801 8.473,2.712 13.139,2.712 4.659,0 9.026,-0.911 13.117,-2.712 4.101,-1.805 7.688,-4.28 10.777,-7.417 3.087,-3.138 5.52,-6.787 7.278,-10.986 1.753,-4.194 2.639,-8.655 2.639,-13.416 0,-4.744 -0.886,-9.23 -2.639,-13.396 C 29.414,11.092 26.981,7.425 23.894,4.28 20.805,1.149 17.218,-1.325 13.117,-3.13 9.026,-4.941 4.659,-5.841 0,-5.841"
             style="fill:#c6c8ca;fill-opacity:1;fill-rule:nonzero;stroke:none"
             id="path3072"
             inkscape:connector-curvature="0" /></g><g
           id="g3074"
           transform="translate(984.3193,292.4619)"><path
             d="m 0,0 0,4.624 0,3.419 c 0,0.994 -0.025,1.951 -0.073,2.859 -0.04,0.903 -0.112,1.881 -0.209,2.916 l 5.995,0 C 5.801,12.783 5.873,11.788 5.929,10.816 5.979,9.884 6.01,8.848 6.075,7.762 6.115,6.679 6.13,5.451 6.13,4.121 l 0,-4.688 c 0.775,1.411 1.789,2.996 3.065,4.773 1.298,1.748 2.937,3.389 4.933,4.9 1.998,1.532 4.326,2.806 6.99,3.867 2.656,1.05 5.752,1.569 9.28,1.569 2.089,0 3.896,-0.337 5.411,-1.003 L 33.958,7.416 C 33.292,7.687 32.503,7.869 31.605,7.966 30.707,8.074 29.862,8.104 29.109,8.104 25.684,8.104 22.597,7.359 19.83,5.838 17.074,4.318 14.7,2.314 12.687,-0.152 10.703,-2.622 9.149,-5.477 8.064,-8.646 6.974,-11.834 6.42,-15.049 6.42,-18.285 l 0,-33.525 -6.42,0 L 0,0 z"
             style="fill:#c6c8ca;fill-opacity:1;fill-rule:nonzero;stroke:none"
             id="path3076"
             inkscape:connector-curvature="0" /></g><g
           id="g3078"
           transform="translate(1037.9746,300.3008)"><path
             d="m 0,0 -13.127,0 0,5.979 13.127,0 0,21.707 6.418,0 0,-21.707 21.69,0 0,-5.979 -21.69,0 0,-37.965 c 0,-3.903 0.273,-7.014 0.854,-9.346 0.577,-2.329 1.401,-4.085 2.5,-5.279 1.091,-1.19 2.352,-1.979 3.778,-2.359 1.424,-0.368 2.989,-0.572 4.706,-0.572 2.384,0 4.421,0.444 6.146,1.291 1.707,0.852 3.429,2.331 5.128,4.436 l 4.003,-3.868 c -1.908,-2.47 -4.07,-4.365 -6.492,-5.706 -2.43,-1.348 -5.595,-2.005 -9.493,-2.005 -2.574,0 -4.95,0.31 -7.135,0.944 -2.187,0.599 -4.04,1.75 -5.566,3.414 -1.524,1.659 -2.703,3.895 -3.56,6.707 C 0.428,-47.514 0,-43.915 0,-39.532 L 0,0 z"
             style="fill:#c6c8ca;fill-opacity:1;fill-rule:nonzero;stroke:none"
             id="path3080"
             inkscape:connector-curvature="0" /></g><g
           id="g3082"
           transform="translate(1127.1538,274.1768)"><path
             d="m 0,0 c -1.999,0.485 -4.493,0.896 -7.492,1.225 -3,0.327 -6.83,0.49 -11.491,0.49 -4.847,0 -8.701,-0.606 -11.55,-1.786 -2.855,-1.176 -5.02,-2.659 -6.494,-4.421 -1.488,-1.766 -2.427,-3.659 -2.853,-5.706 -0.441,-2.045 -0.648,-3.868 -0.648,-5.488 0,-4.763 1.596,-8.235 4.782,-10.431 3.183,-2.174 7.253,-3.282 12.204,-3.282 3.228,0 6.274,0.574 9.132,1.714 2.855,1.144 5.341,2.664 7.495,4.57 2.135,1.906 3.82,4.077 5.06,6.492 1.238,2.432 1.855,4.872 1.855,7.34 L 0,0 z m 0.572,-33.524 c -0.097,0.856 -0.147,1.799 -0.147,2.856 -0.089,0.931 -0.134,2.083 -0.134,3.414 l 0,4.696 c -1.716,-2.463 -3.604,-4.533 -5.644,-6.191 -2.044,-1.669 -4.184,-2.976 -6.424,-3.919 -2.233,-0.966 -4.425,-1.618 -6.564,-2.007 -2.133,-0.371 -4.111,-0.574 -5.923,-0.574 -2.752,0 -5.512,0.293 -8.264,0.87 -2.772,0.579 -5.242,1.574 -7.42,3.057 -2.203,1.482 -3.976,3.473 -5.366,6.006 -1.37,2.518 -2.066,5.715 -2.066,9.63 0,3.139 0.531,6.104 1.582,8.92 1.049,2.806 2.711,5.226 4.988,7.274 2.278,2.039 5.23,3.648 8.845,4.845 3.615,1.179 7.99,1.794 13.127,1.794 3.996,0 7.558,-0.14 10.711,-0.443 3.136,-0.281 5.793,-0.605 7.985,-0.995 l 0,3.707 c 0,3.614 -0.418,6.614 -1.283,8.988 -0.864,2.379 -2.153,4.291 -3.853,5.729 -1.721,1.418 -3.813,2.414 -6.277,2.979 -2.469,0.578 -5.328,0.855 -8.567,0.855 -5.418,0 -9.736,-0.779 -12.917,-2.337 -3.17,-1.57 -5.626,-3.091 -7.343,-4.518 l -3.419,4.439 c 1.796,1.715 4.725,3.505 8.768,5.418 4.043,1.902 8.974,2.854 14.774,2.854 8.466,0 15.003,-1.813 19.616,-5.427 4.606,-3.607 6.927,-9.595 6.927,-17.984 l 0,-30.249 0,-5.345 c 0,-1.672 0.042,-3.109 0.138,-4.343 0.078,-1.534 0.193,-2.858 0.286,-3.999 l -6.136,0 z"
             style="fill:#c6c8ca;fill-opacity:1;fill-rule:nonzero;stroke:none"
             id="path3084"
             inkscape:connector-curvature="0" /></g><g
           id="g3086"
           transform="translate(1159.2588,247.4941)"><path
             d="m 0,0 c 1.146,-0.37 3.122,-0.904 5.921,-1.562 2.799,-0.676 6.677,-1.003 11.636,-1.003 4.181,0 8.064,0.589 11.634,1.781 3.573,1.184 6.666,2.986 9.336,5.367 2.671,2.356 4.741,5.342 6.207,8.916 1.475,3.56 2.211,7.724 2.211,12.473 0,3.799 -0.425,7.45 -1.282,10.915 -0.85,3.479 -2.214,6.502 -4.058,9.072 -1.863,2.558 -4.271,4.609 -7.209,6.125 -2.958,1.513 -6.56,2.292 -10.845,2.292 -3.998,0 -7.48,-0.873 -10.425,-2.572 C 10.182,50.086 7.726,47.949 5.784,45.379 3.826,42.807 2.379,39.97 1.426,36.887 0.473,33.789 0,30.873 0,28.107 L 0,0 z m -6.284,88.329 6.426,0 0,-41.233 c 0.86,1.421 1.936,2.915 3.214,4.483 1.29,1.57 2.877,3.032 4.773,4.367 1.902,1.328 4.174,2.414 6.778,3.279 2.617,0.855 5.746,1.272 9.358,1.272 5.037,0 9.408,-0.873 13.119,-2.63 3.708,-1.749 6.789,-4.2 9.213,-7.28 2.414,-3.101 4.232,-6.755 5.415,-10.98 1.186,-4.232 1.79,-8.82 1.79,-13.766 0,-5.514 -0.933,-10.436 -2.787,-14.719 C 49.163,6.852 46.597,3.268 43.313,0.368 40.031,-2.55 36.17,-4.766 31.749,-6.277 c -4.43,-1.517 -9.2,-2.287 -14.338,-2.287 -4.766,0 -9.25,0.399 -13.49,1.216 -4.225,0.815 -7.63,1.783 -10.205,2.933 l 0,92.744 z"
             style="fill:#c6c8ca;fill-opacity:1;fill-rule:nonzero;stroke:none"
             id="path3088"
             inkscape:connector-curvature="0" /></g><path
           d="m 1229.467,335.823 6.42,0 0,-95.174 -6.42,0 0,95.174 z"
           style="fill:#c6c8ca;fill-opacity:1;fill-rule:nonzero;stroke:none"
           id="path3090"
           inkscape:connector-curvature="0" /><g
           id="g3092"
           transform="translate(1308.3848,277.3174)"><path
             d="m 0,0 c -0.867,8.085 -3.433,14.23 -7.701,18.408 -4.287,4.188 -9.862,6.282 -16.709,6.282 -3.523,0 -6.722,-0.642 -9.627,-1.93 -2.904,-1.27 -5.408,-3.052 -7.488,-5.275 -2.106,-2.233 -3.786,-4.844 -5.069,-7.855 C -47.88,6.646 -48.609,3.435 -48.798,0 L 0,0 z M 4.134,-26.811 C 1.266,-30.436 -2.6,-33.273 -7.5,-35.308 c -4.905,-2.051 -9.91,-3.08 -15.064,-3.08 -4.848,0 -9.338,0.847 -13.481,2.505 -4.121,1.661 -7.679,4.012 -10.623,7.063 -2.951,3.025 -5.264,6.678 -6.916,10.922 -1.669,4.217 -2.495,8.907 -2.495,14.044 0,4.759 0.778,9.224 2.349,13.411 1.574,4.197 3.724,7.858 6.484,10.985 2.769,3.138 6.092,5.613 9.998,7.425 3.898,1.803 8.178,2.707 12.838,2.707 4.469,0 8.64,-0.77 12.478,-2.342 3.874,-1.573 7.188,-3.869 10.006,-6.917 C 0.877,18.364 3.051,14.583 4.623,10.067 6.193,5.545 6.982,0.339 6.982,-5.554 l -55.936,0 c 0.098,-3.707 0.8,-7.218 2.143,-10.511 1.332,-3.278 3.143,-6.121 5.423,-8.552 2.281,-2.424 5.011,-4.321 8.192,-5.702 3.195,-1.381 6.731,-2.07 10.632,-2.07 2.015,0 4.085,0.212 6.22,0.649 2.142,0.416 4.211,1.066 6.2,1.917 2,0.868 3.839,1.863 5.505,3.012 1.657,1.119 3.061,2.415 4.205,3.839 l 4.568,-3.839 z"
             style="fill:#c6c8ca;fill-opacity:1;fill-rule:nonzero;stroke:none"
             id="path3094"
             inkscape:connector-curvature="0" /></g><g
           id="g3096"
           transform="translate(1401.9805,274.1768)"><path
             d="m 0,0 c -2,0.485 -4.498,0.896 -7.489,1.225 -2.999,0.327 -6.831,0.49 -11.498,0.49 -4.841,0 -8.689,-0.606 -11.556,-1.786 -2.84,-1.176 -5.014,-2.659 -6.482,-4.421 -1.477,-1.766 -2.425,-3.659 -2.857,-5.706 -0.427,-2.045 -0.634,-3.868 -0.634,-5.488 0,-4.763 1.586,-8.235 4.777,-10.431 3.184,-2.174 7.251,-3.282 12.195,-3.282 3.233,0 6.278,0.574 9.136,1.714 2.865,1.144 5.35,2.664 7.488,4.57 2.133,1.906 3.825,4.077 5.072,6.492 1.227,2.432 1.848,4.872 1.848,7.34 L 0,0 z m 0.572,-33.524 c -0.095,0.856 -0.142,1.799 -0.142,2.856 -0.096,0.931 -0.137,2.083 -0.137,3.414 l 0,4.696 c -1.725,-2.463 -3.594,-4.533 -5.641,-6.191 -2.045,-1.669 -4.179,-2.976 -6.418,-3.919 -2.242,-0.966 -4.428,-1.618 -6.574,-2.007 -2.142,-0.371 -4.113,-0.574 -5.928,-0.574 -2.736,0 -5.511,0.293 -8.265,0.87 -2.766,0.579 -5.238,1.574 -7.422,3.057 -2.181,1.482 -3.972,3.473 -5.351,6.006 -1.382,2.518 -2.061,5.715 -2.061,9.63 0,3.139 0.519,6.104 1.578,8.92 1.029,2.806 2.697,5.226 4.975,7.274 2.288,2.039 5.24,3.648 8.851,4.845 3.627,1.179 7.998,1.794 13.126,1.794 3.987,0 7.558,-0.14 10.706,-0.443 3.137,-0.281 5.799,-0.605 7.984,-0.995 l 0,3.707 c 0,3.614 -0.433,6.614 -1.285,8.988 -0.848,2.379 -2.147,4.291 -3.846,5.729 -1.706,1.418 -3.808,2.414 -6.265,2.979 -2.503,0.578 -5.334,0.855 -8.576,0.855 -5.416,0 -9.725,-0.779 -12.909,-2.337 -3.206,-1.57 -5.642,-3.091 -7.35,-4.518 l -3.435,4.439 c 1.815,1.715 4.741,3.505 8.785,5.418 4.038,1.902 8.962,2.854 14.762,2.854 8.468,0 15.008,-1.813 19.629,-5.427 4.623,-3.607 6.922,-9.595 6.922,-17.984 l 0,-30.249 0,-5.345 c 0,-1.672 0.051,-3.109 0.139,-4.343 0.096,-1.534 0.193,-2.858 0.279,-3.999 l -6.131,0 z"
             style="fill:#c6c8ca;fill-opacity:1;fill-rule:nonzero;stroke:none"
             id="path3098"
             inkscape:connector-curvature="0" /></g><g
           id="g3100"
           transform="translate(1434.3691,252.0742)"><path
             d="m 0,0 c 0.666,-0.483 1.584,-1.13 2.713,-1.943 1.139,-0.809 2.573,-1.583 4.283,-2.336 1.709,-0.786 3.686,-1.45 5.916,-2.027 2.238,-0.545 4.781,-0.845 7.647,-0.845 3.609,0 7.027,0.632 10.26,1.869 3.242,1.215 6.06,3.022 8.436,5.415 2.374,2.369 4.244,5.309 5.631,8.779 1.38,3.478 2.056,7.488 2.056,12.057 0,3.795 -0.411,7.467 -1.278,10.975 -0.859,3.519 -2.206,6.621 -4.059,9.287 -1.853,2.65 -4.269,4.784 -7.206,6.352 -2.95,1.568 -6.573,2.358 -10.856,2.358 -2.849,0 -5.447,-0.447 -7.773,-1.292 C 13.443,47.804 11.372,46.619 9.559,45.166 7.76,43.677 6.188,41.96 4.855,40.017 3.516,38.075 2.472,36.044 1.707,33.958 1.043,32.239 0.604,30.194 0.361,27.812 0.129,25.427 0,23.007 0,20.542 L 0,0 z m -6.283,40.388 0,4.624 0,3.426 c 0,0.987 -0.006,1.944 -0.063,2.848 -0.047,0.906 -0.123,1.882 -0.207,2.917 l 5.991,0 c 0.093,-1.035 0.162,-1.978 0.217,-2.77 0.042,-0.809 0.085,-1.64 0.13,-2.505 0.05,-0.854 0.098,-1.832 0.151,-2.913 C -0.022,44.921 0,43.607 0,42.068 c 0.473,0.881 1.238,2.056 2.286,3.593 1.05,1.51 2.536,3.029 4.494,4.552 1.945,1.511 4.343,2.858 7.202,3.99 2.862,1.141 6.286,1.723 10.282,1.723 5.043,0 9.424,-0.917 13.121,-2.716 3.715,-1.815 6.779,-4.282 9.193,-7.419 2.44,-3.138 4.247,-6.831 5.437,-11.052 1.194,-4.234 1.786,-8.834 1.786,-13.77 0,-5.138 -0.832,-9.811 -2.501,-13.995 -1.662,-4.174 -3.998,-7.782 -6.991,-10.762 -2.995,-3.011 -6.514,-5.316 -10.561,-6.93 -4.032,-1.618 -8.439,-2.428 -13.189,-2.428 -4.668,0 -8.666,0.649 -12.002,1.929 C 5.242,-9.928 2.383,-8.616 0,-7.297 l 0,-32.667 -6.283,0 0,80.352 z"
             style="fill:#c6c8ca;fill-opacity:1;fill-rule:nonzero;stroke:none"
             id="path3102"
             inkscape:connector-curvature="0" /></g><g
           id="g3104"
           transform="translate(1511.1436,252.0742)"><path
             d="M 0,0 C 0.666,-0.483 1.564,-1.13 2.72,-1.943 3.842,-2.752 5.285,-3.526 7,-4.279 c 1.707,-0.786 3.666,-1.45 5.906,-2.027 2.246,-0.545 4.791,-0.845 7.642,-0.845 3.624,0 7.04,0.632 10.275,1.869 3.234,1.215 6.031,3.022 8.413,5.415 2.388,2.369 4.261,5.309 5.635,8.779 1.379,3.478 2.068,7.488 2.068,12.057 0,3.795 -0.431,7.467 -1.275,10.975 -0.867,3.519 -2.214,6.621 -4.076,9.287 -1.846,2.65 -4.252,4.784 -7.192,6.352 -2.965,1.568 -6.573,2.358 -10.853,2.358 -2.845,0 -5.457,-0.447 -7.777,-1.292 C 13.438,47.804 11.361,46.619 9.557,45.166 7.755,43.677 6.181,41.96 4.857,40.017 3.523,38.075 2.48,36.044 1.703,33.958 1.045,32.239 0.588,30.194 0.354,27.812 0.111,25.427 0,23.007 0,20.542 L 0,0 z m -6.275,40.388 0,4.624 0,3.426 c 0,0.987 -0.039,1.944 -0.08,2.848 -0.055,0.906 -0.113,1.882 -0.215,2.917 l 5.992,0 c 0.098,-1.035 0.176,-1.978 0.221,-2.77 0.044,-0.809 0.093,-1.64 0.134,-2.505 0.047,-0.854 0.094,-1.832 0.149,-2.913 C -0.023,44.921 0,43.607 0,42.068 c 0.469,0.881 1.234,2.056 2.279,3.593 1.043,1.51 2.537,3.029 4.502,4.552 1.94,1.511 4.34,2.858 7.199,3.99 2.844,1.141 6.281,1.723 10.278,1.723 5.024,0 9.419,-0.917 13.127,-2.716 3.71,-1.815 6.787,-4.282 9.205,-7.419 2.423,-3.138 4.227,-6.831 5.42,-11.052 1.18,-4.234 1.785,-8.834 1.785,-13.77 0,-5.138 -0.834,-9.811 -2.497,-13.995 C 49.633,2.8 47.3,-0.808 44.311,-3.788 c -3,-3.011 -6.526,-5.316 -10.569,-6.93 -4.046,-1.618 -8.424,-2.428 -13.194,-2.428 -4.676,0 -8.665,0.649 -11.987,1.929 C 5.217,-9.928 2.365,-8.616 0,-7.297 l 0,-32.667 -6.275,0 0,80.352 z"
             style="fill:#c6c8ca;fill-opacity:1;fill-rule:nonzero;stroke:none"
             id="path3106"
             inkscape:connector-curvature="0" /></g><g
           id="g3108"
           transform="translate(1625.7256,274.1768)"><path
             d="m 0,0 c -2.003,0.485 -4.518,0.896 -7.502,1.225 -2.99,0.327 -6.826,0.49 -11.51,0.49 -4.818,0 -8.676,-0.606 -11.519,-1.786 -2.856,-1.176 -5.03,-2.659 -6.495,-4.421 -1.482,-1.766 -2.435,-3.659 -2.862,-5.706 -0.412,-2.045 -0.657,-3.868 -0.657,-5.488 0,-4.763 1.613,-8.235 4.783,-10.431 3.192,-2.174 7.258,-3.282 12.215,-3.282 3.223,0 6.266,0.574 9.131,1.714 2.855,1.144 5.352,2.664 7.492,4.57 2.152,1.906 3.82,4.077 5.05,6.492 1.24,2.432 1.874,4.872 1.874,7.34 L 0,0 z m 0.572,-33.524 c -0.104,0.856 -0.154,1.799 -0.154,2.856 -0.087,0.931 -0.144,2.083 -0.144,3.414 l 0,4.696 c -1.7,-2.463 -3.588,-4.533 -5.626,-6.191 -2.054,-1.669 -4.193,-2.976 -6.433,-3.919 -2.235,-0.966 -4.421,-1.618 -6.551,-2.007 -2.139,-0.371 -4.115,-0.574 -5.926,-0.574 -2.76,0 -5.514,0.293 -8.281,0.87 -2.762,0.579 -5.231,1.574 -7.412,3.057 -2.193,1.482 -3.967,3.473 -5.356,6.006 -1.373,2.518 -2.068,5.715 -2.068,9.63 0,3.139 0.514,6.104 1.572,8.92 1.04,2.806 2.703,5.226 4.985,7.274 2.297,2.039 5.24,3.648 8.849,4.845 3.616,1.179 8.001,1.794 13.119,1.794 4.002,0 7.575,-0.14 10.719,-0.443 3.129,-0.281 5.801,-0.605 7.977,-0.995 l 0,3.707 c 0,3.614 -0.41,6.614 -1.268,8.988 -0.867,2.379 -2.158,4.291 -3.868,5.729 -1.719,1.418 -3.797,2.414 -6.267,2.979 -2.474,0.578 -5.326,0.855 -8.555,0.855 -5.433,0 -9.734,-0.779 -12.925,-2.337 -3.195,-1.57 -5.623,-3.091 -7.342,-4.518 l -3.42,4.439 c 1.791,1.715 4.733,3.505 8.772,5.418 4.031,1.902 8.944,2.854 14.763,2.854 8.467,0 15,-1.813 19.62,-5.427 4.605,-3.607 6.916,-9.595 6.916,-17.984 l 0,-30.249 0,-5.345 c 0,-1.672 0.049,-3.109 0.144,-4.343 0.098,-1.534 0.187,-2.858 0.283,-3.999 l -6.123,0 z"
             style="fill:#c6c8ca;fill-opacity:1;fill-rule:nonzero;stroke:none"
             id="path3110"
             inkscape:connector-curvature="0" /></g><g
           id="g3112"
           transform="translate(1651.8271,292.4619)"><path
             d="m 0,0 0,4.624 0,3.419 c 0,0.994 -0.021,1.951 -0.064,2.859 -0.046,0.903 -0.125,1.881 -0.223,2.916 l 6.01,0 C 5.806,12.783 5.876,11.788 5.93,10.816 5.971,9.884 6.021,8.848 6.063,7.762 6.118,6.679 6.146,5.451 6.146,4.121 l 0,-4.688 c 0.75,1.411 1.784,2.996 3.059,4.773 1.305,1.748 2.938,3.389 4.928,4.9 1.996,1.532 4.332,2.806 7.004,3.867 2.666,1.05 5.748,1.569 9.259,1.569 2.104,0 3.895,-0.337 5.424,-1.003 L 33.975,7.416 c -0.669,0.271 -1.461,0.453 -2.368,0.55 -0.904,0.108 -1.732,0.138 -2.486,0.138 -3.425,0 -6.514,-0.745 -9.284,-2.266 -2.751,-1.52 -5.136,-3.524 -7.126,-5.99 -1.997,-2.47 -3.547,-5.325 -4.634,-8.494 -1.102,-3.188 -1.649,-6.403 -1.649,-9.639 l 0,-33.525 L 0,-51.81 0,0 z"
             style="fill:#c6c8ca;fill-opacity:1;fill-rule:nonzero;stroke:none"
             id="path3114"
             inkscape:connector-curvature="0" /></g><g
           id="g3116"
           transform="translate(1752.4355,277.3174)"><path
             d="m 0,0 c -0.864,8.085 -3.427,14.23 -7.707,18.408 -4.279,4.188 -9.849,6.282 -16.692,6.282 -3.528,0 -6.745,-0.642 -9.64,-1.93 -2.896,-1.27 -5.392,-3.052 -7.491,-5.275 -2.09,-2.233 -3.783,-4.844 -5.067,-7.855 C -47.882,6.646 -48.621,3.435 -48.803,0 L 0,0 z m 4.13,-26.811 c -2.848,-3.625 -6.723,-6.462 -11.624,-8.497 -4.911,-2.051 -9.913,-3.08 -15.052,-3.08 -4.853,0 -9.353,0.847 -13.5,2.505 -4.111,1.661 -7.687,4.012 -10.614,7.063 -2.952,3.025 -5.264,6.678 -6.925,10.922 -1.652,4.217 -2.486,8.907 -2.486,14.044 0,4.759 0.765,9.224 2.342,13.411 1.571,4.197 3.724,7.858 6.503,10.985 2.741,3.138 6.079,5.613 9.967,7.425 3.911,1.803 8.181,2.707 12.86,2.707 4.466,0 8.632,-0.77 12.484,-2.342 3.84,-1.573 7.174,-3.869 9.986,-6.917 C 0.866,18.364 3.055,14.583 4.632,10.067 6.191,5.545 6.989,0.339 6.989,-5.554 l -55.939,0 c 0.097,-3.707 0.804,-7.218 2.137,-10.511 1.332,-3.278 3.135,-6.121 5.433,-8.552 2.295,-2.424 5.016,-4.321 8.199,-5.702 3.189,-1.381 6.735,-2.07 10.635,-2.07 2.002,0 4.074,0.212 6.201,0.649 2.142,0.416 4.213,1.066 6.209,1.917 1.99,0.868 3.804,1.863 5.499,3.012 1.667,1.119 3.061,2.415 4.211,3.839 l 4.556,-3.839 z"
             style="fill:#c6c8ca;fill-opacity:1;fill-rule:nonzero;stroke:none"
             id="path3118"
             inkscape:connector-curvature="0" /></g><path
           d="m 1775.835,335.823 6.426,0 0,-95.174 -6.426,0 0,95.174 z"
           style="fill:#c6c8ca;fill-opacity:1;fill-rule:nonzero;stroke:none"
           id="path3120"
           inkscape:connector-curvature="0" /><g
           id="g3122"
           transform="translate(1451.8193,542.5273)"><path
             d="m 0,0 -45.71,0 c -2.871,-24.633 -12.631,-45.425 -28.043,-60.745 L 0,-60.745 0,0 z"
             style="fill:#c6c8ca;fill-opacity:1;fill-rule:nonzero;stroke:none"
             id="path3124"
             inkscape:connector-curvature="0" /></g></g></g></g></svg>