<?xml version="1.0" encoding="iso-8859-1"?>
<!-- Generator: Adobe Illustrator 15.1.0, SVG Export Plug-In . SVG Version: 6.00 Build 0)  -->
<!DOCTYPE svg PUBLIC "-//W3C//DTD SVG 1.1//EN" "http://www.w3.org/Graphics/SVG/1.1/DTD/svg11.dtd">
<svg version="1.1" id="Layer_1" xmlns="http://www.w3.org/2000/svg" xmlns:xlink="http://www.w3.org/1999/xlink" x="0px" y="0px"
	 width="99.4px" height="81px" viewBox="0 0 99.4 81" style="enable-background:new 0 0 99.4 108.6;" xml:space="preserve">
<g style="display:none;opacity:0.37;">
	
		<linearGradient id="SVGID_1_" gradientUnits="userSpaceOnUse" x1="-58.6929" y1="147.9844" x2="-33.0586" y2="147.9844" gradientTransform="matrix(0 1 -1 0 242.2676 250.3486)">
		<stop  offset="0" style="stop-color:#000000;stop-opacity:0.23"/>
		<stop  offset="0.147" style="stop-color:#000000;stop-opacity:0.1962"/>
		<stop  offset="1" style="stop-color:#000000;stop-opacity:0"/>
	</linearGradient>
	<polygon style="display:inline;fill:url(#SVGID_1_);" points="113.502,191.656 88.09,191.656 75.064,204.683 87.844,217.29 	"/>
	
		<linearGradient id="SVGID_2_" gradientUnits="userSpaceOnUse" x1="72.3271" y1="147.8535" x2="98.0068" y2="147.8535" gradientTransform="matrix(0 -1 -1 0 242.2686 263.9824)">
		<stop  offset="0" style="stop-color:#000000;stop-opacity:0.23"/>
		<stop  offset="0.147" style="stop-color:#000000;stop-opacity:0.1962"/>
		<stop  offset="1" style="stop-color:#000000;stop-opacity:0"/>
	</linearGradient>
	<polygon style="display:inline;fill:url(#SVGID_2_);" points="113.502,191.656 88.09,191.656 75.328,178.792 87.781,165.976 	"/>
	
		<linearGradient id="SVGID_3_" gradientUnits="userSpaceOnUse" x1="-227.3242" y1="190.3667" x2="-201.6895" y2="190.3667" gradientTransform="matrix(1 0 0 1 269.6934 -50.5918)">
		<stop  offset="0" style="stop-color:#000000;stop-opacity:0.23"/>
		<stop  offset="0.147" style="stop-color:#000000;stop-opacity:0.1962"/>
		<stop  offset="1" style="stop-color:#000000;stop-opacity:0"/>
	</linearGradient>
	<polygon style="display:inline;fill:url(#SVGID_3_);" points="42.369,120.556 42.369,145.968 55.398,158.994 68.004,146.214 	"/>
	
		<linearGradient id="SVGID_4_" gradientUnits="userSpaceOnUse" x1="240.957" y1="190.2368" x2="266.6367" y2="190.2368" gradientTransform="matrix(-1 0 0 1 283.3262 -50.5938)">
		<stop  offset="0" style="stop-color:#000000;stop-opacity:0.23"/>
		<stop  offset="0.147" style="stop-color:#000000;stop-opacity:0.1962"/>
		<stop  offset="1" style="stop-color:#000000;stop-opacity:0"/>
	</linearGradient>
	<polygon style="display:inline;fill:url(#SVGID_4_);" points="42.369,120.556 42.369,145.968 29.507,158.73 16.689,146.277 	"/>
	
		<linearGradient id="SVGID_5_" gradientUnits="userSpaceOnUse" x1="-156.1772" y1="269.6943" x2="-130.5444" y2="269.6943" gradientTransform="matrix(0 -1 1 0 -267.7734 24.0664)">
		<stop  offset="0" style="stop-color:#000000;stop-opacity:0.23"/>
		<stop  offset="0.147" style="stop-color:#000000;stop-opacity:0.1962"/>
		<stop  offset="1" style="stop-color:#000000;stop-opacity:0"/>
	</linearGradient>
	<polygon style="display:inline;fill:url(#SVGID_5_);" points="-17.299,180.244 8.115,180.242 21.141,167.216 8.361,154.611 	"/>
	
		<linearGradient id="SVGID_6_" gradientUnits="userSpaceOnUse" x1="169.8096" y1="269.5615" x2="195.4912" y2="269.5615" gradientTransform="matrix(0 1 1 0 -267.7725 10.4326)">
		<stop  offset="0" style="stop-color:#000000;stop-opacity:0.23"/>
		<stop  offset="0.147" style="stop-color:#000000;stop-opacity:0.1962"/>
		<stop  offset="1" style="stop-color:#000000;stop-opacity:0"/>
	</linearGradient>
	<polygon style="display:inline;fill:url(#SVGID_6_);" points="-17.299,180.244 8.115,180.242 20.877,193.105 8.423,205.923 	"/>
	
		<linearGradient id="SVGID_7_" gradientUnits="userSpaceOnUse" x1="-159.6343" y1="376.0625" x2="-142.0568" y2="395.0008" gradientTransform="matrix(0 -1 1 0 -267.7734 24.0664)">
		<stop  offset="0" style="stop-color:#000000;stop-opacity:0.23"/>
		<stop  offset="0.147" style="stop-color:#000000;stop-opacity:0.1962"/>
		<stop  offset="1" style="stop-color:#000000;stop-opacity:0"/>
	</linearGradient>
	<polygon style="display:inline;fill:url(#SVGID_7_);" points="100.793,178.933 113.492,191.656 128.705,176.433 115.926,163.828 	
		"/>
	
		<linearGradient id="SVGID_8_" gradientUnits="userSpaceOnUse" x1="-101.6167" y1="317.6475" x2="-83.4387" y2="335.8254" gradientTransform="matrix(0 -1 1 0 -267.7734 24.0664)">
		<stop  offset="0" style="stop-color:#000000;stop-opacity:0.23"/>
		<stop  offset="0.147" style="stop-color:#000000;stop-opacity:0.1962"/>
		<stop  offset="1" style="stop-color:#000000;stop-opacity:0"/>
	</linearGradient>
	<polygon style="display:inline;fill:url(#SVGID_8_);" points="42.369,120.476 55.072,133.199 70.283,117.976 57.504,105.371 	"/>
	
		<linearGradient id="SVGID_9_" gradientUnits="userSpaceOnUse" x1="-109.0581" y1="268.6797" x2="-95.2084" y2="282.5294" gradientTransform="matrix(-1 0 0 -1 -72.9697 395.5859)">
		<stop  offset="0" style="stop-color:#000000;stop-opacity:0.23"/>
		<stop  offset="0.147" style="stop-color:#000000;stop-opacity:0.1962"/>
		<stop  offset="1" style="stop-color:#000000;stop-opacity:0"/>
	</linearGradient>
	<polygon style="display:inline;fill:url(#SVGID_9_);" points="29.646,133.175 42.369,120.476 27.147,105.263 14.542,118.042 	"/>
	
		<linearGradient id="SVGID_10_" gradientUnits="userSpaceOnUse" x1="-62.0215" y1="221.5996" x2="-47.1108" y2="236.5103" gradientTransform="matrix(-1 0 0 -1 -72.9697 395.5859)">
		<stop  offset="0" style="stop-color:#000000;stop-opacity:0.23"/>
		<stop  offset="0.147" style="stop-color:#000000;stop-opacity:0.1962"/>
		<stop  offset="1" style="stop-color:#000000;stop-opacity:0"/>
	</linearGradient>
	<polygon style="display:inline;fill:url(#SVGID_10_);" points="-17.389,180.257 -4.665,167.558 -19.888,152.345 -32.493,165.125 	
		"/>
	<polygon style="display:inline;fill:#FFFFFF;" points="8.858,112.489 -25.37,146.684 -25.382,146.684 -4.62,167.555 
		29.641,133.269 	"/>
	<polygon style="display:inline;fill:#FFFFFF;" points="42.421,145.934 8.167,180.245 53.82,225.911 88.141,191.659 42.421,145.971 
			"/>
	<polygon style="display:inline;fill:#FFFFFF;" points="55.129,133.197 100.838,178.943 138.008,141.721 92.381,96.055 	"/>
	<linearGradient id="SVGID_11_" gradientUnits="userSpaceOnUse" x1="8.8076" y1="107.332" x2="34.4404" y2="107.332">
		<stop  offset="0" style="stop-color:#000000;stop-opacity:0.23"/>
		<stop  offset="0.147" style="stop-color:#000000;stop-opacity:0.1962"/>
		<stop  offset="1" style="stop-color:#000000;stop-opacity:0"/>
	</linearGradient>
	<path style="display:inline;fill:url(#SVGID_11_);" d="M21.834,125.511l12.606-12.779L11.974,90.243
		c-0.863-0.672-1.934-1.088-3.111-1.088c-0.002,0-0.002-0.002-0.004-0.002c-0.018,0-0.033,0.005-0.051,0.005l0.001,23.328
		L21.834,125.511z"/>
	<linearGradient id="SVGID_12_" gradientUnits="userSpaceOnUse" x1="8.8779" y1="107.2026" x2="-16.8027" y2="107.2026">
		<stop  offset="0" style="stop-color:#000000;stop-opacity:0.23"/>
		<stop  offset="0.147" style="stop-color:#000000;stop-opacity:0.1962"/>
		<stop  offset="1" style="stop-color:#000000;stop-opacity:0"/>
	</linearGradient>
	<path style="display:inline;fill:url(#SVGID_12_);" d="M-4.055,125.248l12.863-12.762L8.808,89.158
		c-1.38,0.014-2.631,0.575-3.539,1.478l-5.453,5.445l-16.688,16.714L-4.055,125.248z"/>
	<linearGradient id="SVGID_13_" gradientUnits="userSpaceOnUse" x1="-30.5854" y1="146.9897" x2="-30.5855" y2="110.6391">
		<stop  offset="0" style="stop-color:#000000;stop-opacity:0.23"/>
		<stop  offset="0.147" style="stop-color:#000000;stop-opacity:0.1962"/>
		<stop  offset="1" style="stop-color:#000000;stop-opacity:0"/>
	</linearGradient>
	<path style="display:inline;fill:url(#SVGID_13_);" d="M-25.436,146.679l13.025-13.025l-12.779-12.605l-22.187,22.163
		c-0.853,0.911-1.384,2.123-1.385,3.47L-25.436,146.679z"/>
	<linearGradient id="SVGID_14_" gradientUnits="userSpaceOnUse" x1="-30.7173" y1="146.895" x2="-30.7173" y2="182.9818">
		<stop  offset="0" style="stop-color:#000000;stop-opacity:0.23"/>
		<stop  offset="0.147" style="stop-color:#000000;stop-opacity:0.1962"/>
		<stop  offset="1" style="stop-color:#000000;stop-opacity:0"/>
	</linearGradient>
	<path style="display:inline;fill:url(#SVGID_14_);" d="M-47.403,150.122l22.275,22.239l12.454-12.818l-12.762-12.863l-23.325,0.002
		c0,0.001,0,0.002,0,0.003C-48.761,148.012-48.237,149.214-47.403,150.122z"/>
	<linearGradient id="SVGID_15_" gradientUnits="userSpaceOnUse" x1="53.9912" y1="231.0625" x2="28.3579" y2="231.0625">
		<stop  offset="0" style="stop-color:#000000;stop-opacity:0.23"/>
		<stop  offset="0.147" style="stop-color:#000000;stop-opacity:0.1962"/>
		<stop  offset="1" style="stop-color:#000000;stop-opacity:0"/>
	</linearGradient>
	<path style="display:inline;fill:url(#SVGID_15_);" d="M40.741,212.884l-12.605,12.779l19.3,19.32l2.771,2.77
		c0.914,0.912,2.172,1.477,3.563,1.488l-0.001-23.332L40.741,212.884z"/>
	<linearGradient id="SVGID_16_" gradientUnits="userSpaceOnUse" x1="53.7686" y1="231.1963" x2="79.4492" y2="231.1963">
		<stop  offset="0" style="stop-color:#000000;stop-opacity:0.23"/>
		<stop  offset="0.147" style="stop-color:#000000;stop-opacity:0.1962"/>
		<stop  offset="1" style="stop-color:#000000;stop-opacity:0"/>
	</linearGradient>
	<path style="display:inline;fill:url(#SVGID_16_);" d="M66.631,213.147l-12.862,12.762l0.001,23.332
		c0.015,0,0.028,0.004,0.043,0.004c0.002,0,0.004,0,0.008,0c1.18-0.002,2.254-0.422,3.119-1.098l22.51-22.547L66.631,213.147z"/>
	<linearGradient id="SVGID_17_" gradientUnits="userSpaceOnUse" x1="143.2803" y1="142.6274" x2="143.2803" y2="106.4605">
		<stop  offset="0" style="stop-color:#000000;stop-opacity:0.23"/>
		<stop  offset="0.147" style="stop-color:#000000;stop-opacity:0.1962"/>
		<stop  offset="1" style="stop-color:#000000;stop-opacity:0"/>
	</linearGradient>
	<path style="display:inline;fill:url(#SVGID_17_);" d="M137.65,116.037l-12.453,12.82l12.762,12.861h23.404
		c-0.004-1.157-0.41-2.213-1.064-3.066L137.65,116.037z"/>
	<linearGradient id="SVGID_18_" gradientUnits="userSpaceOnUse" x1="92.2471" y1="90.6665" x2="63.2851" y2="91.1899">
		<stop  offset="0" style="stop-color:#000000;stop-opacity:0.23"/>
		<stop  offset="0.147" style="stop-color:#000000;stop-opacity:0.1962"/>
		<stop  offset="1" style="stop-color:#000000;stop-opacity:0"/>
	</linearGradient>
	<path style="display:inline;fill:url(#SVGID_18_);" d="M79.467,108.812L92.33,96.05L92.328,72.75
		c-1.357,0.012-2.588,0.558-3.496,1.435L78.127,84.863L66.65,96.359L79.467,108.812z"/>
	<linearGradient id="SVGID_19_" gradientUnits="userSpaceOnUse" x1="92.3281" y1="90.9102" x2="117.9629" y2="90.9102">
		<stop  offset="0" style="stop-color:#000000;stop-opacity:0.23"/>
		<stop  offset="0.147" style="stop-color:#000000;stop-opacity:0.1962"/>
		<stop  offset="1" style="stop-color:#000000;stop-opacity:0"/>
	</linearGradient>
	<path style="display:inline;fill:url(#SVGID_19_);" d="M105.357,109.076l12.605-12.779L95.682,73.995
		c-0.891-0.767-2.031-1.246-3.299-1.25c-0.004,0-0.006,0-0.01,0c-0.016,0-0.029,0.004-0.045,0.005L92.33,96.05L105.357,109.076z"/>
</g>

<path d="M97.462,32.657c-0.002-0.631-0.259-1.203-0.672-1.616v-0.001L68.004,2.255c-0.414-0.413-0.984-0.667-1.615-0.669
	c-0.001,0-0.003,0-0.003,0c-0.621,0-1.183,0.249-1.596,0.648L43.883,23.088L30.391,9.647l-0.002,0.002
	c-0.416-0.415-0.989-0.672-1.623-0.672c0,0,0,0,0,0c-0.632,0-1.204,0.256-1.618,0.667L3.45,33.307
	c-0.395,0.412-0.641,0.968-0.641,1.585c0,0.624,0.251,1.189,0.656,1.603L47.39,80.419h0c0.416,0.416,0.99,0.672,1.624,0.672
	c0.001,0,0.002,0,0.003,0c0.633,0,1.206-0.258,1.621-0.672l0.004,0.004L96.84,34.228c0.383-0.411,0.622-0.958,0.623-1.565
	C97.463,32.661,97.462,32.659,97.462,32.657z M13.34,34.892h0.006l15.418-15.403l9.366,9.357L22.694,44.294L13.34,34.892z
	 M49.018,70.581L28.453,50.01l15.43-15.455v0.017l20.595,20.581L49.018,70.581z M70.197,49.423L49.606,28.817l16.782-16.731
	L86.94,32.657L70.197,49.423z"/>
</svg>

