<?xml version="1.0" encoding="UTF-8" standalone="no"?>
<!-- Generator: Adobe Illustrator 16.0.0, SVG Export Plug-In . SVG Version: 6.00 Build 0)  -->

<svg
   xmlns:dc="http://purl.org/dc/elements/1.1/"
   xmlns:cc="http://creativecommons.org/ns#"
   xmlns:rdf="http://www.w3.org/1999/02/22-rdf-syntax-ns#"
   xmlns:svg="http://www.w3.org/2000/svg"
   xmlns="http://www.w3.org/2000/svg"
   xmlns:sodipodi="http://sodipodi.sourceforge.net/DTD/sodipodi-0.dtd"
   xmlns:inkscape="http://www.inkscape.org/namespaces/inkscape"
   version="1.1"
   id="Ebene_2"
   x="0px"
   y="0px"
   width="16"
   height="16"
   viewBox="0 0 5.125 5.125"
   xml:space="preserve"
   inkscape:version="0.48.4 r9939"
   sodipodi:docname="facebook.svg"><metadata
   id="metadata9"><rdf:RDF><cc:Work
       rdf:about=""><dc:format>image/svg+xml</dc:format><dc:type
         rdf:resource="http://purl.org/dc/dcmitype/StillImage" /></cc:Work></rdf:RDF></metadata><defs
   id="defs7" /><sodipodi:namedview
   pagecolor="#ffffff"
   bordercolor="#666666"
   borderopacity="1"
   objecttolerance="10"
   gridtolerance="10"
   guidetolerance="10"
   inkscape:pageopacity="0"
   inkscape:pageshadow="2"
   inkscape:window-width="1566"
   inkscape:window-height="880"
   id="namedview5"
   showgrid="false"
   fit-margin-top="0"
   fit-margin-left="0"
   fit-margin-right="0"
   fit-margin-bottom="0"
   inkscape:zoom="1.84375"
   inkscape:cx="65.627119"
   inkscape:cy="64"
   inkscape:window-x="32"
   inkscape:window-y="-3"
   inkscape:window-maximized="1"
   inkscape:current-layer="Ebene_2" />
<path
   d="M 4.832125,0 H 0.292875 C 0.131875,0 0,0.131875 0,0.292875 v 4.53925 C 0,4.993125 0.131875,5.125 0.292875,5.125 h 4.53925 C 4.993125,5.125 5.125,4.993125 5.125,4.832125 V 0.292875 C 5.125,0.131875 4.993125,0 4.832125,0 z M 4.35,2.874875 H 3.645875 V 4.759 H 2.928625 V 2.874875 H 2.430375 V 2.1965 h 0.49825 c 0,0 0,-0.278 0,-0.579375 0,-0.455375 0.29425,-0.873375 0.972375,-0.873375 0.2745,0 0.477625,0.02625 0.477625,0.02625 L 4.3625,1.403375 c 0,0 -0.207125,-0.002 -0.433,-0.002 -0.244625,0 -0.28375,0.112625 -0.28375,0.29975 0,0.02313 0,0.03125 0,0.03175 0,0.05237 0,0.17975 0,0.4635 H 4.381875 L 4.35,2.874875 z"
   id="path3"
   inkscape:connector-curvature="0"
   style="fill:#b9c7c7" />
</svg>