<?xml version="1.0" encoding="UTF-8" standalone="no"?>
<!-- Generator: Adobe Illustrator 16.0.0, SVG Export Plug-In . SVG Version: 6.00 Build 0)  -->

<svg
   xmlns:dc="http://purl.org/dc/elements/1.1/"
   xmlns:cc="http://creativecommons.org/ns#"
   xmlns:rdf="http://www.w3.org/1999/02/22-rdf-syntax-ns#"
   xmlns:svg="http://www.w3.org/2000/svg"
   xmlns="http://www.w3.org/2000/svg"
   xmlns:sodipodi="http://sodipodi.sourceforge.net/DTD/sodipodi-0.dtd"
   xmlns:inkscape="http://www.inkscape.org/namespaces/inkscape"
   version="1.1"
   id="Ebene_2"
   x="0px"
   y="0px"
   width="97.694695"
   height="20"
   viewBox="0 0 97.694694 20.000001"
   enable-background="new 0 0 191.804 39.267"
   xml:space="preserve"
   inkscape:version="0.48.4 r9939"
   sodipodi:docname="fwdio.svg"><metadata
   id="metadata93"><rdf:RDF><cc:Work
       rdf:about=""><dc:format>image/svg+xml</dc:format><dc:type
         rdf:resource="http://purl.org/dc/dcmitype/StillImage" /></cc:Work></rdf:RDF></metadata><defs
   id="defs91" /><sodipodi:namedview
   pagecolor="#ffffff"
   bordercolor="#666666"
   borderopacity="1"
   objecttolerance="10"
   gridtolerance="10"
   guidetolerance="10"
   inkscape:pageopacity="0"
   inkscape:pageshadow="2"
   inkscape:window-width="1920"
   inkscape:window-height="1060"
   id="namedview89"
   showgrid="false"
   inkscape:zoom="1.6579425"
   inkscape:cx="31.364172"
   inkscape:cy="-28.62008"
   inkscape:window-x="1598"
   inkscape:window-y="-3"
   inkscape:window-maximized="1"
   inkscape:current-layer="Ebene_2"
   fit-margin-top="0"
   fit-margin-left="0"
   fit-margin-right="0"
   fit-margin-bottom="0" />
<g
   id="g3"
   style="fill:#ffffff"
   transform="matrix(0.50934653,0,0,0.50934653,-4.6011078e-6,0)">
	<path
   d="M 0,1.582 C 0,1.036 0.436,0.545 1.036,0.545 h 22.578 c 0.601,0 1.036,0.491 1.036,1.037 v 5.943 c 0,0.547 -0.436,1.037 -1.036,1.037 H 8.508 v 7.853 h 12.434 c 0.545,0 1.036,0.491 1.036,1.036 v 5.944 c 0,0.546 -0.491,1.037 -1.036,1.037 H 8.508 v 13.253 c 0,0.544 -0.491,1.036 -1.036,1.036 H 1.036 C 0.436,38.722 0,38.229 0,37.686 V 1.582 z"
   id="path5"
   style="fill:#ffffff"
   inkscape:connector-curvature="0" />
</g>
<path
   d="m 15.964953,0.805786 c 0,-0.278103 0.249579,-0.528192 0.527683,-0.528192 h 3.333163 c 0.277594,0 0.527683,0.250089 0.527683,0.528192 v 18.389447 c 0,0.277085 -0.250089,0.527683 -0.527683,0.527683 h -3.333163 c -0.278104,0 -0.527683,-0.250598 -0.527683,-0.527683 V 0.805786 z"
   id="path7"
   style="fill:#ffffff"
   inkscape:connector-curvature="0" />
<g
   id="g9"
   transform="matrix(0.50934653,0,0,0.50934653,-4.6011078e-6,0)">
	<linearGradient
   id="SVGID_1_"
   gradientUnits="userSpaceOnUse"
   x1="31.6045"
   y1="19.633801"
   x2="58.796902"
   y2="19.633801">
		<stop
   offset="0"
   style="stop-color:#F7924D"
   id="stop12" />
		<stop
   offset="0.0824"
   style="stop-color:#F78F47"
   id="stop14" />
		<stop
   offset="0.6826"
   style="stop-color:#F57B22"
   id="stop16" />
		<stop
   offset="1"
   style="stop-color:#F57414"
   id="stop18" />
	</linearGradient>
	<path
   d="m 57.003,0.545 h -5.345 c -0.77,0 -1.506,0.542 -1.71,1.258 L 31.686,36.392 c -0.169,0.59 -0.07,1.186 0.268,1.636 0.333,0.44 0.858,0.694 1.441,0.694 h 5.399 c 0.745,0 1.244,-0.338 1.71,-1.26 L 58.712,2.874 C 58.885,2.272 58.791,1.672 58.456,1.228 58.128,0.794 57.599,0.545 57.003,0.545 z"
   id="path20"
   style="fill:url(#SVGID_1_)"
   inkscape:connector-curvature="0" />
</g>
<path
   d="m 41.8367,0.805786 c 0,-0.278103 0.222075,-0.528192 0.500179,-0.528192 h 6.777874 c 5.360872,0 9.750421,4.361025 9.750421,9.694902 0,5.388886 -4.38904,9.75042 -9.750421,9.75042 h -6.777874 c -0.278613,0 -0.500179,-0.250598 -0.500179,-0.527683 V 0.805786 z m 6.99995,14.805176 c 3.138593,0 5.417409,-2.472368 5.417409,-5.638466 0,-3.139103 -2.278816,-5.611471 -5.417409,-5.611471 h -2.666429 v 11.249937 h 2.666429 z"
   id="path22"
   style="fill:#ffffff"
   inkscape:connector-curvature="0" />
<linearGradient
   id="SVGID_2_"
   gradientUnits="userSpaceOnUse"
   x1="124.2793"
   y1="26.5303"
   x2="124.2793"
   y2="35.435299"
   gradientTransform="matrix(0.50934653,0,0,0.50934653,-4.6011078e-6,0)">
	<stop
   offset="0"
   style="stop-color:#F7924D"
   id="stop25" />
	<stop
   offset="0.0824"
   style="stop-color:#F78F47"
   id="stop27" />
	<stop
   offset="0.6826"
   style="stop-color:#F57B22"
   id="stop29" />
	<stop
   offset="1"
   style="stop-color:#F57414"
   id="stop31" />
</linearGradient>
<path
   d="m 63.273058,14.722662 c 1.444507,0 2.666939,1.220903 2.666939,2.66541 0,1.417511 -1.222432,2.611929 -2.666939,2.611929 -1.415983,0 -2.610401,-1.194418 -2.610401,-2.611929 0,-1.443997 1.193909,-2.66541 2.610401,-2.66541 z"
   id="path33"
   style="fill:url(#SVGID_2_)"
   inkscape:connector-curvature="0" />
<path
   d="m 69.973003,0.805786 c 0,-0.278103 0.250089,-0.528192 0.527683,-0.528192 h 3.333673 c 0.277594,0 0.527683,0.250089 0.527683,0.528192 v 18.389447 c 0,0.277085 -0.250089,0.527683 -0.527683,0.527683 h -3.333673 c -0.277594,0 -0.527683,-0.250598 -0.527683,-0.527683 V 0.805786 z"
   id="path35"
   style="fill:#ffffff"
   inkscape:connector-curvature="0" />
<path
   d="m 87.694697,0 c 5.554933,0 10,4.472063 10,10.028015 0,5.555442 -4.445067,9.971986 -10,9.971986 -5.556462,0 -9.973006,-4.416544 -9.973006,-9.971986 C 77.721691,4.472063 82.138235,0 87.694697,0 z m 0,15.555443 c 3.05506,0 5.554933,-2.499873 5.554933,-5.527428 0,-3.05608 -2.499873,-5.584476 -5.554933,-5.584476 -3.028066,0 -5.528448,2.528396 -5.528448,5.584476 0,3.027555 2.500382,5.527428 5.528448,5.527428 z"
   id="path37"
   style="fill:#ffffff"
   inkscape:connector-curvature="0" />
<path
   d="m 25.60892,0.805786 c 0,-0.278103 0.250089,-0.528192 0.527683,-0.528192 h 3.333164 c 0.278103,0 0.527683,0.250089 0.527683,0.528192 v 18.389447 c 0,0.277085 -0.24958,0.527683 -0.527683,0.527683 h -3.333164 c -0.277594,0 -0.527683,-0.250598 -0.527683,-0.527683 V 0.805786 z"
   id="path39"
   style="fill:#ffffff"
   inkscape:connector-curvature="0" />
<g
   id="g41"
   transform="matrix(0.50934653,0,0,0.50934653,-4.6011078e-6,0)">
	<linearGradient
   id="SVGID_3_"
   gradientUnits="userSpaceOnUse"
   x1="50.540001"
   y1="19.633801"
   x2="77.732399"
   y2="19.633801">
		<stop
   offset="0"
   style="stop-color:#F7924D"
   id="stop44" />
		<stop
   offset="0.0824"
   style="stop-color:#F78F47"
   id="stop46" />
		<stop
   offset="0.6826"
   style="stop-color:#F57B22"
   id="stop48" />
		<stop
   offset="1"
   style="stop-color:#F57414"
   id="stop50" />
	</linearGradient>
	<path
   d="m 75.938,0.545 h -5.345 c -0.77,0 -1.504,0.542 -1.71,1.258 L 50.621,36.392 c -0.169,0.59 -0.071,1.186 0.267,1.636 0.333,0.44 0.858,0.694 1.442,0.694 h 5.398 c 0.745,0 1.245,-0.338 1.711,-1.26 L 77.648,2.874 C 77.819,2.272 77.726,1.672 77.39,1.228 77.062,0.794 76.533,0.545 75.938,0.545 z"
   id="path52"
   style="fill:url(#SVGID_3_)"
   inkscape:connector-curvature="0" />
</g>
<linearGradient
   id="SVGID_4_"
   gradientUnits="userSpaceOnUse"
   x1="50.278301"
   y1="19.633801"
   x2="77.732399"
   y2="19.633801"
   gradientTransform="matrix(0.50934653,0,0,0.50934653,-4.6011078e-6,0)">
	<stop
   offset="0"
   style="stop-color:#F7924D"
   id="stop55" />
	<stop
   offset="0.0824"
   style="stop-color:#F78F47"
   id="stop57" />
	<stop
   offset="0.6826"
   style="stop-color:#F57B22"
   id="stop59" />
	<stop
   offset="1"
   style="stop-color:#F57414"
   id="stop61" />
</linearGradient>
<path
   d="M 39.418832,0.625478 C 39.251767,0.404421 38.982322,0.277594 38.678752,0.277594 h -2.722457 c -0.392197,0 -0.766058,0.276066 -0.870983,0.640758 L 29.997959,10.55417 V 10.5231 l -4.38853,8.284012 v 0.388122 c 0,0.277085 0.250089,0.527683 0.527683,0.527683 h 0.517496 2.749453 0.06621 c 0.04482,0 0.08812,-0.0097 0.130393,-0.02088 0.275047,-0.05501 0.480823,-0.238374 0.674884,-0.620893 L 39.549729,1.463866 c 0.0871,-0.306627 0.04024,-0.612234 -0.130902,-0.838384 z"
   id="path63"
   style="fill:url(#SVGID_4_)"
   inkscape:connector-curvature="0" />
<linearGradient
   id="SVGID_5_"
   gradientUnits="userSpaceOnUse"
   x1="31.3438"
   y1="19.633801"
   x2="58.796902"
   y2="19.633801"
   gradientTransform="matrix(0.50934653,0,0,0.50934653,-4.6011078e-6,0)">
	<stop
   offset="0"
   style="stop-color:#F7924D"
   id="stop66" />
	<stop
   offset="0.0824"
   style="stop-color:#F78F47"
   id="stop68" />
	<stop
   offset="0.6826"
   style="stop-color:#F57B22"
   id="stop70" />
	<stop
   offset="1"
   style="stop-color:#F57414"
   id="stop72" />
</linearGradient>
<path
   d="M 29.774356,0.625478 C 29.60729,0.404421 29.337846,0.277594 29.034275,0.277594 h -2.722457 c -0.392197,0 -0.767076,0.276066 -0.870982,0.640758 L 20.353482,10.55417 V 10.5231 l -4.388529,8.284012 v 0.388122 c 0,0.277085 0.249579,0.527683 0.527683,0.527683 h 0.516986 2.749962 0.06622 c 0.04482,0 0.08812,-0.0097 0.130393,-0.02088 0.275047,-0.05501 0.480823,-0.238374 0.674375,-0.620893 L 29.904754,1.463866 c 0.08812,-0.306627 0.04024,-0.612234 -0.130393,-0.838384 z"
   id="path74"
   style="fill:url(#SVGID_5_)"
   inkscape:connector-curvature="0" />
<g
   id="g76"
   transform="matrix(0.50934653,0,0,0.50934653,-4.6011078e-6,0)">
	<linearGradient
   id="SVGID_6_"
   gradientUnits="userSpaceOnUse"
   x1="31.3438"
   y1="19.633801"
   x2="58.894501"
   y2="19.633801">
		<stop
   offset="0"
   style="stop-color:#F7924D"
   id="stop79" />
		<stop
   offset="0.0824"
   style="stop-color:#F78F47"
   id="stop81" />
		<stop
   offset="0.6826"
   style="stop-color:#F57B22"
   id="stop83" />
		<stop
   offset="1"
   style="stop-color:#F57414"
   id="stop85" />
	</linearGradient>
	<path
   d="M 46.364,26.331 58.894,2.449 V 1.582 c 0,-0.546 -0.49,-1.037 -1.036,-1.037 h -0.855 -5.345 -0.344 c -0.343,0 -0.664,0.194 -0.855,0.474 -0.238,0.213 -0.425,0.482 -0.511,0.784 L 39.96,20.721 V 20.66 l -8.616,16.264 v 0.762 c 0,0.544 0.49,1.036 1.036,1.036 h 1.015 5.399 0.13 c 0.088,0 0.173,-0.019 0.256,-0.041 0.54,-0.108 0.944,-0.468 1.324,-1.219 l 5.86,-11.131 0,0 z"
   id="path87"
   style="fill:url(#SVGID_6_)"
   inkscape:connector-curvature="0" />
</g>
</svg>