<?xml version="1.0" encoding="UTF-8" standalone="no"?>
<!-- Generator: Adobe Illustrator 16.0.0, SVG Export Plug-In . SVG Version: 6.00 Build 0)  -->

<svg
   xmlns:dc="http://purl.org/dc/elements/1.1/"
   xmlns:cc="http://creativecommons.org/ns#"
   xmlns:rdf="http://www.w3.org/1999/02/22-rdf-syntax-ns#"
   xmlns:svg="http://www.w3.org/2000/svg"
   xmlns="http://www.w3.org/2000/svg"
   xmlns:sodipodi="http://sodipodi.sourceforge.net/DTD/sodipodi-0.dtd"
   xmlns:inkscape="http://www.inkscape.org/namespaces/inkscape"
   version="1.1"
   id="Ebene_2"
   x="0px"
   y="0px"
   viewBox="0 0 36 38"
   enable-background="new 0 0 35.667 35.667"
   xml:space="preserve"
   inkscape:version="0.48.4 r9939"
   width="100%"
   height="100%"
   sodipodi:docname="ios.svg"><metadata
   id="metadata13"><rdf:RDF><cc:Work
       rdf:about=""><dc:format>image/svg+xml</dc:format><dc:type
         rdf:resource="http://purl.org/dc/dcmitype/StillImage" /></cc:Work></rdf:RDF></metadata><defs
   id="defs11" /><sodipodi:namedview
   pagecolor="#ffffff"
   bordercolor="#666666"
   borderopacity="1"
   objecttolerance="10"
   gridtolerance="10"
   guidetolerance="10"
   inkscape:pageopacity="0"
   inkscape:pageshadow="2"
   inkscape:window-width="1920"
   inkscape:window-height="1060"
   id="namedview9"
   showgrid="false"
   inkscape:zoom="22.627417"
   inkscape:cx="19.484235"
   inkscape:cy="19.663463"
   inkscape:window-x="1598"
   inkscape:window-y="-3"
   inkscape:window-maximized="1"
   inkscape:current-layer="Ebene_2" />
<g
   id="g3"
   transform="matrix(1.0093364,0,0,1.0093647,0,0.89899861)">
	<path
   d="m 15.964,14.114 c -1.765,0 -2.783,1.663 -2.783,3.886 0,2.257 1.052,3.835 2.783,3.835 1.748,0 2.75,-1.663 2.75,-3.886 -10e-4,-2.07 -0.968,-3.835 -2.75,-3.835 z"
   id="path5"
   inkscape:connector-curvature="0"
   style="fill:#bac6c6" />
	<path
   d="M 32.832,0 H 2.834 C 1.269,0 0,1.269 0,2.834 v 29.998 c 0,1.565 1.269,2.834 2.834,2.834 h 29.998 c 1.566,0 2.835,-1.269 2.835,-2.834 V 2.834 C 35.667,1.269 34.398,0 32.832,0 z M 8.817,23.702 h -2.58 v -8.298 h 2.58 v 8.298 z M 7.51,14.386 c -0.814,0 -1.34,-0.577 -1.34,-1.29 0,-0.729 0.543,-1.289 1.375,-1.289 0.831,0 1.34,0.56 1.357,1.289 0,0.713 -0.526,1.29 -1.392,1.29 z m 8.318,9.503 c -3.377,0 -5.379,-2.562 -5.379,-5.837 0,-3.428 2.206,-5.99 5.565,-5.99 3.513,0 5.431,2.63 5.431,5.803 0,3.766 -2.257,6.024 -5.617,6.024 z m 10.121,-0.017 c -1.307,0 -2.597,-0.356 -3.241,-0.713 l 0.526,-2.121 c 0.678,0.356 1.764,0.712 2.868,0.712 1.188,0 1.815,-0.492 1.815,-1.239 0,-0.712 -0.543,-1.12 -1.917,-1.595 -1.9,-0.679 -3.157,-1.73 -3.157,-3.394 0,-1.952 1.647,-3.428 4.327,-3.428 1.308,0 2.241,0.255 2.92,0.577 l -0.578,2.071 c -0.441,-0.22 -1.271,-0.543 -2.375,-0.543 -1.12,0 -1.663,0.526 -1.663,1.103 0,0.73 0.628,1.052 2.122,1.612 2.018,0.747 2.951,1.799 2.951,3.411 0,1.918 -1.459,3.547 -4.598,3.547 z"
   id="path7"
   inkscape:connector-curvature="0"
   style="fill:#bac6c6" />
</g>
</svg>