<?xml version="1.0" encoding="UTF-8" standalone="no"?>
<!-- Created with Inkscape (http://www.inkscape.org/) -->

<svg
   xmlns:dc="http://purl.org/dc/elements/1.1/"
   xmlns:cc="http://creativecommons.org/ns#"
   xmlns:rdf="http://www.w3.org/1999/02/22-rdf-syntax-ns#"
   xmlns:svg="http://www.w3.org/2000/svg"
   xmlns="http://www.w3.org/2000/svg"
   xmlns:inkscape="http://www.inkscape.org/namespaces/inkscape"
   version="1.1"
   width="268.23749"
   height="47.375"
   id="svg2"
   xml:space="preserve"><metadata
     id="metadata8"><rdf:RDF><cc:Work
         rdf:about=""><dc:format>image/svg+xml</dc:format><dc:type
           rdf:resource="http://purl.org/dc/dcmitype/StillImage" /></cc:Work></rdf:RDF></metadata><defs
     id="defs6"><clipPath
       id="clipPath18"><path
         d="M 0,378.992 0,0 l 2145.9,0 0,378.992 -2145.9,0 z"
         inkscape:connector-curvature="0"
         id="path20" /></clipPath></defs><g
     transform="matrix(1.25,0,0,-1.25,0,47.375)"
     id="g10"><g
       transform="scale(0.1,0.1)"
       id="g12"><g
         id="g14"><g
           clip-path="url(#clipPath18)"
           id="g16"><path
             d="m 603.719,160.684 48.39,0 -24.179,71.504 -24.211,-71.504"
             inkscape:connector-curvature="0"
             id="path22"
             style="fill:#2c5c80;fill-opacity:1;fill-rule:nonzero;stroke:none" /><path
             d="m 1968.23,262.664 c -42.7,0 -69.71,-32.773 -69.71,-77.195 0,-44.141 27.01,-77.188 69.71,-77.188 42.47,0 69.8,33.047 69.8,77.188 0,44.422 -27.33,77.195 -69.8,77.195"
             inkscape:connector-curvature="0"
             id="path24"
             style="fill:#2c5c80;fill-opacity:1;fill-rule:nonzero;stroke:none" /><path
             d="m 196.488,270.73 c -4.554,0 -8.261,-3.71 -8.261,-8.261 0,-4.547 3.707,-8.258 8.261,-8.258 4.559,0 8.262,3.711 8.262,8.258 0,4.551 -3.703,8.261 -8.262,8.261"
             inkscape:connector-curvature="0"
             id="path26"
             style="fill:#2c5c80;fill-opacity:1;fill-rule:nonzero;stroke:none" /><path
             d="m 1968.23,87.2266 c -56.37,0 -94.24,42.1174 -94.24,98.2424 0,56.101 37.87,98.25 94.24,98.25 56.1,0 94.32,-42.149 94.32,-98.25 0,-56.125 -38.22,-98.2424 -94.32,-98.2424 z m -189.1,0 c -54.69,0 -97.67,39.8634 -97.67,98.2424 0,58.386 42.98,98.25 97.67,98.25 33.63,0 56.98,-16.231 72.05,-37.598 l -19.93,-11.094 c -10.82,15.957 -30.48,27.637 -52.12,27.637 -41.57,0 -73.14,-31.883 -73.14,-77.195 0,-44.992 31.57,-77.188 73.14,-77.188 21.64,0 41.3,11.407 52.12,27.637 l 20.2,-11.121 c -15.91,-21.613 -38.69,-37.5704 -72.32,-37.5704 z m -169.62,3.3867 -42.84,0 63.66,189.9917 42.84,0 -63.66,-189.9917 z m -77.29,0 -49.01,0 0,76.3667 -78.89,0 0,-76.3667 -49.01,0 0,189.9607 49.01,0 0,-70.886 78.89,0 0,70.886 49.01,0 0,-189.9607 z m -280.81,39.8947 c 18.22,0 34.41,12.539 40.68,27.605 l 42.16,-19.929 c -12.23,-24.493 -37.02,-50.9574 -82.84,-50.9574 -58.42,0 -102.85,39.8634 -102.85,98.2424 0,58.672 44.43,98.25 102.85,98.25 45.82,0 70.34,-25.918 82.84,-50.985 l -42.16,-19.902 c -6.27,15.066 -22.46,27.566 -40.68,27.566 -31.06,0 -53.01,-23.894 -53.01,-54.929 0,-31.028 21.95,-54.961 53.01,-54.961 z m -127.36,-39.8947 -47.26,0 -80.306,109.9607 0,-109.9607 -48.972,0 0,189.9607 50.41,0 76.838,-104.48 0,104.48 49.29,0 0,-189.9607 z M 913.34,167.801 c 0,-47.254 -28.836,-80.5744 -89.492,-80.5744 -61.192,0 -89.961,33.5934 -89.961,80.3004 l 0,113.047 49.793,0 0,-111.336 c 0,-22.5 13.429,-38.73 40.168,-38.73 26.242,0 39.902,16.23 39.902,38.73 l 0,111.336 49.59,0 0,-112.773 z m -238.418,-77.1877 -9.387,27.3637 -74.93,0 -9.386,-27.3637 -55.543,0 71.512,189.9607 61.503,0 71.778,-189.9607 -55.547,0 z m -154.348,0 -125.34,0 0,189.9607 49.004,0 0,-147.187 76.336,0 0,-42.7737 z m -225.48,37.8247 -9.395,14.816 c -11.734,-38.363 -47.062,-65.4415 -88.797,-65.4415 -41.41,0 -76.496,26.6795 -88.5,64.5785 l -8.8473,-13.953 -21.9609,13.925 32.0582,50.567 52.633,-28.606 -12.422,-22.851 -16.812,9.14 c 7.238,-23.23 26.519,-40.652 50.441,-45.449 l 0,125.645 c -12.457,5.129 -21.262,17.375 -21.262,31.66 0,18.886 15.368,34.258 34.258,34.258 18.895,0 34.258,-15.372 34.258,-34.258 0,-14.285 -8.805,-26.531 -21.258,-31.66 l 0,-125.829 c 24.11,4.524 43.617,21.856 51.078,45.079 l -15.781,-8.586 -12.422,22.851 52.633,28.606 32.059,-50.567 -21.961,-13.925 z M 0,378.992 0,0 l 2145.9,0 0,378.992 -2145.9,0"
             inkscape:connector-curvature="0"
             id="path28"
             style="fill:#2c5c80;fill-opacity:1;fill-rule:nonzero;stroke:none" /></g></g></g></g></svg>