<?xml version="1.0" encoding="UTF-8" standalone="no"?>
<!-- Generator: Adobe Illustrator 16.0.0, SVG Export Plug-In . SVG Version: 6.00 Build 0)  -->

<svg
   xmlns:dc="http://purl.org/dc/elements/1.1/"
   xmlns:cc="http://creativecommons.org/ns#"
   xmlns:rdf="http://www.w3.org/1999/02/22-rdf-syntax-ns#"
   xmlns:svg="http://www.w3.org/2000/svg"
   xmlns="http://www.w3.org/2000/svg"
   xmlns:sodipodi="http://sodipodi.sourceforge.net/DTD/sodipodi-0.dtd"
   xmlns:inkscape="http://www.inkscape.org/namespaces/inkscape"
   version="1.1"
   id="Ebene_2"
   x="0px"
   y="0px"
   width="22"
   height="16"
   viewBox="0 0 22 15.999999"
   enable-background="new 0 0 26.708 19.282"
   xml:space="preserve"
   inkscape:version="0.48.4 r9939"
   sodipodi:docname="mail.svg"><metadata
   id="metadata9"><rdf:RDF><cc:Work
       rdf:about=""><dc:format>image/svg+xml</dc:format><dc:type
         rdf:resource="http://purl.org/dc/dcmitype/StillImage" /></cc:Work></rdf:RDF></metadata><defs
   id="defs7" /><sodipodi:namedview
   pagecolor="#ffffff"
   bordercolor="#666666"
   borderopacity="1"
   objecttolerance="10"
   gridtolerance="10"
   guidetolerance="10"
   inkscape:pageopacity="0"
   inkscape:pageshadow="2"
   inkscape:window-width="1462"
   inkscape:window-height="689"
   id="namedview5"
   showgrid="false"
   fit-margin-top="0"
   fit-margin-left="0"
   fit-margin-right="0"
   fit-margin-bottom="0"
   inkscape:zoom="24.478789"
   inkscape:cx="21.155986"
   inkscape:cy="10.591396"
   inkscape:window-x="2054"
   inkscape:window-y="0"
   inkscape:window-maximized="0"
   inkscape:current-layer="Ebene_2" />
<path
   d="M 19.50979,-7.9659723e-7 H 2.4910321 C 1.1170105,-7.9659723e-7 0,1.1252521 0,2.5094128 V 13.490585 c 0,1.384161 1.1170105,2.509414 2.4910321,2.509414 H 19.508967 C 20.882988,15.999999 22,14.874746 22,13.490585 V 2.5094128 C 22.000823,1.1252521 20.883813,-7.9659723e-7 19.50979,-7.9659723e-7 z M 20.811322,3.3492033 11.587748,10.420206 c -0.210881,0.160986 -0.462126,0.24231 -0.712547,0.24231 -0.261953,0 -0.523083,-0.08713 -0.738084,-0.262227 L 1.4234469,3.3292873 C 0.91683823,2.9185201 0.8369341,2.1716709 1.2446924,1.6613238 1.6524507,1.1509769 2.3930054,1.0704831 2.8996142,1.4820801 l 7.9961798,6.4884605 8.490434,-6.5092063 c 0.516494,-0.39666 1.255401,-0.2962502 1.649154,0.2257144 0.393755,0.5219647 0.293257,1.2654946 -0.22406,1.6621546 z"
   id="path3"
   inkscape:connector-curvature="0"
   style="fill:#b9c7c7" />
</svg>