<?xml version="1.0" encoding="UTF-8" standalone="no"?>
<!-- Created with Inkscape (http://www.inkscape.org/) -->

<svg
   xmlns:dc="http://purl.org/dc/elements/1.1/"
   xmlns:cc="http://creativecommons.org/ns#"
   xmlns:rdf="http://www.w3.org/1999/02/22-rdf-syntax-ns#"
   xmlns:svg="http://www.w3.org/2000/svg"
   xmlns="http://www.w3.org/2000/svg"
   xmlns:sodipodi="http://sodipodi.sourceforge.net/DTD/sodipodi-0.dtd"
   xmlns:inkscape="http://www.inkscape.org/namespaces/inkscape"
   version="1.0"
   width="320"
   height="80"
   enable-background="new 0 0 160 40"
   viewBox="0 0 320 80"
   id="svg2458"
   inkscape:version="0.48.4 r9939"
   sodipodi:docname="nokia.svg">
  <metadata
     id="metadata3077">
    <rdf:RDF>
      <cc:Work
         rdf:about="">
        <dc:format>image/svg+xml</dc:format>
        <dc:type
           rdf:resource="http://purl.org/dc/dcmitype/StillImage" />
      </cc:Work>
    </rdf:RDF>
  </metadata>
  <sodipodi:namedview
     pagecolor="#ffffff"
     bordercolor="#666666"
     borderopacity="1"
     objecttolerance="10"
     gridtolerance="10"
     guidetolerance="10"
     inkscape:pageopacity="0"
     inkscape:pageshadow="2"
     inkscape:window-width="1600"
     inkscape:window-height="877"
     id="namedview3075"
     showgrid="false"
     fit-margin-top="0"
     fit-margin-left="0"
     fit-margin-right="0"
     fit-margin-bottom="0"
     inkscape:zoom="1.218627"
     inkscape:cx="288.97288"
     inkscape:cy="24.72024"
     inkscape:window-x="0"
     inkscape:window-y="23"
     inkscape:window-maximized="1"
     inkscape:current-layer="layer1" />
  <defs
     id="defs2460" />
  <g
     transform="translate(-20.688857,-319.60201)"
     id="layer1">
    <polygon
       points="137.613,120.698 137.613,209.987 91.97,209.987 37.648,142.959 37.304,142.155 37.304,209.987 37.304,209.987 37.304,209.987 10.854,209.987 10.854,120.698 56.779,120.698 110.703,187.271 111.161,188.415 111.161,120.698 "
       transform="matrix(0.55979775,0,0,0.55979775,19.352682,259.51111)"
       id="polygon7"
       style="fill:#0095d9;fill-rule:evenodd" />
    <polygon
       points="305.965,209.965 277.91,209.965 277.91,120.766 305.965,120.766 305.965,120.766 305.965,120.766 "
       transform="matrix(0.55979775,0,0,0.55979775,19.352682,259.51111)"
       id="polygon9"
       style="fill:#0095d9;fill-rule:evenodd" />
    <polygon
       points="391.271,120.766 339.858,164.161 397.913,209.965 357.264,209.965 305.965,164.161 354.058,120.766 354.058,120.766 354.058,120.766 "
       transform="matrix(0.55979775,0,0,0.55979775,19.352682,259.51111)"
       id="polygon11"
       style="fill:#0095d9;fill-rule:evenodd" />
    <polygon
       points="431.118,209.965 403.065,209.965 403.065,120.698 431.118,120.698 431.118,120.698 431.118,120.698 "
       transform="matrix(0.55979775,0,0,0.55979775,19.352682,259.51111)"
       id="polygon13"
       style="fill:#0095d9;fill-rule:evenodd" />
    <path
       d="m 285.66471,368.46006 -4.68047,8.58898 -17.43546,0 27.62769,-49.93339 20.1292,0 27.3702,49.93339 -17.43545,0 -4.61554,-8.58898 -30.96017,0 0,0 0,0 z m 5.7049,-10.83432 19.48655,0 -9.74215,-18.13857 -9.7444,18.13857 0,0 0,0 z"
       id="path45"
       style="fill:#0095d9;fill-rule:evenodd"
       inkscape:connector-curvature="0" />
    <path
       d="m 102.55934,339.69206 c 0,-3.78311 0.64154,-6.40969 3.3336,-8.84648 4.42296,-4.42297 9.67946,-4.42297 29.80643,-4.42297 20.12808,0 25.19202,0 29.61498,4.42297 2.69207,2.43679 3.33248,5.06337 3.33248,8.84648 l 0,0 0,7.3076 0,0 c 0,0 0,9.93473 0,17.24288 0,3.71762 -0.64098,6.60226 -3.33248,9.0385 -4.42296,4.16546 -9.67947,4.42073 -29.80755,4.42073 -20.12753,0 -25.1909,-0.25527 -29.61386,-4.42073 -2.69206,-2.4368 -3.3336,-5.32144 -3.3336,-9.0385 l 0,0 0,-24.55048 0,0 0,0 z m 14.16624,22.56376 c 0,2.1793 1.0905,2.81971 4.61609,2.81971 3.52562,0 28.5245,0 28.5245,0 3.52505,0 4.87079,-1.28362 4.87079,-2.81971 l 0,0 0,-5.76928 0,-14.6152 0,0 c 0,-2.43735 -1.15317,-3.07719 -4.67934,-3.07719 -3.52504,0 -28.71595,0 -28.71595,0 -3.52504,0 -4.61609,1.34574 -4.61609,3.07719 l 0,0 0,20.38448 0,0 0,0 z"
       id="path47"
       style="fill:#0095d9;fill-rule:evenodd"
       inkscape:connector-curvature="0" />
  </g>
</svg>
