<?xml version="1.0" encoding="UTF-8" standalone="no"?>
<!-- Generator: Adobe Illustrator 16.0.0, SVG Export Plug-In . SVG Version: 6.00 Build 0)  -->

<svg
   xmlns:dc="http://purl.org/dc/elements/1.1/"
   xmlns:cc="http://creativecommons.org/ns#"
   xmlns:rdf="http://www.w3.org/1999/02/22-rdf-syntax-ns#"
   xmlns:svg="http://www.w3.org/2000/svg"
   xmlns="http://www.w3.org/2000/svg"
   xmlns:sodipodi="http://sodipodi.sourceforge.net/DTD/sodipodi-0.dtd"
   xmlns:inkscape="http://www.inkscape.org/namespaces/inkscape"
   version="1.1"
   id="Ebene_2"
   x="0px"
   y="0px"
   width="16"
   height="16"
   viewBox="0 0 16 16"
   enable-background="new 0 0 39.113 31.786"
   xml:space="preserve"
   inkscape:version="0.48.4 r9939"
   sodipodi:docname="twitter.svg"><metadata
   id="metadata9"><rdf:RDF><cc:Work
       rdf:about=""><dc:format>image/svg+xml</dc:format><dc:type
         rdf:resource="http://purl.org/dc/dcmitype/StillImage" /></cc:Work></rdf:RDF></metadata><defs
   id="defs7" /><sodipodi:namedview
   pagecolor="#ffffff"
   bordercolor="#666666"
   borderopacity="1"
   objecttolerance="10"
   gridtolerance="10"
   guidetolerance="10"
   inkscape:pageopacity="0"
   inkscape:pageshadow="2"
   inkscape:window-width="1920"
   inkscape:window-height="1060"
   id="namedview5"
   showgrid="false"
   fit-margin-top="0"
   fit-margin-left="0"
   fit-margin-right="0"
   fit-margin-bottom="0"
   inkscape:zoom="7.4246525"
   inkscape:cx="20.364618"
   inkscape:cy="15.893"
   inkscape:window-x="1598"
   inkscape:window-y="-3"
   inkscape:window-maximized="1"
   inkscape:current-layer="Ebene_2" />
<path
   d="m 16,3.1365988 c -0.588653,0.260987 -1.221486,0.437297 -1.885409,0.517066 0.677422,-0.406208 1.198579,-1.049677 1.443203,-1.815867 -0.634469,0.375936 -1.337253,0.649196 -2.084626,0.796461 -0.598471,-0.638151 -1.451794,-1.036995 -2.39593,-1.036995 -1.8125943,0 -3.282387,1.469793 -3.282387,3.282387 0,0.257306 0.028635,0.507657 0.085087,0.748191 -2.7280956,-0.137039 -5.1469334,-1.443612 -6.766037,-3.429652 -0.28225912,0.484749 -0.44425131,1.048449 -0.44425131,1.650193 0,1.138854 0.57924481,2.143533 1.46038401,2.732186 -0.5383376,-0.01718 -1.0443586,-0.164856 -1.48697363,-0.410708 -8.1814e-4,0.01391 -8.1814e-4,0.02782 -8.1814e-4,0.04132 0,1.590468 1.13189987,2.9170862 2.63360017,3.2185722 -0.275714,0.07527 -0.5657454,0.115358 -0.8643674,0.115358 -0.2118989,0 -0.4176616,-0.02045 -0.6176974,-0.05891 0.4176616,1.304119 1.6297395,2.253164 3.0659883,2.279754 C 3.736456,12.646276 2.3210698,13.171114 0.78296221,13.171114 0.51829316,13.171114 0.25689669,13.15557 0,13.125298 1.4526117,14.056753 3.1784829,14.6 5.0319844,14.6 c 6.0378906,0 9.3395036,-5.002122 9.3395036,-9.3399132 0,-0.142357 -0.0033,-0.283895 -0.0094,-0.424616 C 15.003503,4.3728118 15.55984,3.7947938 16,3.1365988 z"
   id="path3"
   inkscape:connector-curvature="0"
   style="fill:#b9c7c7" />
</svg>