<?xml version="1.0" encoding="UTF-8" standalone="no"?>
<!-- Created with Inkscape (http://www.inkscape.org/) -->

<svg
   xmlns:dc="http://purl.org/dc/elements/1.1/"
   xmlns:cc="http://creativecommons.org/ns#"
   xmlns:rdf="http://www.w3.org/1999/02/22-rdf-syntax-ns#"
   xmlns:svg="http://www.w3.org/2000/svg"
   xmlns="http://www.w3.org/2000/svg"
   xmlns:sodipodi="http://sodipodi.sourceforge.net/DTD/sodipodi-0.dtd"
   xmlns:inkscape="http://www.inkscape.org/namespaces/inkscape"
   version="1.1"
   width="36"
   height="38"
   viewBox="0 0 28.8 30.4"
   id="svg2"
   inkscape:version="0.48.4 r9939"
   sodipodi:docname="wo.svg">
  <metadata
     id="metadata5425">
    <rdf:RDF>
      <cc:Work
         rdf:about="">
        <dc:format>image/svg+xml</dc:format>
        <dc:type
           rdf:resource="http://purl.org/dc/dcmitype/StillImage" />
        <dc:title></dc:title>
      </cc:Work>
    </rdf:RDF>
  </metadata>
  <sodipodi:namedview
     pagecolor="#ffffff"
     bordercolor="#666666"
     borderopacity="1"
     objecttolerance="10"
     gridtolerance="10"
     guidetolerance="10"
     inkscape:pageopacity="0"
     inkscape:pageshadow="2"
     inkscape:window-width="1600"
     inkscape:window-height="900"
     id="namedview5423"
     showgrid="false"
     inkscape:zoom="9.1200581"
     inkscape:cx="50.6091"
     inkscape:cy="16.453058"
     inkscape:window-x="0"
     inkscape:window-y="0"
     inkscape:window-maximized="1"
     inkscape:current-layer="svg2" />
  <defs
     id="defs36" />
  <path
     d="m 19.272961,12.510015 c 0.0023,1.274317 0.0016,2.54931 0.0011,3.823628 0.123293,0 0.247484,-4.5e-4 0.371227,0 -0.0035,-0.15569 -0.0072,-0.311155 -0.0045,-0.466846 0.118792,0.132292 0.222511,0.285282 0.381351,0.373477 0.393274,0.236685 0.933689,0.162664 1.259918,-0.156366 0.46437,-0.431971 0.504642,-1.221671 0.113613,-1.714389 -0.276731,-0.363575 -0.800047,-0.511841 -1.226171,-0.345352 -0.224534,0.07918 -0.389674,0.260307 -0.515216,0.455596 -0.0216,-0.656059 -0.0041,-1.313691 -0.009,-1.969748 -0.124191,-4.5e-4 -0.248608,-4.5e-4 -0.372351,0 z m 1.169924,1.795384 c 0.242579,-0.0034 0.489371,0.09244 0.636708,0.29023 0.260984,0.354127 0.241186,0.899718 -0.06526,1.220547 -0.345577,0.352327 -1.01761,0.268183 -1.252043,-0.17099 -0.283933,-0.469769 -0.06704,-1.220995 0.515216,-1.321789 0.05425,-0.01139 0.109387,-0.0172 0.165364,-0.018 z"
     id="path6"
     style="fill:#bac6c6;fill-opacity:1"
     inkscape:connector-curvature="0" />
  <path
     d="m 24.14952,12.466143 c -0.124521,1.7e-4 -0.248832,0.01147 -0.371225,0.0315 -0.549414,0.09854 -1.052483,0.44592 -1.320665,0.938188 -0.431973,0.7816 -0.294282,1.860857 0.386975,2.457967 0.47652,0.424772 1.166775,0.581138 1.784134,0.430847 0.505767,-0.112941 0.959563,-0.443446 1.216047,-0.894317 0.250184,-0.435122 0.310705,-0.964062 0.212612,-1.452282 -0.09944,-0.498566 -0.406999,-0.954385 -0.842572,-1.219419 -0.317566,-0.200461 -0.691737,-0.292988 -1.065306,-0.29248 z m -0.04837,0.205862 c 0.439729,-0.01401 0.887062,0.136509 1.212672,0.435346 0.565165,0.512517 0.706456,1.399409 0.391476,2.083365 -0.159291,0.358177 -0.451996,0.656507 -0.808823,0.818948 -0.533665,0.248833 -1.194674,0.210136 -1.687391,-0.114742 -0.667757,-0.426573 -0.92064,-1.331015 -0.670457,-2.065368 0.188988,-0.60296 0.745601,-1.069131 1.374663,-1.140675 0.06216,-0.0088 0.125042,-0.01487 0.18786,-0.01687 z"
     id="path8"
     style="fill:#bac6c6;fill-opacity:1"
     inkscape:connector-curvature="0" />
  <path
     d="m 26.724254,12.886865 c 0.250634,-0.423872 0.836947,-0.511617 1.265768,-0.337478 0.219586,0.08504 0.385175,0.260534 0.517016,0.449972 -0.05355,0.04005 -0.107541,0.0801 -0.160639,0.120141 -0.121041,-0.183588 -0.280331,-0.357277 -0.498117,-0.421622 -0.243436,-0.0711 -0.526016,-0.0666 -0.747853,0.06704 -0.372575,0.231735 -0.371225,0.844594 -0.0252,1.100177 0.431073,0.32668 1.006587,0.419823 1.392662,0.813548 0.262781,0.257833 0.339726,0.661009 0.243883,1.009285 -0.07874,0.275832 -0.301931,0.495868 -0.567413,0.59756 -0.369876,0.141742 -0.795098,0.121494 -1.156425,-0.0369 -0.278533,-0.122392 -0.488219,-0.360427 -0.62996,-0.624109 0.06074,-0.0306 0.121943,-0.0612 0.183138,-0.09179 0.14219,0.263234 0.359527,0.500819 0.652458,0.592163 0.367176,0.113398 0.811747,0.09224 1.111878,-0.17144 0.336579,-0.29788 0.307331,-0.885542 -0.02834,-1.172624 -0.408582,-0.36267 -0.989045,-0.445014 -1.394469,-0.812191 -0.296981,-0.264132 -0.353677,-0.742001 -0.15839,-1.08173 z"
     id="path10"
     style="fill:#bac6c6;fill-opacity:1"
     inkscape:connector-curvature="0" />
  <path
     d="m 5.6732662,13.083503 c 0.1664885,-4.51e-4 0.3334276,-4.51e-4 0.5003676,0 0,1.06418 0,2.128812 -4.507e-4,3.193444 -0.1664893,0 -0.3334284,0 -0.4999169,0 0,-1.064632 0,-2.129264 0,-3.193444 z"
     id="path14"
     style="fill:#bac6c6;fill-opacity:1"
     inkscape:connector-curvature="0" />
  <path
     d="m 0.76790737,13.96342 c -0.24270345,2.25e-4 -0.48619352,0.0013 -0.72895265,0.0011 -4.4965e-4,1.115478 0,2.230057 0,3.345535 l 0.48034373,0 c 4.5044e-4,-0.344227 -0.002074,-0.688456 0.001134,-1.032683 0.34017729,-0.0041 0.68125554,0.0031 1.02143384,-0.0023 0.4211728,-0.02115 0.7804746,-0.389675 0.799823,-0.809948 -4.499e-4,-0.27135 0.025197,-0.547632 -0.018001,-0.816715 -0.070199,-0.383825 -0.4337724,-0.695205 -0.827947,-0.683956 -0.2425343,-0.0016 -0.4851254,-0.0013 -0.72782789,-0.0011 z m 0.23735983,0.493844 c 0.1619336,-1.7e-4 0.3230795,0.0018 0.484844,0.0045 0.1835882,-0.0053 0.3419782,0.150741 0.3532273,0.330729 0.00671,0.210136 0.00378,0.420947 0.00114,0.631085 -0.00313,0.183588 -0.161314,0.353226 -0.3476023,0.353226 -0.3253281,0.0031 -0.65043241,0.0011 -0.97531197,-0.0011 -0.004067,-0.437372 -4.4954e-4,-0.874295 -0.002267,-1.311666 0.16199017,-0.0042 0.32403512,-0.0066 0.48596879,-0.0068 z"
     id="path16"
     style="fill:#bac6c6;fill-opacity:1"
     inkscape:connector-curvature="0" />
  <path
     d="m 3.8963302,13.96342 c -0.1251407,4.02e-4 -0.249508,0.0018 -0.3746006,0.0034 -0.4513206,0.0031 -0.8274965,0.426572 -0.8144474,0.870693 0.011701,0.257833 -0.025424,0.519716 0.025868,0.773951 0.081447,0.377524 0.4445709,0.667531 0.8301966,0.664831 0.486868,0 0.9732862,0 1.460155,0 4.505e-4,-0.77035 4.505e-4,-1.540926 0,-2.311725 -0.375613,0.001 -0.7517538,-0.0024 -1.1271769,-0.0011 z m 0.1496155,0.493844 c 0.1604716,3.37e-4 0.3219547,0.0028 0.4825943,0.0045 -4.504e-4,0.438721 0.00227,0.877443 -0.00227,1.316166 -0.3226279,-4.5e-4 -0.6448075,0.0021 -0.9674364,-0.0011 -0.1862883,9.05e-4 -0.3518777,-0.167838 -0.3509777,-0.353226 -0.00313,-0.197088 -9.058e-4,-0.394624 0,-0.591712 -0.00812,-0.193938 0.1588396,-0.378651 0.3577266,-0.370102 0.1604148,-0.0031 0.3198731,-0.0048 0.4803447,-0.0045 z"
     id="path18"
     style="fill:#bac6c6;fill-opacity:1"
     inkscape:connector-curvature="0" />
  <path
     d="m 6.8170925,14.769545 c 0.017547,-0.415324 0.3784245,-0.795101 0.7995974,-0.8005 0.2087873,-0.0053 0.4180232,-0.0099 0.62636,0.0045 0.1871883,0.01169 0.3446774,0.122842 0.4900184,0.230835 0.133191,-0.103942 0.2776319,-0.208336 0.4508703,-0.227234 0.2092368,-0.02024 0.4207235,-0.0117 0.6313096,-0.0099 0.4351218,-0.0064 0.8301968,0.387424 0.8225468,0.823447 0.0035,0.494967 0,0.989936 0.0013,1.484455 -0.16514,4.49e-4 -0.33028,4.49e-4 -0.494969,0 -0.0018,-0.480571 0.0023,-0.961139 -0.0013,-1.441257 0.018,-0.184489 -0.13679,-0.365827 -0.323078,-0.370327 -0.1916866,-0.0085 -0.3865253,-0.018 -0.5768632,0.0094 -0.1646894,0.03239 -0.2677316,0.198888 -0.2686316,0.359527 -0.00274,0.48102 0,0.962038 -9.056e-4,1.442607 -0.1651399,4.49e-4 -0.3302789,4.49e-4 -0.4949682,0 -0.00132,-0.480119 0.00227,-0.960687 -0.00132,-1.440807 0.019351,-0.184039 -0.1354408,-0.365377 -0.3212794,-0.370325 -0.1786377,-0.01082 -0.3590762,-0.01395 -0.5372653,0.0018 -0.1826871,0.0126 -0.3113798,0.190789 -0.3104789,0.365827 -0.00274,0.481018 4.497e-4,0.962486 -9.056e-4,1.443507 -0.1651399,4.5e-4 -0.3302788,4.5e-4 -0.4954187,0 0.00359,-0.501718 -0.00765,-1.004336 0.00539,-1.505604 z"
     id="path20"
     style="fill:#bac6c6;fill-opacity:1"
     inkscape:connector-curvature="0" />
  <path
     d="m 13.861836,14.423066 c 0.07379,-0.159289 0.139041,-0.322629 0.229033,-0.473818 0.204738,0.410823 0.391026,0.830645 0.589913,1.244168 0.07156,0.145341 0.119243,0.30058 0.175488,0.452221 0.16199,-0.561115 0.410374,-1.09253 0.611511,-1.640593 0.127342,9.05e-4 0.254684,0.0013 0.382476,0.0018 -0.276732,0.674506 -0.545814,1.352613 -0.821647,2.027569 -0.04995,0.127791 -0.0972,0.257833 -0.16739,0.376625 -0.133641,-0.264134 -0.247033,-0.537715 -0.372575,-0.805899 -0.137691,-0.319479 -0.308679,-0.626808 -0.400924,-0.963836 -0.136342,0.426571 -0.357277,0.818046 -0.537265,1.227069 -0.08954,0.180889 -0.163341,0.370327 -0.266834,0.544466 -0.337027,-0.796899 -0.640758,-1.607746 -0.972386,-2.406894 0.136791,4.49e-4 0.274032,4.49e-4 0.410823,-9.06e-4 0.162439,0.407224 0.318129,0.817148 0.478318,1.225721 0.0567,0.139492 0.09765,0.284832 0.131842,0.431522 0.128241,-0.431972 0.351879,-0.826596 0.529617,-1.23922 z"
     id="path22"
     style="fill:#bac6c6;fill-opacity:1"
     inkscape:connector-curvature="0" />
  <path
     d="m 17.374084,13.95667 c -0.189797,0.0073 -0.377976,0.05875 -0.54334,0.151866 -0.278082,0.154341 -0.484619,0.426349 -0.566964,0.732328 -0.109797,0.407674 -0.0092,0.876768 0.291356,1.180049 0.498568,0.495417 1.407058,0.477869 1.885379,-0.03824 -0.0765,-0.07515 -0.153216,-0.150741 -0.228361,-0.227235 -0.315429,0.329379 -0.859219,0.402049 -1.249794,0.169863 -0.222286,-0.130491 -0.330728,-0.384049 -0.368976,-0.628834 0.661906,-0.0028 1.324714,-9.04e-4 1.986622,0 0.0153,-0.431973 -0.138817,-0.900842 -0.511843,-1.149675 -0.204259,-0.136173 -0.450054,-0.199438 -0.694079,-0.190113 z m 0.03487,0.33073 c 0.231708,-0.0032 0.464286,0.08336 0.610835,0.266607 0.102147,0.124643 0.141292,0.284607 0.168739,0.439846 -0.525115,0.0023 -1.049781,0.0028 -1.574898,0 0.045,-0.202036 0.128468,-0.405647 0.295857,-0.536589 0.139575,-0.110048 0.31925,-0.167364 0.499467,-0.169864 z"
     id="path24"
     style="fill:#bac6c6;fill-opacity:1"
     inkscape:connector-curvature="0" />
</svg>
