<?xml version="1.0" encoding="utf-8"?>
<!-- Generator: Adobe Illustrator 16.0.0, SVG Export Plug-In . SVG Version: 6.00 Build 0)  -->
<!DOCTYPE svg PUBLIC "-//W3C//DTD SVG 1.1//EN" "http://www.w3.org/Graphics/SVG/1.1/DTD/svg11.dtd">
<svg version="1.1" id="Ebene_2" xmlns="http://www.w3.org/2000/svg" xmlns:xlink="http://www.w3.org/1999/xlink" x="0px" y="0px"
      viewBox="0 0 21.019 24.567" xml:space="preserve">
<g>
    <path fill-rule="evenodd" fill="#BAC6C6" clip-rule="evenodd" d="M19.524,7.699c-0.825,0-1.495,0.68-1.495,1.518v5.932
        c0,0.838,0.669,1.518,1.495,1.518c0.826,0,1.495-0.68,1.495-1.518V9.217C21.019,8.378,20.35,7.699,19.524,7.699z M1.495,7.699
        C0.669,7.699,0,8.378,0,9.217v5.932c0,0.838,0.669,1.518,1.495,1.518c0.825,0,1.495-0.68,1.495-1.518V9.217
        C2.989,8.378,2.32,7.699,1.495,7.699z"/>
    <path fill-rule="evenodd" fill="#BAC6C6" clip-rule="evenodd" d="M3.889,7.745v10.838c0,0.644,0.521,1.166,1.166,1.166h1.332v3.3
        c0,0.838,0.669,1.518,1.495,1.518c0.826,0,1.495-0.68,1.495-1.518v-3.3h2.327v3.3c0,0.838,0.669,1.518,1.495,1.518
        c0.826,0,1.495-0.68,1.495-1.518v-3.3h1.332c0.644,0,1.166-0.522,1.166-1.166V7.745H3.889z"/>
    <path fill-rule="evenodd" fill="#BAC6C6" clip-rule="evenodd" d="M13.662,2.128l1.229-1.784c0.073-0.106,0.055-0.245-0.041-0.311
        c-0.096-0.065-0.232-0.033-0.305,0.073l-1.276,1.853c-0.841-0.332-1.775-0.516-2.76-0.516S8.591,1.628,7.75,1.959L6.473,0.107
        C6.4,0.001,6.264-0.032,6.168,0.034C6.073,0.1,6.055,0.239,6.128,0.345l1.229,1.784c-1.954,0.909-3.323,2.635-3.498,4.65h13.3
        C16.985,4.764,15.615,3.037,13.662,2.128z M7.704,4.939c-0.406,0-0.736-0.329-0.736-0.736c0-0.406,0.33-0.736,0.736-0.736
        c0.407,0,0.736,0.33,0.736,0.736C8.439,4.61,8.11,4.939,7.704,4.939z M13.407,4.939c-0.406,0-0.736-0.329-0.736-0.736
        c0-0.406,0.33-0.736,0.736-0.736c0.407,0,0.736,0.33,0.736,0.736C14.143,4.61,13.813,4.939,13.407,4.939z"/>
</g>
</svg>
