<?xml version="1.0" encoding="utf-8"?>
<!-- Generator: Adobe Illustrator 16.0.0, SVG Export Plug-In . SVG Version: 6.00 Build 0)  -->
<!DOCTYPE svg PUBLIC "-//W3C//DTD SVG 1.1//EN" "http://www.w3.org/Graphics/SVG/1.1/DTD/svg11.dtd">
<svg version="1.1" id="Ebene_2" xmlns="http://www.w3.org/2000/svg" xmlns:xlink="http://www.w3.org/1999/xlink" x="0px" y="0px"
     width="128px" height="128px" viewBox="0 0 41 41" xml:space="preserve">
<path fill="#B9C7C7" d="M38.657,0H2.343C1.055,0,0,1.055,0,2.343v36.314C0,39.945,1.055,41,2.343,41h36.314
    C39.945,41,41,39.945,41,38.657V2.343C41,1.055,39.945,0,38.657,0z M34.8,22.999h-5.633v15.073h-5.738V22.999h-3.986v-5.427h3.986
    c0,0,0-2.224,0-4.635c0-3.643,2.354-6.987,7.779-6.987c2.196,0,3.821,0.21,3.821,0.21L34.9,11.227c0,0-1.657-0.016-3.464-0.016
    c-1.957,0-2.27,0.901-2.27,2.398c0,0.185,0,0.25,0,0.254c0,0.419,0,1.438,0,3.708h5.889L34.8,22.999z"/>
</svg>
